G04 #@! TF.GenerationSoftware,KiCad,Pcbnew,(5.1.6-0-10_14)*
G04 #@! TF.CreationDate,2020-05-26T03:32:06-04:00*
G04 #@! TF.ProjectId,tom-1,746f6d2d-312e-46b6-9963-61645f706362,rev?*
G04 #@! TF.SameCoordinates,Original*
G04 #@! TF.FileFunction,Legend,Top*
G04 #@! TF.FilePolarity,Positive*
%FSLAX46Y46*%
G04 Gerber Fmt 4.6, Leading zero omitted, Abs format (unit mm)*
G04 Created by KiCad (PCBNEW (5.1.6-0-10_14)) date 2020-05-26 03:32:06*
%MOMM*%
%LPD*%
G01*
G04 APERTURE LIST*
%ADD10C,0.120000*%
%ADD11C,0.300000*%
%ADD12C,0.150000*%
%ADD13C,0.400000*%
G04 APERTURE END LIST*
D10*
X48895000Y-132080000D02*
X48895000Y-146050000D01*
X102616000Y-70485000D02*
X102235000Y-70485000D01*
X72390000Y-70485000D02*
X102235000Y-70485000D01*
D11*
X64242428Y-135298571D02*
X63742428Y-134584285D01*
X63385285Y-135298571D02*
X63385285Y-133798571D01*
X63956714Y-133798571D01*
X64099571Y-133870000D01*
X64171000Y-133941428D01*
X64242428Y-134084285D01*
X64242428Y-134298571D01*
X64171000Y-134441428D01*
X64099571Y-134512857D01*
X63956714Y-134584285D01*
X63385285Y-134584285D01*
X64885285Y-134512857D02*
X65385285Y-134512857D01*
X65599571Y-135298571D02*
X64885285Y-135298571D01*
X64885285Y-133798571D01*
X65599571Y-133798571D01*
X66171000Y-135227142D02*
X66385285Y-135298571D01*
X66742428Y-135298571D01*
X66885285Y-135227142D01*
X66956714Y-135155714D01*
X67028142Y-135012857D01*
X67028142Y-134870000D01*
X66956714Y-134727142D01*
X66885285Y-134655714D01*
X66742428Y-134584285D01*
X66456714Y-134512857D01*
X66313857Y-134441428D01*
X66242428Y-134370000D01*
X66171000Y-134227142D01*
X66171000Y-134084285D01*
X66242428Y-133941428D01*
X66313857Y-133870000D01*
X66456714Y-133798571D01*
X66813857Y-133798571D01*
X67028142Y-133870000D01*
X67671000Y-134512857D02*
X68171000Y-134512857D01*
X68385285Y-135298571D02*
X67671000Y-135298571D01*
X67671000Y-133798571D01*
X68385285Y-133798571D01*
X68813857Y-133798571D02*
X69671000Y-133798571D01*
X69242428Y-135298571D02*
X69242428Y-133798571D01*
X52562428Y-135227142D02*
X52776714Y-135298571D01*
X53133857Y-135298571D01*
X53276714Y-135227142D01*
X53348142Y-135155714D01*
X53419571Y-135012857D01*
X53419571Y-134870000D01*
X53348142Y-134727142D01*
X53276714Y-134655714D01*
X53133857Y-134584285D01*
X52848142Y-134512857D01*
X52705285Y-134441428D01*
X52633857Y-134370000D01*
X52562428Y-134227142D01*
X52562428Y-134084285D01*
X52633857Y-133941428D01*
X52705285Y-133870000D01*
X52848142Y-133798571D01*
X53205285Y-133798571D01*
X53419571Y-133870000D01*
X53848142Y-133798571D02*
X54705285Y-133798571D01*
X54276714Y-135298571D02*
X54276714Y-133798571D01*
X55205285Y-134512857D02*
X55705285Y-134512857D01*
X55919571Y-135298571D02*
X55205285Y-135298571D01*
X55205285Y-133798571D01*
X55919571Y-133798571D01*
X56562428Y-135298571D02*
X56562428Y-133798571D01*
X57133857Y-133798571D01*
X57276714Y-133870000D01*
X57348142Y-133941428D01*
X57419571Y-134084285D01*
X57419571Y-134298571D01*
X57348142Y-134441428D01*
X57276714Y-134512857D01*
X57133857Y-134584285D01*
X56562428Y-134584285D01*
D12*
X182662380Y-172434523D02*
X184948095Y-172434523D01*
X183805238Y-176434523D02*
X183805238Y-172434523D01*
X187043333Y-172434523D02*
X187805238Y-172434523D01*
X188186190Y-172625000D01*
X188567142Y-173005952D01*
X188757619Y-173767857D01*
X188757619Y-175101190D01*
X188567142Y-175863095D01*
X188186190Y-176244047D01*
X187805238Y-176434523D01*
X187043333Y-176434523D01*
X186662380Y-176244047D01*
X186281428Y-175863095D01*
X186090952Y-175101190D01*
X186090952Y-173767857D01*
X186281428Y-173005952D01*
X186662380Y-172625000D01*
X187043333Y-172434523D01*
X190471904Y-176434523D02*
X190471904Y-172434523D01*
X191805238Y-175291666D01*
X193138571Y-172434523D01*
X193138571Y-176434523D01*
X195043333Y-174910714D02*
X198090952Y-174910714D01*
X202090952Y-176434523D02*
X199805238Y-176434523D01*
X200948095Y-176434523D02*
X200948095Y-172434523D01*
X200567142Y-173005952D01*
X200186190Y-173386904D01*
X199805238Y-173577380D01*
X208186190Y-174339285D02*
X208757619Y-174529761D01*
X208948095Y-174720238D01*
X209138571Y-175101190D01*
X209138571Y-175672619D01*
X208948095Y-176053571D01*
X208757619Y-176244047D01*
X208376666Y-176434523D01*
X206852857Y-176434523D01*
X206852857Y-172434523D01*
X208186190Y-172434523D01*
X208567142Y-172625000D01*
X208757619Y-172815476D01*
X208948095Y-173196428D01*
X208948095Y-173577380D01*
X208757619Y-173958333D01*
X208567142Y-174148809D01*
X208186190Y-174339285D01*
X206852857Y-174339285D01*
X211424285Y-176434523D02*
X211043333Y-176244047D01*
X210852857Y-176053571D01*
X210662380Y-175672619D01*
X210662380Y-174529761D01*
X210852857Y-174148809D01*
X211043333Y-173958333D01*
X211424285Y-173767857D01*
X211995714Y-173767857D01*
X212376666Y-173958333D01*
X212567142Y-174148809D01*
X212757619Y-174529761D01*
X212757619Y-175672619D01*
X212567142Y-176053571D01*
X212376666Y-176244047D01*
X211995714Y-176434523D01*
X211424285Y-176434523D01*
X216186190Y-176434523D02*
X216186190Y-174339285D01*
X215995714Y-173958333D01*
X215614761Y-173767857D01*
X214852857Y-173767857D01*
X214471904Y-173958333D01*
X216186190Y-176244047D02*
X215805238Y-176434523D01*
X214852857Y-176434523D01*
X214471904Y-176244047D01*
X214281428Y-175863095D01*
X214281428Y-175482142D01*
X214471904Y-175101190D01*
X214852857Y-174910714D01*
X215805238Y-174910714D01*
X216186190Y-174720238D01*
X218090952Y-176434523D02*
X218090952Y-173767857D01*
X218090952Y-174529761D02*
X218281428Y-174148809D01*
X218471904Y-173958333D01*
X218852857Y-173767857D01*
X219233809Y-173767857D01*
X222281428Y-176434523D02*
X222281428Y-172434523D01*
X222281428Y-176244047D02*
X221900476Y-176434523D01*
X221138571Y-176434523D01*
X220757619Y-176244047D01*
X220567142Y-176053571D01*
X220376666Y-175672619D01*
X220376666Y-174529761D01*
X220567142Y-174148809D01*
X220757619Y-173958333D01*
X221138571Y-173767857D01*
X221900476Y-173767857D01*
X222281428Y-173958333D01*
X227043333Y-176244047D02*
X227614761Y-176434523D01*
X228567142Y-176434523D01*
X228948095Y-176244047D01*
X229138571Y-176053571D01*
X229329047Y-175672619D01*
X229329047Y-175291666D01*
X229138571Y-174910714D01*
X228948095Y-174720238D01*
X228567142Y-174529761D01*
X227805238Y-174339285D01*
X227424285Y-174148809D01*
X227233809Y-173958333D01*
X227043333Y-173577380D01*
X227043333Y-173196428D01*
X227233809Y-172815476D01*
X227424285Y-172625000D01*
X227805238Y-172434523D01*
X228757619Y-172434523D01*
X229329047Y-172625000D01*
X232757619Y-176244047D02*
X232376666Y-176434523D01*
X231614761Y-176434523D01*
X231233809Y-176244047D01*
X231043333Y-176053571D01*
X230852857Y-175672619D01*
X230852857Y-174529761D01*
X231043333Y-174148809D01*
X231233809Y-173958333D01*
X231614761Y-173767857D01*
X232376666Y-173767857D01*
X232757619Y-173958333D01*
X234471904Y-176434523D02*
X234471904Y-172434523D01*
X236186190Y-176434523D02*
X236186190Y-174339285D01*
X235995714Y-173958333D01*
X235614761Y-173767857D01*
X235043333Y-173767857D01*
X234662380Y-173958333D01*
X234471904Y-174148809D01*
X239614761Y-176244047D02*
X239233809Y-176434523D01*
X238471904Y-176434523D01*
X238090952Y-176244047D01*
X237900476Y-175863095D01*
X237900476Y-174339285D01*
X238090952Y-173958333D01*
X238471904Y-173767857D01*
X239233809Y-173767857D01*
X239614761Y-173958333D01*
X239805238Y-174339285D01*
X239805238Y-174720238D01*
X237900476Y-175101190D01*
X241519523Y-176434523D02*
X241519523Y-173767857D01*
X241519523Y-174148809D02*
X241710000Y-173958333D01*
X242090952Y-173767857D01*
X242662380Y-173767857D01*
X243043333Y-173958333D01*
X243233809Y-174339285D01*
X243233809Y-176434523D01*
X243233809Y-174339285D02*
X243424285Y-173958333D01*
X243805238Y-173767857D01*
X244376666Y-173767857D01*
X244757619Y-173958333D01*
X244948095Y-174339285D01*
X244948095Y-176434523D01*
X248567142Y-176434523D02*
X248567142Y-174339285D01*
X248376666Y-173958333D01*
X247995714Y-173767857D01*
X247233809Y-173767857D01*
X246852857Y-173958333D01*
X248567142Y-176244047D02*
X248186190Y-176434523D01*
X247233809Y-176434523D01*
X246852857Y-176244047D01*
X246662380Y-175863095D01*
X246662380Y-175482142D01*
X246852857Y-175101190D01*
X247233809Y-174910714D01*
X248186190Y-174910714D01*
X248567142Y-174720238D01*
X249900476Y-173767857D02*
X251424285Y-173767857D01*
X250471904Y-172434523D02*
X250471904Y-175863095D01*
X250662380Y-176244047D01*
X251043333Y-176434523D01*
X251424285Y-176434523D01*
X252757619Y-176434523D02*
X252757619Y-173767857D01*
X252757619Y-172434523D02*
X252567142Y-172625000D01*
X252757619Y-172815476D01*
X252948095Y-172625000D01*
X252757619Y-172434523D01*
X252757619Y-172815476D01*
X256376666Y-176244047D02*
X255995714Y-176434523D01*
X255233809Y-176434523D01*
X254852857Y-176244047D01*
X254662380Y-176053571D01*
X254471904Y-175672619D01*
X254471904Y-174529761D01*
X254662380Y-174148809D01*
X254852857Y-173958333D01*
X255233809Y-173767857D01*
X255995714Y-173767857D01*
X256376666Y-173958333D01*
D10*
X127381000Y-146050000D02*
X127381000Y-133350000D01*
D12*
X133334642Y-158932619D02*
X133382261Y-158885000D01*
X133477500Y-158837380D01*
X133715595Y-158837380D01*
X133810833Y-158885000D01*
X133858452Y-158932619D01*
X133906071Y-159027857D01*
X133906071Y-159123095D01*
X133858452Y-159265952D01*
X133287023Y-159837380D01*
X133906071Y-159837380D01*
X134525119Y-158837380D02*
X134620357Y-158837380D01*
X134715595Y-158885000D01*
X134763214Y-158932619D01*
X134810833Y-159027857D01*
X134858452Y-159218333D01*
X134858452Y-159456428D01*
X134810833Y-159646904D01*
X134763214Y-159742142D01*
X134715595Y-159789761D01*
X134620357Y-159837380D01*
X134525119Y-159837380D01*
X134429880Y-159789761D01*
X134382261Y-159742142D01*
X134334642Y-159646904D01*
X134287023Y-159456428D01*
X134287023Y-159218333D01*
X134334642Y-159027857D01*
X134382261Y-158932619D01*
X134429880Y-158885000D01*
X134525119Y-158837380D01*
X135287023Y-159742142D02*
X135334642Y-159789761D01*
X135287023Y-159837380D01*
X135239404Y-159789761D01*
X135287023Y-159742142D01*
X135287023Y-159837380D01*
X135810833Y-159837380D02*
X136001309Y-159837380D01*
X136096547Y-159789761D01*
X136144166Y-159742142D01*
X136239404Y-159599285D01*
X136287023Y-159408809D01*
X136287023Y-159027857D01*
X136239404Y-158932619D01*
X136191785Y-158885000D01*
X136096547Y-158837380D01*
X135906071Y-158837380D01*
X135810833Y-158885000D01*
X135763214Y-158932619D01*
X135715595Y-159027857D01*
X135715595Y-159265952D01*
X135763214Y-159361190D01*
X135810833Y-159408809D01*
X135906071Y-159456428D01*
X136096547Y-159456428D01*
X136191785Y-159408809D01*
X136239404Y-159361190D01*
X136287023Y-159265952D01*
X137191785Y-158837380D02*
X136715595Y-158837380D01*
X136667976Y-159313571D01*
X136715595Y-159265952D01*
X136810833Y-159218333D01*
X137048928Y-159218333D01*
X137144166Y-159265952D01*
X137191785Y-159313571D01*
X137239404Y-159408809D01*
X137239404Y-159646904D01*
X137191785Y-159742142D01*
X137144166Y-159789761D01*
X137048928Y-159837380D01*
X136810833Y-159837380D01*
X136715595Y-159789761D01*
X136667976Y-159742142D01*
X138144166Y-158837380D02*
X137667976Y-158837380D01*
X137620357Y-159313571D01*
X137667976Y-159265952D01*
X137763214Y-159218333D01*
X138001309Y-159218333D01*
X138096547Y-159265952D01*
X138144166Y-159313571D01*
X138191785Y-159408809D01*
X138191785Y-159646904D01*
X138144166Y-159742142D01*
X138096547Y-159789761D01*
X138001309Y-159837380D01*
X137763214Y-159837380D01*
X137667976Y-159789761D01*
X137620357Y-159742142D01*
X139382261Y-159837380D02*
X139382261Y-159170714D01*
X139382261Y-159265952D02*
X139429880Y-159218333D01*
X139525119Y-159170714D01*
X139667976Y-159170714D01*
X139763214Y-159218333D01*
X139810833Y-159313571D01*
X139810833Y-159837380D01*
X139810833Y-159313571D02*
X139858452Y-159218333D01*
X139953690Y-159170714D01*
X140096547Y-159170714D01*
X140191785Y-159218333D01*
X140239404Y-159313571D01*
X140239404Y-159837380D01*
X140715595Y-159837380D02*
X140715595Y-159170714D01*
X140715595Y-159265952D02*
X140763214Y-159218333D01*
X140858452Y-159170714D01*
X141001309Y-159170714D01*
X141096547Y-159218333D01*
X141144166Y-159313571D01*
X141144166Y-159837380D01*
X141144166Y-159313571D02*
X141191785Y-159218333D01*
X141287023Y-159170714D01*
X141429880Y-159170714D01*
X141525119Y-159218333D01*
X141572738Y-159313571D01*
X141572738Y-159837380D01*
D10*
X127000000Y-158115000D02*
X147955000Y-158115000D01*
X127000000Y-149225000D02*
X127000000Y-158701421D01*
X147955000Y-149225000D02*
X147955000Y-158701421D01*
X147955000Y-158115000D02*
X146828496Y-158701421D01*
X147955000Y-158115000D02*
X146828496Y-157528579D01*
X127000000Y-158115000D02*
X128126504Y-158701421D01*
X127000000Y-158115000D02*
X128126504Y-157528579D01*
D12*
X164012619Y-135811071D02*
X164012619Y-135239642D01*
X164012619Y-135525357D02*
X165012619Y-135525357D01*
X164869761Y-135430119D01*
X164774523Y-135334880D01*
X164726904Y-135239642D01*
X164917380Y-136192023D02*
X164965000Y-136239642D01*
X165012619Y-136334880D01*
X165012619Y-136572976D01*
X164965000Y-136668214D01*
X164917380Y-136715833D01*
X164822142Y-136763452D01*
X164726904Y-136763452D01*
X164584047Y-136715833D01*
X164012619Y-136144404D01*
X164012619Y-136763452D01*
X164107857Y-137192023D02*
X164060238Y-137239642D01*
X164012619Y-137192023D01*
X164060238Y-137144404D01*
X164107857Y-137192023D01*
X164012619Y-137192023D01*
X165012619Y-137858690D02*
X165012619Y-137953928D01*
X164965000Y-138049166D01*
X164917380Y-138096785D01*
X164822142Y-138144404D01*
X164631666Y-138192023D01*
X164393571Y-138192023D01*
X164203095Y-138144404D01*
X164107857Y-138096785D01*
X164060238Y-138049166D01*
X164012619Y-137953928D01*
X164012619Y-137858690D01*
X164060238Y-137763452D01*
X164107857Y-137715833D01*
X164203095Y-137668214D01*
X164393571Y-137620595D01*
X164631666Y-137620595D01*
X164822142Y-137668214D01*
X164917380Y-137715833D01*
X164965000Y-137763452D01*
X165012619Y-137858690D01*
X165012619Y-139049166D02*
X165012619Y-138858690D01*
X164965000Y-138763452D01*
X164917380Y-138715833D01*
X164774523Y-138620595D01*
X164584047Y-138572976D01*
X164203095Y-138572976D01*
X164107857Y-138620595D01*
X164060238Y-138668214D01*
X164012619Y-138763452D01*
X164012619Y-138953928D01*
X164060238Y-139049166D01*
X164107857Y-139096785D01*
X164203095Y-139144404D01*
X164441190Y-139144404D01*
X164536428Y-139096785D01*
X164584047Y-139049166D01*
X164631666Y-138953928D01*
X164631666Y-138763452D01*
X164584047Y-138668214D01*
X164536428Y-138620595D01*
X164441190Y-138572976D01*
X165012619Y-140049166D02*
X165012619Y-139572976D01*
X164536428Y-139525357D01*
X164584047Y-139572976D01*
X164631666Y-139668214D01*
X164631666Y-139906309D01*
X164584047Y-140001547D01*
X164536428Y-140049166D01*
X164441190Y-140096785D01*
X164203095Y-140096785D01*
X164107857Y-140049166D01*
X164060238Y-140001547D01*
X164012619Y-139906309D01*
X164012619Y-139668214D01*
X164060238Y-139572976D01*
X164107857Y-139525357D01*
X164012619Y-141287261D02*
X164679285Y-141287261D01*
X164584047Y-141287261D02*
X164631666Y-141334880D01*
X164679285Y-141430119D01*
X164679285Y-141572976D01*
X164631666Y-141668214D01*
X164536428Y-141715833D01*
X164012619Y-141715833D01*
X164536428Y-141715833D02*
X164631666Y-141763452D01*
X164679285Y-141858690D01*
X164679285Y-142001547D01*
X164631666Y-142096785D01*
X164536428Y-142144404D01*
X164012619Y-142144404D01*
X164012619Y-142620595D02*
X164679285Y-142620595D01*
X164584047Y-142620595D02*
X164631666Y-142668214D01*
X164679285Y-142763452D01*
X164679285Y-142906309D01*
X164631666Y-143001547D01*
X164536428Y-143049166D01*
X164012619Y-143049166D01*
X164536428Y-143049166D02*
X164631666Y-143096785D01*
X164679285Y-143192023D01*
X164679285Y-143334880D01*
X164631666Y-143430119D01*
X164536428Y-143477738D01*
X164012619Y-143477738D01*
D10*
X163195000Y-133350000D02*
X163195000Y-145415000D01*
X154305000Y-133350000D02*
X163781421Y-133350000D01*
X154305000Y-145415000D02*
X163781421Y-145415000D01*
X163195000Y-145415000D02*
X162608579Y-144288496D01*
X163195000Y-145415000D02*
X163781421Y-144288496D01*
X163195000Y-133350000D02*
X162608579Y-134476504D01*
X163195000Y-133350000D02*
X163781421Y-134476504D01*
X102616000Y-133350000D02*
X148971000Y-133350000D01*
X102616000Y-132080000D02*
X102616000Y-146050000D01*
X72136000Y-122555000D02*
X102616000Y-122555000D01*
X133096000Y-94615000D02*
X102616000Y-94615000D01*
X102616000Y-59690000D02*
X133096000Y-59690000D01*
X102616000Y-132080000D02*
X102616000Y-44450000D01*
D11*
X78554571Y-125773571D02*
X78554571Y-124273571D01*
X80340285Y-124202142D02*
X79054571Y-126130714D01*
X81126000Y-124273571D02*
X81411714Y-124273571D01*
X81554571Y-124345000D01*
X81697428Y-124487857D01*
X81768857Y-124773571D01*
X81768857Y-125273571D01*
X81697428Y-125559285D01*
X81554571Y-125702142D01*
X81411714Y-125773571D01*
X81126000Y-125773571D01*
X80983142Y-125702142D01*
X80840285Y-125559285D01*
X80768857Y-125273571D01*
X80768857Y-124773571D01*
X80840285Y-124487857D01*
X80983142Y-124345000D01*
X81126000Y-124273571D01*
X83983142Y-126273571D02*
X83626000Y-126273571D01*
X83626000Y-124130714D01*
X83983142Y-124130714D01*
X84411714Y-124273571D02*
X85411714Y-124273571D01*
X84768857Y-125773571D01*
X86626000Y-124773571D02*
X86626000Y-125773571D01*
X86268857Y-124202142D02*
X85911714Y-125273571D01*
X86840285Y-125273571D01*
X87411714Y-125773571D02*
X87411714Y-124273571D01*
X87411714Y-124987857D02*
X88268857Y-124987857D01*
X88268857Y-125773571D02*
X88268857Y-124273571D01*
X89840285Y-125630714D02*
X89768857Y-125702142D01*
X89554571Y-125773571D01*
X89411714Y-125773571D01*
X89197428Y-125702142D01*
X89054571Y-125559285D01*
X88983142Y-125416428D01*
X88911714Y-125130714D01*
X88911714Y-124916428D01*
X88983142Y-124630714D01*
X89054571Y-124487857D01*
X89197428Y-124345000D01*
X89411714Y-124273571D01*
X89554571Y-124273571D01*
X89768857Y-124345000D01*
X89840285Y-124416428D01*
X90268857Y-124273571D02*
X91126000Y-124273571D01*
X90697428Y-125773571D02*
X90697428Y-124273571D01*
X91554571Y-124416428D02*
X91626000Y-124345000D01*
X91768857Y-124273571D01*
X92126000Y-124273571D01*
X92268857Y-124345000D01*
X92340285Y-124416428D01*
X92411714Y-124559285D01*
X92411714Y-124702142D01*
X92340285Y-124916428D01*
X91483142Y-125773571D01*
X92411714Y-125773571D01*
X93697428Y-124773571D02*
X93697428Y-125773571D01*
X93340285Y-124202142D02*
X92983142Y-125273571D01*
X93911714Y-125273571D01*
X95197428Y-124273571D02*
X94483142Y-124273571D01*
X94411714Y-124987857D01*
X94483142Y-124916428D01*
X94626000Y-124845000D01*
X94983142Y-124845000D01*
X95126000Y-124916428D01*
X95197428Y-124987857D01*
X95268857Y-125130714D01*
X95268857Y-125487857D01*
X95197428Y-125630714D01*
X95126000Y-125702142D01*
X94983142Y-125773571D01*
X94626000Y-125773571D01*
X94483142Y-125702142D01*
X94411714Y-125630714D01*
X95768857Y-126273571D02*
X96126000Y-126273571D01*
X96126000Y-124130714D01*
X95768857Y-124130714D01*
X109299714Y-47525714D02*
X109228285Y-47597142D01*
X109014000Y-47668571D01*
X108871142Y-47668571D01*
X108656857Y-47597142D01*
X108514000Y-47454285D01*
X108442571Y-47311428D01*
X108371142Y-47025714D01*
X108371142Y-46811428D01*
X108442571Y-46525714D01*
X108514000Y-46382857D01*
X108656857Y-46240000D01*
X108871142Y-46168571D01*
X109014000Y-46168571D01*
X109228285Y-46240000D01*
X109299714Y-46311428D01*
X109728285Y-46168571D02*
X110585428Y-46168571D01*
X110156857Y-47668571D02*
X110156857Y-46168571D01*
X111942571Y-47668571D02*
X111442571Y-46954285D01*
X111085428Y-47668571D02*
X111085428Y-46168571D01*
X111656857Y-46168571D01*
X111799714Y-46240000D01*
X111871142Y-46311428D01*
X111942571Y-46454285D01*
X111942571Y-46668571D01*
X111871142Y-46811428D01*
X111799714Y-46882857D01*
X111656857Y-46954285D01*
X111085428Y-46954285D01*
X113299714Y-47668571D02*
X112585428Y-47668571D01*
X112585428Y-46168571D01*
X115371142Y-48168571D02*
X115014000Y-48168571D01*
X115014000Y-46025714D01*
X115371142Y-46025714D01*
X115799714Y-46168571D02*
X116799714Y-46168571D01*
X116156857Y-47668571D01*
X118014000Y-46668571D02*
X118014000Y-47668571D01*
X117656857Y-46097142D02*
X117299714Y-47168571D01*
X118228285Y-47168571D01*
X118799714Y-47668571D02*
X118799714Y-46168571D01*
X118799714Y-46882857D02*
X119656857Y-46882857D01*
X119656857Y-47668571D02*
X119656857Y-46168571D01*
X121228285Y-47525714D02*
X121156857Y-47597142D01*
X120942571Y-47668571D01*
X120799714Y-47668571D01*
X120585428Y-47597142D01*
X120442571Y-47454285D01*
X120371142Y-47311428D01*
X120299714Y-47025714D01*
X120299714Y-46811428D01*
X120371142Y-46525714D01*
X120442571Y-46382857D01*
X120585428Y-46240000D01*
X120799714Y-46168571D01*
X120942571Y-46168571D01*
X121156857Y-46240000D01*
X121228285Y-46311428D01*
X121656857Y-46168571D02*
X122514000Y-46168571D01*
X122085428Y-47668571D02*
X122085428Y-46168571D01*
X123728285Y-46168571D02*
X123014000Y-46168571D01*
X122942571Y-46882857D01*
X123014000Y-46811428D01*
X123156857Y-46740000D01*
X123514000Y-46740000D01*
X123656857Y-46811428D01*
X123728285Y-46882857D01*
X123799714Y-47025714D01*
X123799714Y-47382857D01*
X123728285Y-47525714D01*
X123656857Y-47597142D01*
X123514000Y-47668571D01*
X123156857Y-47668571D01*
X123014000Y-47597142D01*
X122942571Y-47525714D01*
X124299714Y-46168571D02*
X125299714Y-46168571D01*
X124656857Y-47668571D01*
X125728285Y-46168571D02*
X126656857Y-46168571D01*
X126156857Y-46740000D01*
X126371142Y-46740000D01*
X126514000Y-46811428D01*
X126585428Y-46882857D01*
X126656857Y-47025714D01*
X126656857Y-47382857D01*
X126585428Y-47525714D01*
X126514000Y-47597142D01*
X126371142Y-47668571D01*
X125942571Y-47668571D01*
X125799714Y-47597142D01*
X125728285Y-47525714D01*
X127156857Y-48168571D02*
X127514000Y-48168571D01*
X127514000Y-46025714D01*
X127156857Y-46025714D01*
D10*
X48641000Y-44450000D02*
X48641000Y-90805000D01*
X30226000Y-90805000D02*
X30226000Y-132080000D01*
X21336000Y-44450000D02*
X133096000Y-44450000D01*
X72390000Y-146050000D02*
X72390000Y-19050000D01*
X72136000Y-132080000D02*
X21336000Y-132080000D01*
D11*
X131247428Y-140148571D02*
X131247428Y-141362857D01*
X131318857Y-141505714D01*
X131390285Y-141577142D01*
X131533142Y-141648571D01*
X131818857Y-141648571D01*
X131961714Y-141577142D01*
X132033142Y-141505714D01*
X132104571Y-141362857D01*
X132104571Y-140148571D01*
X132747428Y-141577142D02*
X132961714Y-141648571D01*
X133318857Y-141648571D01*
X133461714Y-141577142D01*
X133533142Y-141505714D01*
X133604571Y-141362857D01*
X133604571Y-141220000D01*
X133533142Y-141077142D01*
X133461714Y-141005714D01*
X133318857Y-140934285D01*
X133033142Y-140862857D01*
X132890285Y-140791428D01*
X132818857Y-140720000D01*
X132747428Y-140577142D01*
X132747428Y-140434285D01*
X132818857Y-140291428D01*
X132890285Y-140220000D01*
X133033142Y-140148571D01*
X133390285Y-140148571D01*
X133604571Y-140220000D01*
X134747428Y-140862857D02*
X134961714Y-140934285D01*
X135033142Y-141005714D01*
X135104571Y-141148571D01*
X135104571Y-141362857D01*
X135033142Y-141505714D01*
X134961714Y-141577142D01*
X134818857Y-141648571D01*
X134247428Y-141648571D01*
X134247428Y-140148571D01*
X134747428Y-140148571D01*
X134890285Y-140220000D01*
X134961714Y-140291428D01*
X135033142Y-140434285D01*
X135033142Y-140577142D01*
X134961714Y-140720000D01*
X134890285Y-140791428D01*
X134747428Y-140862857D01*
X134247428Y-140862857D01*
X136890285Y-141648571D02*
X136890285Y-140148571D01*
X137390285Y-141220000D01*
X137890285Y-140148571D01*
X137890285Y-141648571D01*
X138890285Y-140148571D02*
X139176000Y-140148571D01*
X139318857Y-140220000D01*
X139461714Y-140362857D01*
X139533142Y-140648571D01*
X139533142Y-141148571D01*
X139461714Y-141434285D01*
X139318857Y-141577142D01*
X139176000Y-141648571D01*
X138890285Y-141648571D01*
X138747428Y-141577142D01*
X138604571Y-141434285D01*
X138533142Y-141148571D01*
X138533142Y-140648571D01*
X138604571Y-140362857D01*
X138747428Y-140220000D01*
X138890285Y-140148571D01*
X140176000Y-141648571D02*
X140176000Y-140148571D01*
X140533142Y-140148571D01*
X140747428Y-140220000D01*
X140890285Y-140362857D01*
X140961714Y-140505714D01*
X141033142Y-140791428D01*
X141033142Y-141005714D01*
X140961714Y-141291428D01*
X140890285Y-141434285D01*
X140747428Y-141577142D01*
X140533142Y-141648571D01*
X140176000Y-141648571D01*
X141676000Y-140148571D02*
X141676000Y-141362857D01*
X141747428Y-141505714D01*
X141818857Y-141577142D01*
X141961714Y-141648571D01*
X142247428Y-141648571D01*
X142390285Y-141577142D01*
X142461714Y-141505714D01*
X142533142Y-141362857D01*
X142533142Y-140148571D01*
X143961714Y-141648571D02*
X143247428Y-141648571D01*
X143247428Y-140148571D01*
X144461714Y-140862857D02*
X144961714Y-140862857D01*
X145176000Y-141648571D02*
X144461714Y-141648571D01*
X144461714Y-140148571D01*
X145176000Y-140148571D01*
X136116857Y-22395571D02*
X136116857Y-20895571D01*
X136474000Y-20895571D01*
X136688285Y-20967000D01*
X136831142Y-21109857D01*
X136902571Y-21252714D01*
X136974000Y-21538428D01*
X136974000Y-21752714D01*
X136902571Y-22038428D01*
X136831142Y-22181285D01*
X136688285Y-22324142D01*
X136474000Y-22395571D01*
X136116857Y-22395571D01*
X137616857Y-21609857D02*
X138116857Y-21609857D01*
X138331142Y-22395571D02*
X137616857Y-22395571D01*
X137616857Y-20895571D01*
X138331142Y-20895571D01*
X139474000Y-21609857D02*
X139688285Y-21681285D01*
X139759714Y-21752714D01*
X139831142Y-21895571D01*
X139831142Y-22109857D01*
X139759714Y-22252714D01*
X139688285Y-22324142D01*
X139545428Y-22395571D01*
X138974000Y-22395571D01*
X138974000Y-20895571D01*
X139474000Y-20895571D01*
X139616857Y-20967000D01*
X139688285Y-21038428D01*
X139759714Y-21181285D01*
X139759714Y-21324142D01*
X139688285Y-21467000D01*
X139616857Y-21538428D01*
X139474000Y-21609857D01*
X138974000Y-21609857D01*
X140474000Y-20895571D02*
X140474000Y-22109857D01*
X140545428Y-22252714D01*
X140616857Y-22324142D01*
X140759714Y-22395571D01*
X141045428Y-22395571D01*
X141188285Y-22324142D01*
X141259714Y-22252714D01*
X141331142Y-22109857D01*
X141331142Y-20895571D01*
X142831142Y-20967000D02*
X142688285Y-20895571D01*
X142474000Y-20895571D01*
X142259714Y-20967000D01*
X142116857Y-21109857D01*
X142045428Y-21252714D01*
X141974000Y-21538428D01*
X141974000Y-21752714D01*
X142045428Y-22038428D01*
X142116857Y-22181285D01*
X142259714Y-22324142D01*
X142474000Y-22395571D01*
X142616857Y-22395571D01*
X142831142Y-22324142D01*
X142902571Y-22252714D01*
X142902571Y-21752714D01*
X142616857Y-21752714D01*
X144688285Y-22395571D02*
X144688285Y-21395571D01*
X144688285Y-21681285D02*
X144759714Y-21538428D01*
X144831142Y-21467000D01*
X144974000Y-21395571D01*
X145116857Y-21395571D01*
X146402571Y-22395571D02*
X145545428Y-22395571D01*
X145974000Y-22395571D02*
X145974000Y-20895571D01*
X145831142Y-21109857D01*
X145688285Y-21252714D01*
X145545428Y-21324142D01*
X113233142Y-61408571D02*
X113233142Y-62480000D01*
X113161714Y-62694285D01*
X113018857Y-62837142D01*
X112804571Y-62908571D01*
X112661714Y-62908571D01*
X113947428Y-61408571D02*
X113947428Y-62622857D01*
X114018857Y-62765714D01*
X114090285Y-62837142D01*
X114233142Y-62908571D01*
X114518857Y-62908571D01*
X114661714Y-62837142D01*
X114733142Y-62765714D01*
X114804571Y-62622857D01*
X114804571Y-61408571D01*
X115518857Y-62908571D02*
X115518857Y-61408571D01*
X116018857Y-62480000D01*
X116518857Y-61408571D01*
X116518857Y-62908571D01*
X117233142Y-62908571D02*
X117233142Y-61408571D01*
X117804571Y-61408571D01*
X117947428Y-61480000D01*
X118018857Y-61551428D01*
X118090285Y-61694285D01*
X118090285Y-61908571D01*
X118018857Y-62051428D01*
X117947428Y-62122857D01*
X117804571Y-62194285D01*
X117233142Y-62194285D01*
X119804571Y-61337142D02*
X118518857Y-63265714D01*
X121161714Y-62765714D02*
X121090285Y-62837142D01*
X120876000Y-62908571D01*
X120733142Y-62908571D01*
X120518857Y-62837142D01*
X120376000Y-62694285D01*
X120304571Y-62551428D01*
X120233142Y-62265714D01*
X120233142Y-62051428D01*
X120304571Y-61765714D01*
X120376000Y-61622857D01*
X120518857Y-61480000D01*
X120733142Y-61408571D01*
X120876000Y-61408571D01*
X121090285Y-61480000D01*
X121161714Y-61551428D01*
X121804571Y-62908571D02*
X121804571Y-61408571D01*
X121804571Y-62122857D02*
X122661714Y-62122857D01*
X122661714Y-62908571D02*
X122661714Y-61408571D01*
X123304571Y-62480000D02*
X124018857Y-62480000D01*
X123161714Y-62908571D02*
X123661714Y-61408571D01*
X124161714Y-62908571D01*
X125518857Y-62908571D02*
X125018857Y-62194285D01*
X124661714Y-62908571D02*
X124661714Y-61408571D01*
X125233142Y-61408571D01*
X125376000Y-61480000D01*
X125447428Y-61551428D01*
X125518857Y-61694285D01*
X125518857Y-61908571D01*
X125447428Y-62051428D01*
X125376000Y-62122857D01*
X125233142Y-62194285D01*
X124661714Y-62194285D01*
X28793857Y-134520714D02*
X28722428Y-134592142D01*
X28508142Y-134663571D01*
X28365285Y-134663571D01*
X28151000Y-134592142D01*
X28008142Y-134449285D01*
X27936714Y-134306428D01*
X27865285Y-134020714D01*
X27865285Y-133806428D01*
X27936714Y-133520714D01*
X28008142Y-133377857D01*
X28151000Y-133235000D01*
X28365285Y-133163571D01*
X28508142Y-133163571D01*
X28722428Y-133235000D01*
X28793857Y-133306428D01*
X30151000Y-134663571D02*
X29436714Y-134663571D01*
X29436714Y-133163571D01*
X30651000Y-134663571D02*
X30651000Y-133163571D01*
X31508142Y-134663571D02*
X30865285Y-133806428D01*
X31508142Y-133163571D02*
X30651000Y-134020714D01*
X33722428Y-135163571D02*
X33365285Y-135163571D01*
X33365285Y-133020714D01*
X33722428Y-133020714D01*
X35008142Y-133163571D02*
X34293857Y-133163571D01*
X34222428Y-133877857D01*
X34293857Y-133806428D01*
X34436714Y-133735000D01*
X34793857Y-133735000D01*
X34936714Y-133806428D01*
X35008142Y-133877857D01*
X35079571Y-134020714D01*
X35079571Y-134377857D01*
X35008142Y-134520714D01*
X34936714Y-134592142D01*
X34793857Y-134663571D01*
X34436714Y-134663571D01*
X34293857Y-134592142D01*
X34222428Y-134520714D01*
X36436714Y-133163571D02*
X35722428Y-133163571D01*
X35651000Y-133877857D01*
X35722428Y-133806428D01*
X35865285Y-133735000D01*
X36222428Y-133735000D01*
X36365285Y-133806428D01*
X36436714Y-133877857D01*
X36508142Y-134020714D01*
X36508142Y-134377857D01*
X36436714Y-134520714D01*
X36365285Y-134592142D01*
X36222428Y-134663571D01*
X35865285Y-134663571D01*
X35722428Y-134592142D01*
X35651000Y-134520714D01*
X37865285Y-133163571D02*
X37151000Y-133163571D01*
X37079571Y-133877857D01*
X37151000Y-133806428D01*
X37293857Y-133735000D01*
X37651000Y-133735000D01*
X37793857Y-133806428D01*
X37865285Y-133877857D01*
X37936714Y-134020714D01*
X37936714Y-134377857D01*
X37865285Y-134520714D01*
X37793857Y-134592142D01*
X37651000Y-134663571D01*
X37293857Y-134663571D01*
X37151000Y-134592142D01*
X37079571Y-134520714D01*
X38436714Y-135163571D02*
X38793857Y-135163571D01*
X38793857Y-133020714D01*
X38436714Y-133020714D01*
D10*
X72390000Y-90805000D02*
X21590000Y-90805000D01*
X133096000Y-19050000D02*
X133096000Y-133350000D01*
D11*
X91715285Y-22395571D02*
X91215285Y-21681285D01*
X90858142Y-22395571D02*
X90858142Y-20895571D01*
X91429571Y-20895571D01*
X91572428Y-20967000D01*
X91643857Y-21038428D01*
X91715285Y-21181285D01*
X91715285Y-21395571D01*
X91643857Y-21538428D01*
X91572428Y-21609857D01*
X91429571Y-21681285D01*
X90858142Y-21681285D01*
X92643857Y-20895571D02*
X92929571Y-20895571D01*
X93072428Y-20967000D01*
X93215285Y-21109857D01*
X93286714Y-21395571D01*
X93286714Y-21895571D01*
X93215285Y-22181285D01*
X93072428Y-22324142D01*
X92929571Y-22395571D01*
X92643857Y-22395571D01*
X92501000Y-22324142D01*
X92358142Y-22181285D01*
X92286714Y-21895571D01*
X92286714Y-21395571D01*
X92358142Y-21109857D01*
X92501000Y-20967000D01*
X92643857Y-20895571D01*
X93929571Y-22395571D02*
X93929571Y-20895571D01*
X94429571Y-21967000D01*
X94929571Y-20895571D01*
X94929571Y-22395571D01*
X97215285Y-22967000D02*
X97143857Y-22895571D01*
X97001000Y-22681285D01*
X96929571Y-22538428D01*
X96858142Y-22324142D01*
X96786714Y-21967000D01*
X96786714Y-21681285D01*
X96858142Y-21324142D01*
X96929571Y-21109857D01*
X97001000Y-20967000D01*
X97143857Y-20752714D01*
X97215285Y-20681285D01*
X97643857Y-20895571D02*
X98572428Y-20895571D01*
X98072428Y-21467000D01*
X98286714Y-21467000D01*
X98429571Y-21538428D01*
X98501000Y-21609857D01*
X98572428Y-21752714D01*
X98572428Y-22109857D01*
X98501000Y-22252714D01*
X98429571Y-22324142D01*
X98286714Y-22395571D01*
X97858142Y-22395571D01*
X97715285Y-22324142D01*
X97643857Y-22252714D01*
X99143857Y-21038428D02*
X99215285Y-20967000D01*
X99358142Y-20895571D01*
X99715285Y-20895571D01*
X99858142Y-20967000D01*
X99929571Y-21038428D01*
X100001000Y-21181285D01*
X100001000Y-21324142D01*
X99929571Y-21538428D01*
X99072428Y-22395571D01*
X100001000Y-22395571D01*
X100643857Y-22395571D02*
X100643857Y-20895571D01*
X101501000Y-22395571D02*
X100858142Y-21538428D01*
X101501000Y-20895571D02*
X100643857Y-21752714D01*
X102001000Y-22967000D02*
X102072428Y-22895571D01*
X102215285Y-22681285D01*
X102286714Y-22538428D01*
X102358142Y-22324142D01*
X102429571Y-21967000D01*
X102429571Y-21681285D01*
X102358142Y-21324142D01*
X102286714Y-21109857D01*
X102215285Y-20967000D01*
X102072428Y-20752714D01*
X102001000Y-20681285D01*
X104715285Y-22895571D02*
X104358142Y-22895571D01*
X104358142Y-20752714D01*
X104715285Y-20752714D01*
X105215285Y-21038428D02*
X105286714Y-20967000D01*
X105429571Y-20895571D01*
X105786714Y-20895571D01*
X105929571Y-20967000D01*
X106001000Y-21038428D01*
X106072428Y-21181285D01*
X106072428Y-21324142D01*
X106001000Y-21538428D01*
X105143857Y-22395571D01*
X106072428Y-22395571D01*
X106572428Y-20895571D02*
X107572428Y-20895571D01*
X106929571Y-22395571D01*
X109001000Y-22252714D02*
X108929571Y-22324142D01*
X108715285Y-22395571D01*
X108572428Y-22395571D01*
X108358142Y-22324142D01*
X108215285Y-22181285D01*
X108143857Y-22038428D01*
X108072428Y-21752714D01*
X108072428Y-21538428D01*
X108143857Y-21252714D01*
X108215285Y-21109857D01*
X108358142Y-20967000D01*
X108572428Y-20895571D01*
X108715285Y-20895571D01*
X108929571Y-20967000D01*
X109001000Y-21038428D01*
X110429571Y-22395571D02*
X109572428Y-22395571D01*
X110001000Y-22395571D02*
X110001000Y-20895571D01*
X109858142Y-21109857D01*
X109715285Y-21252714D01*
X109572428Y-21324142D01*
X111358142Y-20895571D02*
X111501000Y-20895571D01*
X111643857Y-20967000D01*
X111715285Y-21038428D01*
X111786714Y-21181285D01*
X111858142Y-21467000D01*
X111858142Y-21824142D01*
X111786714Y-22109857D01*
X111715285Y-22252714D01*
X111643857Y-22324142D01*
X111501000Y-22395571D01*
X111358142Y-22395571D01*
X111215285Y-22324142D01*
X111143857Y-22252714D01*
X111072428Y-22109857D01*
X111001000Y-21824142D01*
X111001000Y-21467000D01*
X111072428Y-21181285D01*
X111143857Y-21038428D01*
X111215285Y-20967000D01*
X111358142Y-20895571D01*
X112429571Y-21038428D02*
X112501000Y-20967000D01*
X112643857Y-20895571D01*
X113001000Y-20895571D01*
X113143857Y-20967000D01*
X113215285Y-21038428D01*
X113286714Y-21181285D01*
X113286714Y-21324142D01*
X113215285Y-21538428D01*
X112358142Y-22395571D01*
X113286714Y-22395571D01*
X114572428Y-21395571D02*
X114572428Y-22395571D01*
X114215285Y-20824142D02*
X113858142Y-21895571D01*
X114786714Y-21895571D01*
X115215285Y-22895571D02*
X115572428Y-22895571D01*
X115572428Y-20752714D01*
X115215285Y-20752714D01*
X29005857Y-22268571D02*
X29005857Y-20768571D01*
X29577285Y-20768571D01*
X29720142Y-20840000D01*
X29791571Y-20911428D01*
X29862999Y-21054285D01*
X29862999Y-21268571D01*
X29791571Y-21411428D01*
X29720142Y-21482857D01*
X29577285Y-21554285D01*
X29005857Y-21554285D01*
X31362999Y-22268571D02*
X30862999Y-21554285D01*
X30505857Y-22268571D02*
X30505857Y-20768571D01*
X31077285Y-20768571D01*
X31220142Y-20840000D01*
X31291571Y-20911428D01*
X31362999Y-21054285D01*
X31362999Y-21268571D01*
X31291571Y-21411428D01*
X31220142Y-21482857D01*
X31077285Y-21554285D01*
X30505857Y-21554285D01*
X32291571Y-20768571D02*
X32577285Y-20768571D01*
X32720142Y-20840000D01*
X32862999Y-20982857D01*
X32934428Y-21268571D01*
X32934428Y-21768571D01*
X32862999Y-22054285D01*
X32720142Y-22197142D01*
X32577285Y-22268571D01*
X32291571Y-22268571D01*
X32148714Y-22197142D01*
X32005857Y-22054285D01*
X31934428Y-21768571D01*
X31934428Y-21268571D01*
X32005857Y-20982857D01*
X32148714Y-20840000D01*
X32291571Y-20768571D01*
X34362999Y-20840000D02*
X34220142Y-20768571D01*
X34005857Y-20768571D01*
X33791571Y-20840000D01*
X33648714Y-20982857D01*
X33577285Y-21125714D01*
X33505857Y-21411428D01*
X33505857Y-21625714D01*
X33577285Y-21911428D01*
X33648714Y-22054285D01*
X33791571Y-22197142D01*
X34005857Y-22268571D01*
X34148714Y-22268571D01*
X34362999Y-22197142D01*
X34434428Y-22125714D01*
X34434428Y-21625714D01*
X34148714Y-21625714D01*
X35934428Y-22268571D02*
X35434428Y-21554285D01*
X35077285Y-22268571D02*
X35077285Y-20768571D01*
X35648714Y-20768571D01*
X35791571Y-20840000D01*
X35862999Y-20911428D01*
X35934428Y-21054285D01*
X35934428Y-21268571D01*
X35862999Y-21411428D01*
X35791571Y-21482857D01*
X35648714Y-21554285D01*
X35077285Y-21554285D01*
X36505857Y-21840000D02*
X37220142Y-21840000D01*
X36362999Y-22268571D02*
X36862999Y-20768571D01*
X37362999Y-22268571D01*
X37862999Y-22268571D02*
X37862999Y-20768571D01*
X38362999Y-21840000D01*
X38862999Y-20768571D01*
X38862999Y-22268571D01*
X41577285Y-22125714D02*
X41505857Y-22197142D01*
X41291571Y-22268571D01*
X41148714Y-22268571D01*
X40934428Y-22197142D01*
X40791571Y-22054285D01*
X40720142Y-21911428D01*
X40648714Y-21625714D01*
X40648714Y-21411428D01*
X40720142Y-21125714D01*
X40791571Y-20982857D01*
X40934428Y-20840000D01*
X41148714Y-20768571D01*
X41291571Y-20768571D01*
X41505857Y-20840000D01*
X41577285Y-20911428D01*
X42505857Y-20768571D02*
X42791571Y-20768571D01*
X42934428Y-20840000D01*
X43077285Y-20982857D01*
X43148714Y-21268571D01*
X43148714Y-21768571D01*
X43077285Y-22054285D01*
X42934428Y-22197142D01*
X42791571Y-22268571D01*
X42505857Y-22268571D01*
X42362999Y-22197142D01*
X42220142Y-22054285D01*
X42148714Y-21768571D01*
X42148714Y-21268571D01*
X42220142Y-20982857D01*
X42362999Y-20840000D01*
X42505857Y-20768571D01*
X43791571Y-20768571D02*
X43791571Y-21982857D01*
X43862999Y-22125714D01*
X43934428Y-22197142D01*
X44077285Y-22268571D01*
X44362999Y-22268571D01*
X44505857Y-22197142D01*
X44577285Y-22125714D01*
X44648714Y-21982857D01*
X44648714Y-20768571D01*
X45362999Y-22268571D02*
X45362999Y-20768571D01*
X46220142Y-22268571D01*
X46220142Y-20768571D01*
X46720142Y-20768571D02*
X47577285Y-20768571D01*
X47148714Y-22268571D02*
X47148714Y-20768571D01*
X48077285Y-21482857D02*
X48577285Y-21482857D01*
X48791571Y-22268571D02*
X48077285Y-22268571D01*
X48077285Y-20768571D01*
X48791571Y-20768571D01*
X50291571Y-22268571D02*
X49791571Y-21554285D01*
X49434428Y-22268571D02*
X49434428Y-20768571D01*
X50005857Y-20768571D01*
X50148714Y-20840000D01*
X50220142Y-20911428D01*
X50291571Y-21054285D01*
X50291571Y-21268571D01*
X50220142Y-21411428D01*
X50148714Y-21482857D01*
X50005857Y-21554285D01*
X49434428Y-21554285D01*
X52505857Y-22768571D02*
X52148714Y-22768571D01*
X52148714Y-20625714D01*
X52505857Y-20625714D01*
X52934428Y-20768571D02*
X53934428Y-20768571D01*
X53291571Y-22268571D01*
X55148714Y-21268571D02*
X55148714Y-22268571D01*
X54791571Y-20697142D02*
X54434428Y-21768571D01*
X55362999Y-21768571D01*
X55934428Y-22268571D02*
X55934428Y-20768571D01*
X55934428Y-21482857D02*
X56791571Y-21482857D01*
X56791571Y-22268571D02*
X56791571Y-20768571D01*
X58362999Y-22125714D02*
X58291571Y-22197142D01*
X58077285Y-22268571D01*
X57934428Y-22268571D01*
X57720142Y-22197142D01*
X57577285Y-22054285D01*
X57505857Y-21911428D01*
X57434428Y-21625714D01*
X57434428Y-21411428D01*
X57505857Y-21125714D01*
X57577285Y-20982857D01*
X57720142Y-20840000D01*
X57934428Y-20768571D01*
X58077285Y-20768571D01*
X58291571Y-20840000D01*
X58362999Y-20911428D01*
X58791571Y-20768571D02*
X59648714Y-20768571D01*
X59220142Y-22268571D02*
X59220142Y-20768571D01*
X60934428Y-22268571D02*
X60077285Y-22268571D01*
X60505857Y-22268571D02*
X60505857Y-20768571D01*
X60362999Y-20982857D01*
X60220142Y-21125714D01*
X60077285Y-21197142D01*
X61648714Y-22268571D02*
X61934428Y-22268571D01*
X62077285Y-22197142D01*
X62148714Y-22125714D01*
X62291571Y-21911428D01*
X62362999Y-21625714D01*
X62362999Y-21054285D01*
X62291571Y-20911428D01*
X62220142Y-20840000D01*
X62077285Y-20768571D01*
X61791571Y-20768571D01*
X61648714Y-20840000D01*
X61577285Y-20911428D01*
X61505857Y-21054285D01*
X61505857Y-21411428D01*
X61577285Y-21554285D01*
X61648714Y-21625714D01*
X61791571Y-21697142D01*
X62077285Y-21697142D01*
X62220142Y-21625714D01*
X62291571Y-21554285D01*
X62362999Y-21411428D01*
X62862999Y-20768571D02*
X63791571Y-20768571D01*
X63291571Y-21340000D01*
X63505857Y-21340000D01*
X63648714Y-21411428D01*
X63720142Y-21482857D01*
X63791571Y-21625714D01*
X63791571Y-21982857D01*
X63720142Y-22125714D01*
X63648714Y-22197142D01*
X63505857Y-22268571D01*
X63077285Y-22268571D01*
X62934428Y-22197142D01*
X62862999Y-22125714D01*
X64291571Y-22768571D02*
X64648714Y-22768571D01*
X64648714Y-20625714D01*
X64291571Y-20625714D01*
X78482428Y-46168571D02*
X79339571Y-46168571D01*
X78911000Y-47668571D02*
X78911000Y-46168571D01*
X80125285Y-46168571D02*
X80411000Y-46168571D01*
X80553857Y-46240000D01*
X80696714Y-46382857D01*
X80768142Y-46668571D01*
X80768142Y-47168571D01*
X80696714Y-47454285D01*
X80553857Y-47597142D01*
X80411000Y-47668571D01*
X80125285Y-47668571D01*
X79982428Y-47597142D01*
X79839571Y-47454285D01*
X79768142Y-47168571D01*
X79768142Y-46668571D01*
X79839571Y-46382857D01*
X79982428Y-46240000D01*
X80125285Y-46168571D01*
X81339571Y-47597142D02*
X81553857Y-47668571D01*
X81911000Y-47668571D01*
X82053857Y-47597142D01*
X82125285Y-47525714D01*
X82196714Y-47382857D01*
X82196714Y-47240000D01*
X82125285Y-47097142D01*
X82053857Y-47025714D01*
X81911000Y-46954285D01*
X81625285Y-46882857D01*
X81482428Y-46811428D01*
X81411000Y-46740000D01*
X81339571Y-46597142D01*
X81339571Y-46454285D01*
X81411000Y-46311428D01*
X81482428Y-46240000D01*
X81625285Y-46168571D01*
X81982428Y-46168571D01*
X82196714Y-46240000D01*
X84411000Y-48168571D02*
X84053857Y-48168571D01*
X84053857Y-46025714D01*
X84411000Y-46025714D01*
X84839571Y-46168571D02*
X85839571Y-46168571D01*
X85196714Y-47668571D01*
X87053857Y-46668571D02*
X87053857Y-47668571D01*
X86696714Y-46097142D02*
X86339571Y-47168571D01*
X87268142Y-47168571D01*
X87839571Y-47668571D02*
X87839571Y-46168571D01*
X87839571Y-46882857D02*
X88696714Y-46882857D01*
X88696714Y-47668571D02*
X88696714Y-46168571D01*
X90268142Y-47525714D02*
X90196714Y-47597142D01*
X89982428Y-47668571D01*
X89839571Y-47668571D01*
X89625285Y-47597142D01*
X89482428Y-47454285D01*
X89411000Y-47311428D01*
X89339571Y-47025714D01*
X89339571Y-46811428D01*
X89411000Y-46525714D01*
X89482428Y-46382857D01*
X89625285Y-46240000D01*
X89839571Y-46168571D01*
X89982428Y-46168571D01*
X90196714Y-46240000D01*
X90268142Y-46311428D01*
X90696714Y-46168571D02*
X91553857Y-46168571D01*
X91125285Y-47668571D02*
X91125285Y-46168571D01*
X91911000Y-46168571D02*
X92839571Y-46168571D01*
X92339571Y-46740000D01*
X92553857Y-46740000D01*
X92696714Y-46811428D01*
X92768142Y-46882857D01*
X92839571Y-47025714D01*
X92839571Y-47382857D01*
X92768142Y-47525714D01*
X92696714Y-47597142D01*
X92553857Y-47668571D01*
X92125285Y-47668571D01*
X91982428Y-47597142D01*
X91911000Y-47525714D01*
X93339571Y-46168571D02*
X94339571Y-46168571D01*
X93696714Y-47668571D01*
X94768142Y-46168571D02*
X95768142Y-46168571D01*
X95125285Y-47668571D01*
X96196714Y-48168571D02*
X96553857Y-48168571D01*
X96553857Y-46025714D01*
X96196714Y-46025714D01*
X81376000Y-99103571D02*
X80876000Y-98389285D01*
X80518857Y-99103571D02*
X80518857Y-97603571D01*
X81090285Y-97603571D01*
X81233142Y-97675000D01*
X81304571Y-97746428D01*
X81376000Y-97889285D01*
X81376000Y-98103571D01*
X81304571Y-98246428D01*
X81233142Y-98317857D01*
X81090285Y-98389285D01*
X80518857Y-98389285D01*
X83590285Y-99603571D02*
X83233142Y-99603571D01*
X83233142Y-97460714D01*
X83590285Y-97460714D01*
X84018857Y-97603571D02*
X85018857Y-97603571D01*
X84376000Y-99103571D01*
X86233142Y-98103571D02*
X86233142Y-99103571D01*
X85876000Y-97532142D02*
X85518857Y-98603571D01*
X86447428Y-98603571D01*
X87733142Y-99103571D02*
X87018857Y-99103571D01*
X87018857Y-97603571D01*
X88161714Y-99032142D02*
X88376000Y-99103571D01*
X88733142Y-99103571D01*
X88876000Y-99032142D01*
X88947428Y-98960714D01*
X89018857Y-98817857D01*
X89018857Y-98675000D01*
X88947428Y-98532142D01*
X88876000Y-98460714D01*
X88733142Y-98389285D01*
X88447428Y-98317857D01*
X88304571Y-98246428D01*
X88233142Y-98175000D01*
X88161714Y-98032142D01*
X88161714Y-97889285D01*
X88233142Y-97746428D01*
X88304571Y-97675000D01*
X88447428Y-97603571D01*
X88804571Y-97603571D01*
X89018857Y-97675000D01*
X90304571Y-97603571D02*
X90018857Y-97603571D01*
X89876000Y-97675000D01*
X89804571Y-97746428D01*
X89661714Y-97960714D01*
X89590285Y-98246428D01*
X89590285Y-98817857D01*
X89661714Y-98960714D01*
X89733142Y-99032142D01*
X89876000Y-99103571D01*
X90161714Y-99103571D01*
X90304571Y-99032142D01*
X90376000Y-98960714D01*
X90447428Y-98817857D01*
X90447428Y-98460714D01*
X90376000Y-98317857D01*
X90304571Y-98246428D01*
X90161714Y-98175000D01*
X89876000Y-98175000D01*
X89733142Y-98246428D01*
X89661714Y-98317857D01*
X89590285Y-98460714D01*
X91161714Y-99103571D02*
X91447428Y-99103571D01*
X91590285Y-99032142D01*
X91661714Y-98960714D01*
X91804571Y-98746428D01*
X91876000Y-98460714D01*
X91876000Y-97889285D01*
X91804571Y-97746428D01*
X91733142Y-97675000D01*
X91590285Y-97603571D01*
X91304571Y-97603571D01*
X91161714Y-97675000D01*
X91090285Y-97746428D01*
X91018857Y-97889285D01*
X91018857Y-98246428D01*
X91090285Y-98389285D01*
X91161714Y-98460714D01*
X91304571Y-98532142D01*
X91590285Y-98532142D01*
X91733142Y-98460714D01*
X91804571Y-98389285D01*
X91876000Y-98246428D01*
X92376000Y-97603571D02*
X93376000Y-97603571D01*
X92733142Y-99103571D01*
X93804571Y-99603571D02*
X94161714Y-99603571D01*
X94161714Y-97460714D01*
X93804571Y-97460714D01*
X80295857Y-73717571D02*
X80295857Y-72217571D01*
X80653000Y-72217571D01*
X80867285Y-72289000D01*
X81010142Y-72431857D01*
X81081571Y-72574714D01*
X81153000Y-72860428D01*
X81153000Y-73074714D01*
X81081571Y-73360428D01*
X81010142Y-73503285D01*
X80867285Y-73646142D01*
X80653000Y-73717571D01*
X80295857Y-73717571D01*
X83367285Y-74217571D02*
X83010142Y-74217571D01*
X83010142Y-72074714D01*
X83367285Y-72074714D01*
X83795857Y-72217571D02*
X84795857Y-72217571D01*
X84153000Y-73717571D01*
X86010142Y-72717571D02*
X86010142Y-73717571D01*
X85653000Y-72146142D02*
X85295857Y-73217571D01*
X86224428Y-73217571D01*
X87510142Y-73717571D02*
X86795857Y-73717571D01*
X86795857Y-72217571D01*
X87938714Y-73646142D02*
X88153000Y-73717571D01*
X88510142Y-73717571D01*
X88653000Y-73646142D01*
X88724428Y-73574714D01*
X88795857Y-73431857D01*
X88795857Y-73289000D01*
X88724428Y-73146142D01*
X88653000Y-73074714D01*
X88510142Y-73003285D01*
X88224428Y-72931857D01*
X88081571Y-72860428D01*
X88010142Y-72789000D01*
X87938714Y-72646142D01*
X87938714Y-72503285D01*
X88010142Y-72360428D01*
X88081571Y-72289000D01*
X88224428Y-72217571D01*
X88581571Y-72217571D01*
X88795857Y-72289000D01*
X90081571Y-72217571D02*
X89795857Y-72217571D01*
X89653000Y-72289000D01*
X89581571Y-72360428D01*
X89438714Y-72574714D01*
X89367285Y-72860428D01*
X89367285Y-73431857D01*
X89438714Y-73574714D01*
X89510142Y-73646142D01*
X89653000Y-73717571D01*
X89938714Y-73717571D01*
X90081571Y-73646142D01*
X90153000Y-73574714D01*
X90224428Y-73431857D01*
X90224428Y-73074714D01*
X90153000Y-72931857D01*
X90081571Y-72860428D01*
X89938714Y-72789000D01*
X89653000Y-72789000D01*
X89510142Y-72860428D01*
X89438714Y-72931857D01*
X89367285Y-73074714D01*
X90938714Y-73717571D02*
X91224428Y-73717571D01*
X91367285Y-73646142D01*
X91438714Y-73574714D01*
X91581571Y-73360428D01*
X91653000Y-73074714D01*
X91653000Y-72503285D01*
X91581571Y-72360428D01*
X91510142Y-72289000D01*
X91367285Y-72217571D01*
X91081571Y-72217571D01*
X90938714Y-72289000D01*
X90867285Y-72360428D01*
X90795857Y-72503285D01*
X90795857Y-72860428D01*
X90867285Y-73003285D01*
X90938714Y-73074714D01*
X91081571Y-73146142D01*
X91367285Y-73146142D01*
X91510142Y-73074714D01*
X91581571Y-73003285D01*
X91653000Y-72860428D01*
X92153000Y-72217571D02*
X93153000Y-72217571D01*
X92510142Y-73717571D01*
X93581571Y-74217571D02*
X93938714Y-74217571D01*
X93938714Y-72074714D01*
X93581571Y-72074714D01*
X38716571Y-93896571D02*
X38216571Y-93182285D01*
X37859428Y-93896571D02*
X37859428Y-92396571D01*
X38430857Y-92396571D01*
X38573714Y-92468000D01*
X38645142Y-92539428D01*
X38716571Y-92682285D01*
X38716571Y-92896571D01*
X38645142Y-93039428D01*
X38573714Y-93110857D01*
X38430857Y-93182285D01*
X37859428Y-93182285D01*
X39288000Y-93468000D02*
X40002285Y-93468000D01*
X39145142Y-93896571D02*
X39645142Y-92396571D01*
X40145142Y-93896571D01*
X40645142Y-93896571D02*
X40645142Y-92396571D01*
X41145142Y-93468000D01*
X41645142Y-92396571D01*
X41645142Y-93896571D01*
X43930857Y-94468000D02*
X43859428Y-94396571D01*
X43716571Y-94182285D01*
X43645142Y-94039428D01*
X43573714Y-93825142D01*
X43502285Y-93468000D01*
X43502285Y-93182285D01*
X43573714Y-92825142D01*
X43645142Y-92610857D01*
X43716571Y-92468000D01*
X43859428Y-92253714D01*
X43930857Y-92182285D01*
X44359428Y-92396571D02*
X45288000Y-92396571D01*
X44788000Y-92968000D01*
X45002285Y-92968000D01*
X45145142Y-93039428D01*
X45216571Y-93110857D01*
X45288000Y-93253714D01*
X45288000Y-93610857D01*
X45216571Y-93753714D01*
X45145142Y-93825142D01*
X45002285Y-93896571D01*
X44573714Y-93896571D01*
X44430857Y-93825142D01*
X44359428Y-93753714D01*
X45859428Y-92539428D02*
X45930857Y-92468000D01*
X46073714Y-92396571D01*
X46430857Y-92396571D01*
X46573714Y-92468000D01*
X46645142Y-92539428D01*
X46716571Y-92682285D01*
X46716571Y-92825142D01*
X46645142Y-93039428D01*
X45788000Y-93896571D01*
X46716571Y-93896571D01*
X47359428Y-93896571D02*
X47359428Y-92396571D01*
X48216571Y-93896571D02*
X47573714Y-93039428D01*
X48216571Y-92396571D02*
X47359428Y-93253714D01*
X48716571Y-94468000D02*
X48788000Y-94396571D01*
X48930857Y-94182285D01*
X49002285Y-94039428D01*
X49073714Y-93825142D01*
X49145142Y-93468000D01*
X49145142Y-93182285D01*
X49073714Y-92825142D01*
X49002285Y-92610857D01*
X48930857Y-92468000D01*
X48788000Y-92253714D01*
X48716571Y-92182285D01*
X51430857Y-94396571D02*
X51073714Y-94396571D01*
X51073714Y-92253714D01*
X51430857Y-92253714D01*
X52859428Y-93753714D02*
X52788000Y-93825142D01*
X52573714Y-93896571D01*
X52430857Y-93896571D01*
X52216571Y-93825142D01*
X52073714Y-93682285D01*
X52002285Y-93539428D01*
X51930857Y-93253714D01*
X51930857Y-93039428D01*
X52002285Y-92753714D01*
X52073714Y-92610857D01*
X52216571Y-92468000D01*
X52430857Y-92396571D01*
X52573714Y-92396571D01*
X52788000Y-92468000D01*
X52859428Y-92539428D01*
X53788000Y-93182285D02*
X53788000Y-93896571D01*
X53288000Y-92396571D02*
X53788000Y-93182285D01*
X54288000Y-92396571D01*
X55430857Y-92396571D02*
X55145142Y-92396571D01*
X55002285Y-92468000D01*
X54930857Y-92539428D01*
X54788000Y-92753714D01*
X54716571Y-93039428D01*
X54716571Y-93610857D01*
X54788000Y-93753714D01*
X54859428Y-93825142D01*
X55002285Y-93896571D01*
X55288000Y-93896571D01*
X55430857Y-93825142D01*
X55502285Y-93753714D01*
X55573714Y-93610857D01*
X55573714Y-93253714D01*
X55502285Y-93110857D01*
X55430857Y-93039428D01*
X55288000Y-92968000D01*
X55002285Y-92968000D01*
X54859428Y-93039428D01*
X54788000Y-93110857D01*
X54716571Y-93253714D01*
X56145142Y-92539428D02*
X56216571Y-92468000D01*
X56359428Y-92396571D01*
X56716571Y-92396571D01*
X56859428Y-92468000D01*
X56930857Y-92539428D01*
X57002285Y-92682285D01*
X57002285Y-92825142D01*
X56930857Y-93039428D01*
X56073714Y-93896571D01*
X57002285Y-93896571D01*
X57573714Y-92539428D02*
X57645142Y-92468000D01*
X57788000Y-92396571D01*
X58145142Y-92396571D01*
X58288000Y-92468000D01*
X58359428Y-92539428D01*
X58430857Y-92682285D01*
X58430857Y-92825142D01*
X58359428Y-93039428D01*
X57502285Y-93896571D01*
X58430857Y-93896571D01*
X59788000Y-92396571D02*
X59073714Y-92396571D01*
X59002285Y-93110857D01*
X59073714Y-93039428D01*
X59216571Y-92968000D01*
X59573714Y-92968000D01*
X59716571Y-93039428D01*
X59788000Y-93110857D01*
X59859428Y-93253714D01*
X59859428Y-93610857D01*
X59788000Y-93753714D01*
X59716571Y-93825142D01*
X59573714Y-93896571D01*
X59216571Y-93896571D01*
X59073714Y-93825142D01*
X59002285Y-93753714D01*
X61145142Y-92396571D02*
X60859428Y-92396571D01*
X60716571Y-92468000D01*
X60645142Y-92539428D01*
X60502285Y-92753714D01*
X60430857Y-93039428D01*
X60430857Y-93610857D01*
X60502285Y-93753714D01*
X60573714Y-93825142D01*
X60716571Y-93896571D01*
X61002285Y-93896571D01*
X61145142Y-93825142D01*
X61216571Y-93753714D01*
X61288000Y-93610857D01*
X61288000Y-93253714D01*
X61216571Y-93110857D01*
X61145142Y-93039428D01*
X61002285Y-92968000D01*
X60716571Y-92968000D01*
X60573714Y-93039428D01*
X60502285Y-93110857D01*
X60430857Y-93253714D01*
X61788000Y-94396571D02*
X62145142Y-94396571D01*
X62145142Y-92253714D01*
X61788000Y-92253714D01*
X105856000Y-97762142D02*
X106070285Y-97833571D01*
X106427428Y-97833571D01*
X106570285Y-97762142D01*
X106641714Y-97690714D01*
X106713142Y-97547857D01*
X106713142Y-97405000D01*
X106641714Y-97262142D01*
X106570285Y-97190714D01*
X106427428Y-97119285D01*
X106141714Y-97047857D01*
X105998857Y-96976428D01*
X105927428Y-96905000D01*
X105856000Y-96762142D01*
X105856000Y-96619285D01*
X105927428Y-96476428D01*
X105998857Y-96405000D01*
X106141714Y-96333571D01*
X106498857Y-96333571D01*
X106713142Y-96405000D01*
X107141714Y-96333571D02*
X107998857Y-96333571D01*
X107570285Y-97833571D02*
X107570285Y-96333571D01*
X108427428Y-97405000D02*
X109141714Y-97405000D01*
X108284571Y-97833571D02*
X108784571Y-96333571D01*
X109284571Y-97833571D01*
X110641714Y-97690714D02*
X110570285Y-97762142D01*
X110356000Y-97833571D01*
X110213142Y-97833571D01*
X109998857Y-97762142D01*
X109856000Y-97619285D01*
X109784571Y-97476428D01*
X109713142Y-97190714D01*
X109713142Y-96976428D01*
X109784571Y-96690714D01*
X109856000Y-96547857D01*
X109998857Y-96405000D01*
X110213142Y-96333571D01*
X110356000Y-96333571D01*
X110570285Y-96405000D01*
X110641714Y-96476428D01*
X111284571Y-97833571D02*
X111284571Y-96333571D01*
X112141714Y-97833571D02*
X111498857Y-96976428D01*
X112141714Y-96333571D02*
X111284571Y-97190714D01*
X114356000Y-98405000D02*
X114284571Y-98333571D01*
X114141714Y-98119285D01*
X114070285Y-97976428D01*
X113998857Y-97762142D01*
X113927428Y-97405000D01*
X113927428Y-97119285D01*
X113998857Y-96762142D01*
X114070285Y-96547857D01*
X114141714Y-96405000D01*
X114284571Y-96190714D01*
X114356000Y-96119285D01*
X114856000Y-96476428D02*
X114927428Y-96405000D01*
X115070285Y-96333571D01*
X115427428Y-96333571D01*
X115570285Y-96405000D01*
X115641714Y-96476428D01*
X115713142Y-96619285D01*
X115713142Y-96762142D01*
X115641714Y-96976428D01*
X114784571Y-97833571D01*
X115713142Y-97833571D01*
X116356000Y-97833571D02*
X116356000Y-96333571D01*
X117213142Y-97833571D02*
X116570285Y-96976428D01*
X117213142Y-96333571D02*
X116356000Y-97190714D01*
X117713142Y-98405000D02*
X117784571Y-98333571D01*
X117927428Y-98119285D01*
X117998857Y-97976428D01*
X118070285Y-97762142D01*
X118141714Y-97405000D01*
X118141714Y-97119285D01*
X118070285Y-96762142D01*
X117998857Y-96547857D01*
X117927428Y-96405000D01*
X117784571Y-96190714D01*
X117713142Y-96119285D01*
X120427428Y-98333571D02*
X120070285Y-98333571D01*
X120070285Y-96190714D01*
X120427428Y-96190714D01*
X121856000Y-97690714D02*
X121784571Y-97762142D01*
X121570285Y-97833571D01*
X121427428Y-97833571D01*
X121213142Y-97762142D01*
X121070285Y-97619285D01*
X120998857Y-97476428D01*
X120927428Y-97190714D01*
X120927428Y-96976428D01*
X120998857Y-96690714D01*
X121070285Y-96547857D01*
X121213142Y-96405000D01*
X121427428Y-96333571D01*
X121570285Y-96333571D01*
X121784571Y-96405000D01*
X121856000Y-96476428D01*
X122784571Y-97119285D02*
X122784571Y-97833571D01*
X122284571Y-96333571D02*
X122784571Y-97119285D01*
X123284571Y-96333571D01*
X124427428Y-96333571D02*
X124141714Y-96333571D01*
X123998857Y-96405000D01*
X123927428Y-96476428D01*
X123784571Y-96690714D01*
X123713142Y-96976428D01*
X123713142Y-97547857D01*
X123784571Y-97690714D01*
X123856000Y-97762142D01*
X123998857Y-97833571D01*
X124284571Y-97833571D01*
X124427428Y-97762142D01*
X124498857Y-97690714D01*
X124570285Y-97547857D01*
X124570285Y-97190714D01*
X124498857Y-97047857D01*
X124427428Y-96976428D01*
X124284571Y-96905000D01*
X123998857Y-96905000D01*
X123856000Y-96976428D01*
X123784571Y-97047857D01*
X123713142Y-97190714D01*
X125998857Y-97833571D02*
X125141714Y-97833571D01*
X125570285Y-97833571D02*
X125570285Y-96333571D01*
X125427428Y-96547857D01*
X125284571Y-96690714D01*
X125141714Y-96762142D01*
X127427428Y-97833571D02*
X126570285Y-97833571D01*
X126998857Y-97833571D02*
X126998857Y-96333571D01*
X126856000Y-96547857D01*
X126713142Y-96690714D01*
X126570285Y-96762142D01*
X128713142Y-96333571D02*
X128427428Y-96333571D01*
X128284571Y-96405000D01*
X128213142Y-96476428D01*
X128070285Y-96690714D01*
X127998857Y-96976428D01*
X127998857Y-97547857D01*
X128070285Y-97690714D01*
X128141714Y-97762142D01*
X128284571Y-97833571D01*
X128570285Y-97833571D01*
X128713142Y-97762142D01*
X128784571Y-97690714D01*
X128856000Y-97547857D01*
X128856000Y-97190714D01*
X128784571Y-97047857D01*
X128713142Y-96976428D01*
X128570285Y-96905000D01*
X128284571Y-96905000D01*
X128141714Y-96976428D01*
X128070285Y-97047857D01*
X127998857Y-97190714D01*
X129356000Y-98333571D02*
X129713142Y-98333571D01*
X129713142Y-96190714D01*
X129356000Y-96190714D01*
X51055142Y-47414571D02*
X51055142Y-45914571D01*
X51912285Y-47414571D01*
X51912285Y-45914571D01*
X52555142Y-46986000D02*
X53269428Y-46986000D01*
X52412285Y-47414571D02*
X52912285Y-45914571D01*
X53412285Y-47414571D01*
X53912285Y-47414571D02*
X53912285Y-45914571D01*
X54769428Y-47414571D01*
X54769428Y-45914571D01*
X55483714Y-47414571D02*
X55483714Y-45914571D01*
X55840857Y-45914571D01*
X56055142Y-45986000D01*
X56198000Y-46128857D01*
X56269428Y-46271714D01*
X56340857Y-46557428D01*
X56340857Y-46771714D01*
X56269428Y-47057428D01*
X56198000Y-47200285D01*
X56055142Y-47343142D01*
X55840857Y-47414571D01*
X55483714Y-47414571D01*
X58555142Y-47914571D02*
X58198000Y-47914571D01*
X58198000Y-45771714D01*
X58555142Y-45771714D01*
X58983714Y-45914571D02*
X59983714Y-45914571D01*
X59340857Y-47414571D01*
X61198000Y-46414571D02*
X61198000Y-47414571D01*
X60840857Y-45843142D02*
X60483714Y-46914571D01*
X61412285Y-46914571D01*
X61983714Y-47414571D02*
X61983714Y-45914571D01*
X61983714Y-46628857D02*
X62840857Y-46628857D01*
X62840857Y-47414571D02*
X62840857Y-45914571D01*
X64412285Y-47271714D02*
X64340857Y-47343142D01*
X64126571Y-47414571D01*
X63983714Y-47414571D01*
X63769428Y-47343142D01*
X63626571Y-47200285D01*
X63555142Y-47057428D01*
X63483714Y-46771714D01*
X63483714Y-46557428D01*
X63555142Y-46271714D01*
X63626571Y-46128857D01*
X63769428Y-45986000D01*
X63983714Y-45914571D01*
X64126571Y-45914571D01*
X64340857Y-45986000D01*
X64412285Y-46057428D01*
X64840857Y-45914571D02*
X65698000Y-45914571D01*
X65269428Y-47414571D02*
X65269428Y-45914571D01*
X66483714Y-45914571D02*
X66626571Y-45914571D01*
X66769428Y-45986000D01*
X66840857Y-46057428D01*
X66912285Y-46200285D01*
X66983714Y-46486000D01*
X66983714Y-46843142D01*
X66912285Y-47128857D01*
X66840857Y-47271714D01*
X66769428Y-47343142D01*
X66626571Y-47414571D01*
X66483714Y-47414571D01*
X66340857Y-47343142D01*
X66269428Y-47271714D01*
X66198000Y-47128857D01*
X66126571Y-46843142D01*
X66126571Y-46486000D01*
X66198000Y-46200285D01*
X66269428Y-46057428D01*
X66340857Y-45986000D01*
X66483714Y-45914571D01*
X67912285Y-45914571D02*
X68055142Y-45914571D01*
X68198000Y-45986000D01*
X68269428Y-46057428D01*
X68340857Y-46200285D01*
X68412285Y-46486000D01*
X68412285Y-46843142D01*
X68340857Y-47128857D01*
X68269428Y-47271714D01*
X68198000Y-47343142D01*
X68055142Y-47414571D01*
X67912285Y-47414571D01*
X67769428Y-47343142D01*
X67698000Y-47271714D01*
X67626571Y-47128857D01*
X67555142Y-46843142D01*
X67555142Y-46486000D01*
X67626571Y-46200285D01*
X67698000Y-46057428D01*
X67769428Y-45986000D01*
X67912285Y-45914571D01*
X68912285Y-47914571D02*
X69269428Y-47914571D01*
X69269428Y-45771714D01*
X68912285Y-45771714D01*
X25055857Y-47113000D02*
X25770142Y-47113000D01*
X24913000Y-47541571D02*
X25413000Y-46041571D01*
X25913000Y-47541571D01*
X26413000Y-47541571D02*
X26413000Y-46041571D01*
X26770142Y-46041571D01*
X26984428Y-46113000D01*
X27127285Y-46255857D01*
X27198714Y-46398714D01*
X27270142Y-46684428D01*
X27270142Y-46898714D01*
X27198714Y-47184428D01*
X27127285Y-47327285D01*
X26984428Y-47470142D01*
X26770142Y-47541571D01*
X26413000Y-47541571D01*
X27913000Y-47541571D02*
X27913000Y-46041571D01*
X28270142Y-46041571D01*
X28484428Y-46113000D01*
X28627285Y-46255857D01*
X28698714Y-46398714D01*
X28770142Y-46684428D01*
X28770142Y-46898714D01*
X28698714Y-47184428D01*
X28627285Y-47327285D01*
X28484428Y-47470142D01*
X28270142Y-47541571D01*
X27913000Y-47541571D01*
X30984428Y-48041571D02*
X30627285Y-48041571D01*
X30627285Y-45898714D01*
X30984428Y-45898714D01*
X31413000Y-46041571D02*
X32413000Y-46041571D01*
X31770142Y-47541571D01*
X33627285Y-46541571D02*
X33627285Y-47541571D01*
X33270142Y-45970142D02*
X32913000Y-47041571D01*
X33841571Y-47041571D01*
X34413000Y-47541571D02*
X34413000Y-46041571D01*
X34413000Y-46755857D02*
X35270142Y-46755857D01*
X35270142Y-47541571D02*
X35270142Y-46041571D01*
X36841571Y-47398714D02*
X36770142Y-47470142D01*
X36555857Y-47541571D01*
X36413000Y-47541571D01*
X36198714Y-47470142D01*
X36055857Y-47327285D01*
X35984428Y-47184428D01*
X35913000Y-46898714D01*
X35913000Y-46684428D01*
X35984428Y-46398714D01*
X36055857Y-46255857D01*
X36198714Y-46113000D01*
X36413000Y-46041571D01*
X36555857Y-46041571D01*
X36770142Y-46113000D01*
X36841571Y-46184428D01*
X37270142Y-46041571D02*
X38127285Y-46041571D01*
X37698714Y-47541571D02*
X37698714Y-46041571D01*
X38555857Y-46184428D02*
X38627285Y-46113000D01*
X38770142Y-46041571D01*
X39127285Y-46041571D01*
X39270142Y-46113000D01*
X39341571Y-46184428D01*
X39413000Y-46327285D01*
X39413000Y-46470142D01*
X39341571Y-46684428D01*
X38484428Y-47541571D01*
X39413000Y-47541571D01*
X40270142Y-46684428D02*
X40127285Y-46613000D01*
X40055857Y-46541571D01*
X39984428Y-46398714D01*
X39984428Y-46327285D01*
X40055857Y-46184428D01*
X40127285Y-46113000D01*
X40270142Y-46041571D01*
X40555857Y-46041571D01*
X40698714Y-46113000D01*
X40770142Y-46184428D01*
X40841571Y-46327285D01*
X40841571Y-46398714D01*
X40770142Y-46541571D01*
X40698714Y-46613000D01*
X40555857Y-46684428D01*
X40270142Y-46684428D01*
X40127285Y-46755857D01*
X40055857Y-46827285D01*
X39984428Y-46970142D01*
X39984428Y-47255857D01*
X40055857Y-47398714D01*
X40127285Y-47470142D01*
X40270142Y-47541571D01*
X40555857Y-47541571D01*
X40698714Y-47470142D01*
X40770142Y-47398714D01*
X40841571Y-47255857D01*
X40841571Y-46970142D01*
X40770142Y-46827285D01*
X40698714Y-46755857D01*
X40555857Y-46684428D01*
X41341571Y-46041571D02*
X42270142Y-46041571D01*
X41770142Y-46613000D01*
X41984428Y-46613000D01*
X42127285Y-46684428D01*
X42198714Y-46755857D01*
X42270142Y-46898714D01*
X42270142Y-47255857D01*
X42198714Y-47398714D01*
X42127285Y-47470142D01*
X41984428Y-47541571D01*
X41555857Y-47541571D01*
X41413000Y-47470142D01*
X41341571Y-47398714D01*
X42770142Y-48041571D02*
X43127285Y-48041571D01*
X43127285Y-45898714D01*
X42770142Y-45898714D01*
D13*
X103974523Y-135614285D02*
X105231666Y-135614285D01*
X104603095Y-137414285D02*
X104603095Y-135614285D01*
X105650714Y-135614285D02*
X106907857Y-135614285D01*
X106279285Y-137414285D02*
X106279285Y-135614285D01*
X108688809Y-137414285D02*
X107641190Y-137414285D01*
X107641190Y-135614285D01*
X104707857Y-138714285D02*
X105126904Y-138714285D01*
X105336428Y-138800000D01*
X105545952Y-138971428D01*
X105650714Y-139314285D01*
X105650714Y-139914285D01*
X105545952Y-140257142D01*
X105336428Y-140428571D01*
X105126904Y-140514285D01*
X104707857Y-140514285D01*
X104498333Y-140428571D01*
X104288809Y-140257142D01*
X104184047Y-139914285D01*
X104184047Y-139314285D01*
X104288809Y-138971428D01*
X104498333Y-138800000D01*
X104707857Y-138714285D01*
X106593571Y-140514285D02*
X106593571Y-138714285D01*
X107431666Y-138714285D01*
X107641190Y-138800000D01*
X107745952Y-138885714D01*
X107850714Y-139057142D01*
X107850714Y-139314285D01*
X107745952Y-139485714D01*
X107641190Y-139571428D01*
X107431666Y-139657142D01*
X106593571Y-139657142D01*
X108793571Y-139571428D02*
X109526904Y-139571428D01*
X109841190Y-140514285D02*
X108793571Y-140514285D01*
X108793571Y-138714285D01*
X109841190Y-138714285D01*
X112041190Y-140514285D02*
X111307857Y-139657142D01*
X110784047Y-140514285D02*
X110784047Y-138714285D01*
X111622142Y-138714285D01*
X111831666Y-138800000D01*
X111936428Y-138885714D01*
X112041190Y-139057142D01*
X112041190Y-139314285D01*
X111936428Y-139485714D01*
X111831666Y-139571428D01*
X111622142Y-139657142D01*
X110784047Y-139657142D01*
X112879285Y-140000000D02*
X113926904Y-140000000D01*
X112669761Y-140514285D02*
X113403095Y-138714285D01*
X114136428Y-140514285D01*
X114555476Y-138714285D02*
X115812619Y-138714285D01*
X115184047Y-140514285D02*
X115184047Y-138714285D01*
X116545952Y-140514285D02*
X116545952Y-138714285D01*
X118012619Y-138714285D02*
X118431666Y-138714285D01*
X118641190Y-138800000D01*
X118850714Y-138971428D01*
X118955476Y-139314285D01*
X118955476Y-139914285D01*
X118850714Y-140257142D01*
X118641190Y-140428571D01*
X118431666Y-140514285D01*
X118012619Y-140514285D01*
X117803095Y-140428571D01*
X117593571Y-140257142D01*
X117488809Y-139914285D01*
X117488809Y-139314285D01*
X117593571Y-138971428D01*
X117803095Y-138800000D01*
X118012619Y-138714285D01*
X119898333Y-140514285D02*
X119898333Y-138714285D01*
X121155476Y-140514285D01*
X121155476Y-138714285D01*
X104288809Y-143614285D02*
X104288809Y-141814285D01*
X105022142Y-143100000D01*
X105755476Y-141814285D01*
X105755476Y-143614285D01*
X107222142Y-141814285D02*
X107641190Y-141814285D01*
X107850714Y-141900000D01*
X108060238Y-142071428D01*
X108165000Y-142414285D01*
X108165000Y-143014285D01*
X108060238Y-143357142D01*
X107850714Y-143528571D01*
X107641190Y-143614285D01*
X107222142Y-143614285D01*
X107012619Y-143528571D01*
X106803095Y-143357142D01*
X106698333Y-143014285D01*
X106698333Y-142414285D01*
X106803095Y-142071428D01*
X107012619Y-141900000D01*
X107222142Y-141814285D01*
X109107857Y-143614285D02*
X109107857Y-141814285D01*
X109631666Y-141814285D01*
X109945952Y-141900000D01*
X110155476Y-142071428D01*
X110260238Y-142242857D01*
X110365000Y-142585714D01*
X110365000Y-142842857D01*
X110260238Y-143185714D01*
X110155476Y-143357142D01*
X109945952Y-143528571D01*
X109631666Y-143614285D01*
X109107857Y-143614285D01*
X111307857Y-141814285D02*
X111307857Y-143271428D01*
X111412619Y-143442857D01*
X111517380Y-143528571D01*
X111726904Y-143614285D01*
X112145952Y-143614285D01*
X112355476Y-143528571D01*
X112460238Y-143442857D01*
X112565000Y-143271428D01*
X112565000Y-141814285D01*
X114660238Y-143614285D02*
X113612619Y-143614285D01*
X113612619Y-141814285D01*
X115393571Y-142671428D02*
X116126904Y-142671428D01*
X116441190Y-143614285D02*
X115393571Y-143614285D01*
X115393571Y-141814285D01*
X116441190Y-141814285D01*
D10*
X125409905Y-142760641D02*
G75*
G02*
X125312867Y-144210000I320095J-749359D01*
G01*
X126175000Y-138720000D02*
X126331000Y-138720000D01*
X123859000Y-138720000D02*
X124015000Y-138720000D01*
X126174837Y-136118870D02*
G75*
G02*
X126175000Y-138200961I-1079837J-1041130D01*
G01*
X124015163Y-136118870D02*
G75*
G03*
X124015000Y-138200961I1079837J-1041130D01*
G01*
X126173608Y-135487665D02*
G75*
G02*
X126330516Y-138720000I-1078608J-1672335D01*
G01*
X124016392Y-135487665D02*
G75*
G03*
X123859484Y-138720000I1078608J-1672335D01*
G01*
X104715000Y-51325000D02*
X104715000Y-52975000D01*
X130235000Y-51325000D02*
X104715000Y-51325000D01*
X130235000Y-56625000D02*
X130235000Y-51325000D01*
X104715000Y-56625000D02*
X130235000Y-56625000D01*
X104715000Y-54975000D02*
X104715000Y-56625000D01*
X104715000Y-52975000D02*
G75*
G02*
X104715000Y-54975000I0J-1000000D01*
G01*
X51416000Y-139875000D02*
X51416000Y-141375000D01*
X52666000Y-143875000D02*
X57166000Y-143875000D01*
X58416000Y-141375000D02*
X58416000Y-139875000D01*
X57166000Y-137375000D02*
X52666000Y-137375000D01*
X24196095Y-126479359D02*
G75*
G02*
X24293133Y-125030000I-320095J749359D01*
G01*
X24196095Y-130289359D02*
G75*
G02*
X24293133Y-128840000I-320095J749359D01*
G01*
X130496000Y-137220000D02*
X130496000Y-135890000D01*
X131826000Y-137220000D02*
X130496000Y-137220000D01*
X133096000Y-137220000D02*
X133096000Y-134560000D01*
X133096000Y-134560000D02*
X145856000Y-134560000D01*
X133096000Y-137220000D02*
X145856000Y-137220000D01*
X145856000Y-137220000D02*
X145856000Y-134560000D01*
X132365000Y-57124000D02*
X132365000Y-55866000D01*
X130525000Y-57124000D02*
X130525000Y-55866000D01*
X181401000Y-73235000D02*
X182659000Y-73235000D01*
X181401000Y-71395000D02*
X182659000Y-71395000D01*
X175751000Y-79535000D02*
X177009000Y-79535000D01*
X175751000Y-77695000D02*
X177009000Y-77695000D01*
X130206000Y-40019000D02*
X130206000Y-38761000D01*
X128366000Y-40019000D02*
X128366000Y-38761000D01*
X175751000Y-76385000D02*
X177009000Y-76385000D01*
X175751000Y-74545000D02*
X177009000Y-74545000D01*
X102266000Y-67284000D02*
X102266000Y-66026000D01*
X100426000Y-67284000D02*
X100426000Y-66026000D01*
X181401000Y-70085000D02*
X182659000Y-70085000D01*
X181401000Y-68245000D02*
X182659000Y-68245000D01*
X175751000Y-73235000D02*
X177009000Y-73235000D01*
X175751000Y-71395000D02*
X177009000Y-71395000D01*
X170101000Y-79535000D02*
X171359000Y-79535000D01*
X170101000Y-77695000D02*
X171359000Y-77695000D01*
X102266000Y-56489000D02*
X102266000Y-55231000D01*
X100426000Y-56489000D02*
X100426000Y-55231000D01*
X170101000Y-76385000D02*
X171359000Y-76385000D01*
X170101000Y-74545000D02*
X171359000Y-74545000D01*
X181401000Y-66935000D02*
X182659000Y-66935000D01*
X181401000Y-65095000D02*
X182659000Y-65095000D01*
X175751000Y-70085000D02*
X177009000Y-70085000D01*
X175751000Y-68245000D02*
X177009000Y-68245000D01*
X170101000Y-73235000D02*
X171359000Y-73235000D01*
X170101000Y-71395000D02*
X171359000Y-71395000D01*
X164451000Y-79535000D02*
X165709000Y-79535000D01*
X164451000Y-77695000D02*
X165709000Y-77695000D01*
X181401000Y-63785000D02*
X182659000Y-63785000D01*
X181401000Y-61945000D02*
X182659000Y-61945000D01*
X164451000Y-76385000D02*
X165709000Y-76385000D01*
X164451000Y-74545000D02*
X165709000Y-74545000D01*
X175751000Y-66935000D02*
X177009000Y-66935000D01*
X175751000Y-65095000D02*
X177009000Y-65095000D01*
X170101000Y-70085000D02*
X171359000Y-70085000D01*
X170101000Y-68245000D02*
X171359000Y-68245000D01*
X164451000Y-73235000D02*
X165709000Y-73235000D01*
X164451000Y-71395000D02*
X165709000Y-71395000D01*
X175751000Y-63785000D02*
X177009000Y-63785000D01*
X175751000Y-61945000D02*
X177009000Y-61945000D01*
X170101000Y-66935000D02*
X171359000Y-66935000D01*
X170101000Y-65095000D02*
X171359000Y-65095000D01*
X164451000Y-70085000D02*
X165709000Y-70085000D01*
X164451000Y-68245000D02*
X165709000Y-68245000D01*
X170101000Y-63785000D02*
X171359000Y-63785000D01*
X170101000Y-61945000D02*
X171359000Y-61945000D01*
X164451000Y-66935000D02*
X165709000Y-66935000D01*
X164451000Y-65095000D02*
X165709000Y-65095000D01*
X164451000Y-63785000D02*
X165709000Y-63785000D01*
X164451000Y-61945000D02*
X165709000Y-61945000D01*
X74616000Y-132445000D02*
X74616000Y-134095000D01*
X74616000Y-134095000D02*
X100136000Y-134095000D01*
X100136000Y-134095000D02*
X100136000Y-128795000D01*
X100136000Y-128795000D02*
X74616000Y-128795000D01*
X74616000Y-128795000D02*
X74616000Y-130445000D01*
X74616000Y-130445000D02*
G75*
G02*
X74616000Y-132445000I0J-1000000D01*
G01*
X76775000Y-33639000D02*
X76775000Y-39099000D01*
X76775000Y-39099000D02*
X127695000Y-39099000D01*
X127695000Y-39099000D02*
X127695000Y-26179000D01*
X127695000Y-26179000D02*
X76775000Y-26179000D01*
X76775000Y-26179000D02*
X76775000Y-31639000D01*
X76715000Y-41589000D02*
X127755000Y-41589000D01*
X127755000Y-41589000D02*
X127755000Y-23689000D01*
X127755000Y-23689000D02*
X76715000Y-23689000D01*
X76715000Y-23689000D02*
X76715000Y-41589000D01*
X76775000Y-31639000D02*
G75*
G02*
X76775000Y-33639000I0J-1000000D01*
G01*
X74235000Y-116570000D02*
X74235000Y-118220000D01*
X74235000Y-118220000D02*
X99755000Y-118220000D01*
X99755000Y-118220000D02*
X99755000Y-112920000D01*
X99755000Y-112920000D02*
X74235000Y-112920000D01*
X74235000Y-112920000D02*
X74235000Y-114570000D01*
X74235000Y-114570000D02*
G75*
G02*
X74235000Y-116570000I0J-1000000D01*
G01*
X74616000Y-76725000D02*
X74616000Y-78375000D01*
X100136000Y-76725000D02*
X74616000Y-76725000D01*
X100136000Y-82025000D02*
X100136000Y-76725000D01*
X74616000Y-82025000D02*
X100136000Y-82025000D01*
X74616000Y-80375000D02*
X74616000Y-82025000D01*
X74616000Y-78375000D02*
G75*
G02*
X74616000Y-80375000I0J-1000000D01*
G01*
X74235000Y-105775000D02*
X74235000Y-107425000D01*
X74235000Y-107425000D02*
X99755000Y-107425000D01*
X99755000Y-107425000D02*
X99755000Y-102125000D01*
X99755000Y-102125000D02*
X74235000Y-102125000D01*
X74235000Y-102125000D02*
X74235000Y-103775000D01*
X74235000Y-103775000D02*
G75*
G02*
X74235000Y-105775000I0J-1000000D01*
G01*
X74616000Y-87520000D02*
X74616000Y-89170000D01*
X100136000Y-87520000D02*
X74616000Y-87520000D01*
X100136000Y-92820000D02*
X100136000Y-87520000D01*
X74616000Y-92820000D02*
X100136000Y-92820000D01*
X74616000Y-91170000D02*
X74616000Y-92820000D01*
X74616000Y-89170000D02*
G75*
G02*
X74616000Y-91170000I0J-1000000D01*
G01*
X23181000Y-143570000D02*
X25841000Y-143570000D01*
X23181000Y-138430000D02*
X23181000Y-143570000D01*
X25841000Y-138430000D02*
X25841000Y-143570000D01*
X23181000Y-138430000D02*
X25841000Y-138430000D01*
X23181000Y-137160000D02*
X23181000Y-135830000D01*
X23181000Y-135830000D02*
X24511000Y-135830000D01*
X62846000Y-139875000D02*
X62846000Y-141375000D01*
X64096000Y-143875000D02*
X68596000Y-143875000D01*
X69846000Y-141375000D02*
X69846000Y-139875000D01*
X68596000Y-137375000D02*
X64096000Y-137375000D01*
X135636000Y-74355000D02*
X134306000Y-74355000D01*
X134306000Y-74355000D02*
X134306000Y-73025000D01*
X136906000Y-74355000D02*
X136906000Y-71755000D01*
X136906000Y-71755000D02*
X134306000Y-71755000D01*
X134306000Y-71755000D02*
X134306000Y-51375000D01*
X139506000Y-51375000D02*
X134306000Y-51375000D01*
X139506000Y-74355000D02*
X139506000Y-51375000D01*
X139506000Y-74355000D02*
X136906000Y-74355000D01*
X135636000Y-47939000D02*
X134306000Y-47939000D01*
X134306000Y-47939000D02*
X134306000Y-46609000D01*
X136906000Y-47939000D02*
X136906000Y-45339000D01*
X136906000Y-45339000D02*
X134306000Y-45339000D01*
X134306000Y-45339000D02*
X134306000Y-24959000D01*
X139506000Y-24959000D02*
X134306000Y-24959000D01*
X139506000Y-47939000D02*
X139506000Y-24959000D01*
X139506000Y-47939000D02*
X136906000Y-47939000D01*
X143256000Y-101025000D02*
X141926000Y-101025000D01*
X141926000Y-101025000D02*
X141926000Y-99695000D01*
X144526000Y-101025000D02*
X144526000Y-98425000D01*
X144526000Y-98425000D02*
X141926000Y-98425000D01*
X141926000Y-98425000D02*
X141926000Y-78045000D01*
X147126000Y-78045000D02*
X141926000Y-78045000D01*
X147126000Y-101025000D02*
X147126000Y-78045000D01*
X147126000Y-101025000D02*
X144526000Y-101025000D01*
X143256000Y-74355000D02*
X141926000Y-74355000D01*
X141926000Y-74355000D02*
X141926000Y-73025000D01*
X144526000Y-74355000D02*
X144526000Y-71755000D01*
X144526000Y-71755000D02*
X141926000Y-71755000D01*
X141926000Y-71755000D02*
X141926000Y-51375000D01*
X147126000Y-51375000D02*
X141926000Y-51375000D01*
X147126000Y-74355000D02*
X147126000Y-51375000D01*
X147126000Y-74355000D02*
X144526000Y-74355000D01*
X24006500Y-35323000D02*
X24006500Y-36973000D01*
X44446500Y-35323000D02*
X24006500Y-35323000D01*
X44446500Y-40623000D02*
X44446500Y-35323000D01*
X24006500Y-40623000D02*
X44446500Y-40623000D01*
X24006500Y-38973000D02*
X24006500Y-40623000D01*
X24006500Y-36973000D02*
G75*
G02*
X24006500Y-38973000I0J-1000000D01*
G01*
X48835000Y-35323000D02*
X48835000Y-36973000D01*
X69275000Y-35323000D02*
X48835000Y-35323000D01*
X69275000Y-40623000D02*
X69275000Y-35323000D01*
X48835000Y-40623000D02*
X69275000Y-40623000D01*
X48835000Y-38973000D02*
X48835000Y-40623000D01*
X48835000Y-36973000D02*
G75*
G02*
X48835000Y-38973000I0J-1000000D01*
G01*
X23816000Y-28940000D02*
X23816000Y-30590000D01*
X23816000Y-30590000D02*
X44256000Y-30590000D01*
X44256000Y-30590000D02*
X44256000Y-25290000D01*
X44256000Y-25290000D02*
X23816000Y-25290000D01*
X23816000Y-25290000D02*
X23816000Y-26940000D01*
X23816000Y-26940000D02*
G75*
G02*
X23816000Y-28940000I0J-1000000D01*
G01*
X115299000Y-100143000D02*
X112379000Y-100143000D01*
X115299000Y-130743000D02*
X115299000Y-100143000D01*
X107459000Y-130743000D02*
X115299000Y-130743000D01*
X107459000Y-100143000D02*
X107459000Y-130743000D01*
X110379000Y-100143000D02*
X107459000Y-100143000D01*
X112379000Y-100143000D02*
G75*
G02*
X110379000Y-100143000I-1000000J0D01*
G01*
X128380000Y-100143000D02*
X125460000Y-100143000D01*
X128380000Y-130743000D02*
X128380000Y-100143000D01*
X120540000Y-130743000D02*
X128380000Y-130743000D01*
X120540000Y-100143000D02*
X120540000Y-130743000D01*
X123460000Y-100143000D02*
X120540000Y-100143000D01*
X125460000Y-100143000D02*
G75*
G02*
X123460000Y-100143000I-1000000J0D01*
G01*
X135636000Y-127441000D02*
X134306000Y-127441000D01*
X134306000Y-127441000D02*
X134306000Y-126111000D01*
X136906000Y-127441000D02*
X136906000Y-124841000D01*
X136906000Y-124841000D02*
X134306000Y-124841000D01*
X134306000Y-124841000D02*
X134306000Y-104461000D01*
X139506000Y-104461000D02*
X134306000Y-104461000D01*
X139506000Y-127441000D02*
X139506000Y-104461000D01*
X139506000Y-127441000D02*
X136906000Y-127441000D01*
X143256000Y-127441000D02*
X141926000Y-127441000D01*
X141926000Y-127441000D02*
X141926000Y-126111000D01*
X144526000Y-127441000D02*
X144526000Y-124841000D01*
X144526000Y-124841000D02*
X141926000Y-124841000D01*
X141926000Y-124841000D02*
X141926000Y-104461000D01*
X147126000Y-104461000D02*
X141926000Y-104461000D01*
X147126000Y-127441000D02*
X147126000Y-104461000D01*
X147126000Y-127441000D02*
X144526000Y-127441000D01*
X135636000Y-101025000D02*
X134306000Y-101025000D01*
X134306000Y-101025000D02*
X134306000Y-99695000D01*
X136906000Y-101025000D02*
X136906000Y-98425000D01*
X136906000Y-98425000D02*
X134306000Y-98425000D01*
X134306000Y-98425000D02*
X134306000Y-78045000D01*
X139506000Y-78045000D02*
X134306000Y-78045000D01*
X139506000Y-101025000D02*
X139506000Y-78045000D01*
X139506000Y-101025000D02*
X136906000Y-101025000D01*
X23816000Y-81805000D02*
X23816000Y-83455000D01*
X44256000Y-81805000D02*
X23816000Y-81805000D01*
X44256000Y-87105000D02*
X44256000Y-81805000D01*
X23816000Y-87105000D02*
X44256000Y-87105000D01*
X23816000Y-85455000D02*
X23816000Y-87105000D01*
X23816000Y-83455000D02*
G75*
G02*
X23816000Y-85455000I0J-1000000D01*
G01*
X74774000Y-61485000D02*
X74774000Y-63135000D01*
X100294000Y-61485000D02*
X74774000Y-61485000D01*
X100294000Y-66785000D02*
X100294000Y-61485000D01*
X74774000Y-66785000D02*
X100294000Y-66785000D01*
X74774000Y-65135000D02*
X74774000Y-66785000D01*
X74774000Y-63135000D02*
G75*
G02*
X74774000Y-65135000I0J-1000000D01*
G01*
X74870000Y-54340000D02*
X74870000Y-55990000D01*
X74870000Y-55990000D02*
X100390000Y-55990000D01*
X100390000Y-55990000D02*
X100390000Y-50690000D01*
X100390000Y-50690000D02*
X74870000Y-50690000D01*
X74870000Y-50690000D02*
X74870000Y-52340000D01*
X74870000Y-52340000D02*
G75*
G02*
X74870000Y-54340000I0J-1000000D01*
G01*
X23816000Y-50690000D02*
X23816000Y-52340000D01*
X44256000Y-50690000D02*
X23816000Y-50690000D01*
X44256000Y-55990000D02*
X44256000Y-50690000D01*
X23816000Y-55990000D02*
X44256000Y-55990000D01*
X23816000Y-54340000D02*
X23816000Y-55990000D01*
X23816000Y-52340000D02*
G75*
G02*
X23816000Y-54340000I0J-1000000D01*
G01*
X23816000Y-61485000D02*
X23816000Y-63135000D01*
X44256000Y-61485000D02*
X23816000Y-61485000D01*
X44256000Y-66785000D02*
X44256000Y-61485000D01*
X23816000Y-66785000D02*
X44256000Y-66785000D01*
X23816000Y-65135000D02*
X23816000Y-66785000D01*
X23816000Y-63135000D02*
G75*
G02*
X23816000Y-65135000I0J-1000000D01*
G01*
X23816000Y-71645000D02*
X23816000Y-73295000D01*
X44256000Y-71645000D02*
X23816000Y-71645000D01*
X44256000Y-76945000D02*
X44256000Y-71645000D01*
X23816000Y-76945000D02*
X44256000Y-76945000D01*
X23816000Y-75295000D02*
X23816000Y-76945000D01*
X23816000Y-73295000D02*
G75*
G02*
X23816000Y-75295000I0J-1000000D01*
G01*
X48581000Y-28940000D02*
X48581000Y-30590000D01*
X48581000Y-30590000D02*
X69021000Y-30590000D01*
X69021000Y-30590000D02*
X69021000Y-25290000D01*
X69021000Y-25290000D02*
X48581000Y-25290000D01*
X48581000Y-25290000D02*
X48581000Y-26940000D01*
X48581000Y-26940000D02*
G75*
G02*
X48581000Y-28940000I0J-1000000D01*
G01*
X143256000Y-47939000D02*
X141926000Y-47939000D01*
X141926000Y-47939000D02*
X141926000Y-46609000D01*
X144526000Y-47939000D02*
X144526000Y-45339000D01*
X144526000Y-45339000D02*
X141926000Y-45339000D01*
X141926000Y-45339000D02*
X141926000Y-24959000D01*
X147126000Y-24959000D02*
X141926000Y-24959000D01*
X147126000Y-47939000D02*
X147126000Y-24959000D01*
X147126000Y-47939000D02*
X144526000Y-47939000D01*
X25466095Y-104254359D02*
G75*
G02*
X25563133Y-102805000I-320095J749359D01*
G01*
X25471095Y-108064359D02*
G75*
G02*
X25568133Y-106615000I-320095J749359D01*
G01*
X25466095Y-101079359D02*
G75*
G02*
X25563133Y-99630000I-320095J749359D01*
G01*
X106794359Y-70169905D02*
G75*
G02*
X105345000Y-70072867I-749359J-320095D01*
G01*
X23986000Y-110070000D02*
X23986000Y-109755000D01*
X23986000Y-112495000D02*
X23986000Y-112180000D01*
X28926000Y-110070000D02*
X28926000Y-109755000D01*
X28926000Y-112495000D02*
X28926000Y-112180000D01*
X28926000Y-109755000D02*
X23986000Y-109755000D01*
X28926000Y-112495000D02*
X23986000Y-112495000D01*
X23986000Y-118960000D02*
X23986000Y-118645000D01*
X23986000Y-121385000D02*
X23986000Y-121070000D01*
X28926000Y-118960000D02*
X28926000Y-118645000D01*
X28926000Y-121385000D02*
X28926000Y-121070000D01*
X28926000Y-118645000D02*
X23986000Y-118645000D01*
X28926000Y-121385000D02*
X23986000Y-121385000D01*
X23986000Y-114515000D02*
X23986000Y-114200000D01*
X23986000Y-116940000D02*
X23986000Y-116625000D01*
X28926000Y-114515000D02*
X28926000Y-114200000D01*
X28926000Y-116940000D02*
X28926000Y-116625000D01*
X28926000Y-114200000D02*
X23986000Y-114200000D01*
X28926000Y-116940000D02*
X23986000Y-116940000D01*
X32833000Y-104378000D02*
X32833000Y-109838000D01*
X32833000Y-109838000D02*
X68513000Y-109838000D01*
X68513000Y-109838000D02*
X68513000Y-96918000D01*
X68513000Y-96918000D02*
X32833000Y-96918000D01*
X32833000Y-96918000D02*
X32833000Y-102378000D01*
X32833000Y-102378000D02*
G75*
G02*
X32833000Y-104378000I0J-1000000D01*
G01*
X38541000Y-142985000D02*
X38541000Y-141335000D01*
X28261000Y-142985000D02*
X38541000Y-142985000D01*
X28261000Y-137685000D02*
X28261000Y-142985000D01*
X38541000Y-137685000D02*
X28261000Y-137685000D01*
X38541000Y-139335000D02*
X38541000Y-137685000D01*
X38541000Y-141335000D02*
G75*
G02*
X38541000Y-139335000I0J1000000D01*
G01*
X25248634Y-95231551D02*
G75*
G02*
X27516000Y-95291153I1167366J1251551D01*
G01*
X32706000Y-114825000D02*
X32706000Y-120285000D01*
X68386000Y-114825000D02*
X32706000Y-114825000D01*
X68386000Y-127745000D02*
X68386000Y-114825000D01*
X32706000Y-127745000D02*
X68386000Y-127745000D01*
X32706000Y-122285000D02*
X32706000Y-127745000D01*
X32706000Y-120285000D02*
G75*
G02*
X32706000Y-122285000I0J-1000000D01*
G01*
D12*
X123541000Y-73005000D02*
X123491000Y-73005000D01*
X128491000Y-91955000D02*
X128491000Y-64255000D01*
X108491000Y-91955000D02*
X128491000Y-91955000D01*
X117491000Y-87105000D02*
X113491000Y-87105000D01*
X119491000Y-87105000D02*
X123491000Y-87105000D01*
X124491000Y-87105000D02*
X124491000Y-79105000D01*
X124491000Y-77105000D02*
X124491000Y-69105000D01*
X123491000Y-69105000D02*
X119491000Y-69105000D01*
X117491000Y-69105000D02*
X113491000Y-69105000D01*
X112491000Y-87105000D02*
X112491000Y-79105000D01*
X112491000Y-77105000D02*
X112491000Y-69105000D01*
X118491000Y-87105000D02*
X118491000Y-79105000D01*
X118491000Y-77105000D02*
X118491000Y-69105000D01*
X124491000Y-78105000D02*
X119491000Y-78105000D01*
X117491000Y-78105000D02*
X112491000Y-78105000D01*
X113491000Y-86105000D02*
X117491000Y-79105000D01*
X123491000Y-86105000D02*
X119491000Y-79105000D01*
X113491000Y-70105000D02*
X117491000Y-77105000D01*
X123491000Y-70105000D02*
X119491000Y-77105000D01*
X128491000Y-64255000D02*
X108491000Y-64255000D01*
X128491000Y-90955000D02*
X127491000Y-91955000D01*
X108491000Y-64255000D02*
X108491000Y-91955000D01*
D10*
X79696000Y-139700000D02*
X79696000Y-138370000D01*
X79696000Y-138370000D02*
X81026000Y-138370000D01*
X79696000Y-140970000D02*
X82296000Y-140970000D01*
X82296000Y-140970000D02*
X82296000Y-138370000D01*
X82296000Y-138370000D02*
X95056000Y-138370000D01*
X95056000Y-143570000D02*
X95056000Y-138370000D01*
X79696000Y-143570000D02*
X95056000Y-143570000D01*
X79696000Y-143570000D02*
X79696000Y-140970000D01*
X73346000Y-22285000D02*
X76006000Y-22285000D01*
X73346000Y-22225000D02*
X73346000Y-22285000D01*
X76006000Y-22225000D02*
X76006000Y-22285000D01*
X73346000Y-22225000D02*
X76006000Y-22225000D01*
X73346000Y-20955000D02*
X73346000Y-19625000D01*
X73346000Y-19625000D02*
X74676000Y-19625000D01*
X41761000Y-143455000D02*
X45361000Y-143455000D01*
X41722522Y-143443478D02*
G75*
G02*
X43561000Y-139005000I1838478J1838478D01*
G01*
X45399478Y-143443478D02*
G75*
G03*
X43561000Y-139005000I-1838478J1838478D01*
G01*
X43040359Y-136199905D02*
G75*
G02*
X41591000Y-136102867I-749359J-320095D01*
G01*
X46215359Y-136204905D02*
G75*
G02*
X44766000Y-136107867I-749359J-320095D01*
G01*
X50791001Y-86869999D02*
X50791001Y-88519999D01*
X50791001Y-88519999D02*
X68691001Y-88519999D01*
X68691001Y-88519999D02*
X68691001Y-83219999D01*
X68691001Y-83219999D02*
X50791001Y-83219999D01*
X50791001Y-83219999D02*
X50791001Y-84869999D01*
X50791001Y-84869999D02*
G75*
G02*
X50791001Y-86869999I0J-1000000D01*
G01*
X50791001Y-72369999D02*
X50791001Y-74019999D01*
X68691001Y-72369999D02*
X50791001Y-72369999D01*
X68691001Y-77669999D02*
X68691001Y-72369999D01*
X50791001Y-77669999D02*
X68691001Y-77669999D01*
X50791001Y-76019999D02*
X50791001Y-77669999D01*
X50791001Y-74019999D02*
G75*
G02*
X50791001Y-76019999I0J-1000000D01*
G01*
X50791001Y-65169999D02*
X50791001Y-66819999D01*
X50791001Y-66819999D02*
X68691001Y-66819999D01*
X68691001Y-66819999D02*
X68691001Y-61519999D01*
X68691001Y-61519999D02*
X50791001Y-61519999D01*
X50791001Y-61519999D02*
X50791001Y-63169999D01*
X50791001Y-63169999D02*
G75*
G02*
X50791001Y-65169999I0J-1000000D01*
G01*
X50791001Y-50669999D02*
X50791001Y-52319999D01*
X68691001Y-50669999D02*
X50791001Y-50669999D01*
X68691001Y-55969999D02*
X68691001Y-50669999D01*
X50791001Y-55969999D02*
X68691001Y-55969999D01*
X50791001Y-54319999D02*
X50791001Y-55969999D01*
X50791001Y-52319999D02*
G75*
G02*
X50791001Y-54319999I0J-1000000D01*
G01*
X28036000Y-128284000D02*
X28036000Y-127026000D01*
X29876000Y-128284000D02*
X29876000Y-127026000D01*
D12*
X124928333Y-142057380D02*
X124595000Y-141581190D01*
X124356904Y-142057380D02*
X124356904Y-141057380D01*
X124737857Y-141057380D01*
X124833095Y-141105000D01*
X124880714Y-141152619D01*
X124928333Y-141247857D01*
X124928333Y-141390714D01*
X124880714Y-141485952D01*
X124833095Y-141533571D01*
X124737857Y-141581190D01*
X124356904Y-141581190D01*
X125404523Y-142057380D02*
X125595000Y-142057380D01*
X125690238Y-142009761D01*
X125737857Y-141962142D01*
X125833095Y-141819285D01*
X125880714Y-141628809D01*
X125880714Y-141247857D01*
X125833095Y-141152619D01*
X125785476Y-141105000D01*
X125690238Y-141057380D01*
X125499761Y-141057380D01*
X125404523Y-141105000D01*
X125356904Y-141152619D01*
X125309285Y-141247857D01*
X125309285Y-141485952D01*
X125356904Y-141581190D01*
X125404523Y-141628809D01*
X125499761Y-141676428D01*
X125690238Y-141676428D01*
X125785476Y-141628809D01*
X125833095Y-141581190D01*
X125880714Y-141485952D01*
X124356904Y-134437380D02*
X124356904Y-133437380D01*
X124595000Y-133437380D01*
X124737857Y-133485000D01*
X124833095Y-133580238D01*
X124880714Y-133675476D01*
X124928333Y-133865952D01*
X124928333Y-134008809D01*
X124880714Y-134199285D01*
X124833095Y-134294523D01*
X124737857Y-134389761D01*
X124595000Y-134437380D01*
X124356904Y-134437380D01*
X125309285Y-133532619D02*
X125356904Y-133485000D01*
X125452142Y-133437380D01*
X125690238Y-133437380D01*
X125785476Y-133485000D01*
X125833095Y-133532619D01*
X125880714Y-133627857D01*
X125880714Y-133723095D01*
X125833095Y-133865952D01*
X125261666Y-134437380D01*
X125880714Y-134437380D01*
X103167380Y-54736904D02*
X103976904Y-54736904D01*
X104072142Y-54689285D01*
X104119761Y-54641666D01*
X104167380Y-54546428D01*
X104167380Y-54355952D01*
X104119761Y-54260714D01*
X104072142Y-54213095D01*
X103976904Y-54165476D01*
X103167380Y-54165476D01*
X103500714Y-53260714D02*
X104167380Y-53260714D01*
X103119761Y-53498809D02*
X103834047Y-53736904D01*
X103834047Y-53117857D01*
X53657666Y-145184761D02*
X53800523Y-145232380D01*
X54038619Y-145232380D01*
X54133857Y-145184761D01*
X54181476Y-145137142D01*
X54229095Y-145041904D01*
X54229095Y-144946666D01*
X54181476Y-144851428D01*
X54133857Y-144803809D01*
X54038619Y-144756190D01*
X53848142Y-144708571D01*
X53752904Y-144660952D01*
X53705285Y-144613333D01*
X53657666Y-144518095D01*
X53657666Y-144422857D01*
X53705285Y-144327619D01*
X53752904Y-144280000D01*
X53848142Y-144232380D01*
X54086238Y-144232380D01*
X54229095Y-144280000D01*
X54562428Y-144232380D02*
X54800523Y-145232380D01*
X54991000Y-144518095D01*
X55181476Y-145232380D01*
X55419571Y-144232380D01*
X56324333Y-145232380D02*
X55752904Y-145232380D01*
X56038619Y-145232380D02*
X56038619Y-144232380D01*
X55943380Y-144375238D01*
X55848142Y-144470476D01*
X55752904Y-144518095D01*
X24659333Y-124262380D02*
X24326000Y-123786190D01*
X24087904Y-124262380D02*
X24087904Y-123262380D01*
X24468857Y-123262380D01*
X24564095Y-123310000D01*
X24611714Y-123357619D01*
X24659333Y-123452857D01*
X24659333Y-123595714D01*
X24611714Y-123690952D01*
X24564095Y-123738571D01*
X24468857Y-123786190D01*
X24087904Y-123786190D01*
X25516476Y-123262380D02*
X25326000Y-123262380D01*
X25230761Y-123310000D01*
X25183142Y-123357619D01*
X25087904Y-123500476D01*
X25040285Y-123690952D01*
X25040285Y-124071904D01*
X25087904Y-124167142D01*
X25135523Y-124214761D01*
X25230761Y-124262380D01*
X25421238Y-124262380D01*
X25516476Y-124214761D01*
X25564095Y-124167142D01*
X25611714Y-124071904D01*
X25611714Y-123833809D01*
X25564095Y-123738571D01*
X25516476Y-123690952D01*
X25421238Y-123643333D01*
X25230761Y-123643333D01*
X25135523Y-123690952D01*
X25087904Y-123738571D01*
X25040285Y-123833809D01*
X24659333Y-128072380D02*
X24326000Y-127596190D01*
X24087904Y-128072380D02*
X24087904Y-127072380D01*
X24468857Y-127072380D01*
X24564095Y-127120000D01*
X24611714Y-127167619D01*
X24659333Y-127262857D01*
X24659333Y-127405714D01*
X24611714Y-127500952D01*
X24564095Y-127548571D01*
X24468857Y-127596190D01*
X24087904Y-127596190D01*
X25564095Y-127072380D02*
X25087904Y-127072380D01*
X25040285Y-127548571D01*
X25087904Y-127500952D01*
X25183142Y-127453333D01*
X25421238Y-127453333D01*
X25516476Y-127500952D01*
X25564095Y-127548571D01*
X25611714Y-127643809D01*
X25611714Y-127881904D01*
X25564095Y-127977142D01*
X25516476Y-128024761D01*
X25421238Y-128072380D01*
X25183142Y-128072380D01*
X25087904Y-128024761D01*
X25040285Y-127977142D01*
X128948380Y-136223333D02*
X129662666Y-136223333D01*
X129805523Y-136270952D01*
X129900761Y-136366190D01*
X129948380Y-136509047D01*
X129948380Y-136604285D01*
X129043619Y-135794761D02*
X128996000Y-135747142D01*
X128948380Y-135651904D01*
X128948380Y-135413809D01*
X128996000Y-135318571D01*
X129043619Y-135270952D01*
X129138857Y-135223333D01*
X129234095Y-135223333D01*
X129376952Y-135270952D01*
X129948380Y-135842380D01*
X129948380Y-135223333D01*
X129752142Y-57137857D02*
X129799761Y-57185476D01*
X129847380Y-57328333D01*
X129847380Y-57423571D01*
X129799761Y-57566428D01*
X129704523Y-57661666D01*
X129609285Y-57709285D01*
X129418809Y-57756904D01*
X129275952Y-57756904D01*
X129085476Y-57709285D01*
X128990238Y-57661666D01*
X128895000Y-57566428D01*
X128847380Y-57423571D01*
X128847380Y-57328333D01*
X128895000Y-57185476D01*
X128942619Y-57137857D01*
X128942619Y-56756904D02*
X128895000Y-56709285D01*
X128847380Y-56614047D01*
X128847380Y-56375952D01*
X128895000Y-56280714D01*
X128942619Y-56233095D01*
X129037857Y-56185476D01*
X129133095Y-56185476D01*
X129275952Y-56233095D01*
X129847380Y-56804523D01*
X129847380Y-56185476D01*
X129847380Y-55709285D02*
X129847380Y-55518809D01*
X129799761Y-55423571D01*
X129752142Y-55375952D01*
X129609285Y-55280714D01*
X129418809Y-55233095D01*
X129037857Y-55233095D01*
X128942619Y-55280714D01*
X128895000Y-55328333D01*
X128847380Y-55423571D01*
X128847380Y-55614047D01*
X128895000Y-55709285D01*
X128942619Y-55756904D01*
X129037857Y-55804523D01*
X129275952Y-55804523D01*
X129371190Y-55756904D01*
X129418809Y-55709285D01*
X129466428Y-55614047D01*
X129466428Y-55423571D01*
X129418809Y-55328333D01*
X129371190Y-55280714D01*
X129275952Y-55233095D01*
X181387142Y-70622142D02*
X181339523Y-70669761D01*
X181196666Y-70717380D01*
X181101428Y-70717380D01*
X180958571Y-70669761D01*
X180863333Y-70574523D01*
X180815714Y-70479285D01*
X180768095Y-70288809D01*
X180768095Y-70145952D01*
X180815714Y-69955476D01*
X180863333Y-69860238D01*
X180958571Y-69765000D01*
X181101428Y-69717380D01*
X181196666Y-69717380D01*
X181339523Y-69765000D01*
X181387142Y-69812619D01*
X181768095Y-69812619D02*
X181815714Y-69765000D01*
X181910952Y-69717380D01*
X182149047Y-69717380D01*
X182244285Y-69765000D01*
X182291904Y-69812619D01*
X182339523Y-69907857D01*
X182339523Y-70003095D01*
X182291904Y-70145952D01*
X181720476Y-70717380D01*
X182339523Y-70717380D01*
X182910952Y-70145952D02*
X182815714Y-70098333D01*
X182768095Y-70050714D01*
X182720476Y-69955476D01*
X182720476Y-69907857D01*
X182768095Y-69812619D01*
X182815714Y-69765000D01*
X182910952Y-69717380D01*
X183101428Y-69717380D01*
X183196666Y-69765000D01*
X183244285Y-69812619D01*
X183291904Y-69907857D01*
X183291904Y-69955476D01*
X183244285Y-70050714D01*
X183196666Y-70098333D01*
X183101428Y-70145952D01*
X182910952Y-70145952D01*
X182815714Y-70193571D01*
X182768095Y-70241190D01*
X182720476Y-70336428D01*
X182720476Y-70526904D01*
X182768095Y-70622142D01*
X182815714Y-70669761D01*
X182910952Y-70717380D01*
X183101428Y-70717380D01*
X183196666Y-70669761D01*
X183244285Y-70622142D01*
X183291904Y-70526904D01*
X183291904Y-70336428D01*
X183244285Y-70241190D01*
X183196666Y-70193571D01*
X183101428Y-70145952D01*
X175737142Y-76922142D02*
X175689523Y-76969761D01*
X175546666Y-77017380D01*
X175451428Y-77017380D01*
X175308571Y-76969761D01*
X175213333Y-76874523D01*
X175165714Y-76779285D01*
X175118095Y-76588809D01*
X175118095Y-76445952D01*
X175165714Y-76255476D01*
X175213333Y-76160238D01*
X175308571Y-76065000D01*
X175451428Y-76017380D01*
X175546666Y-76017380D01*
X175689523Y-76065000D01*
X175737142Y-76112619D01*
X176118095Y-76112619D02*
X176165714Y-76065000D01*
X176260952Y-76017380D01*
X176499047Y-76017380D01*
X176594285Y-76065000D01*
X176641904Y-76112619D01*
X176689523Y-76207857D01*
X176689523Y-76303095D01*
X176641904Y-76445952D01*
X176070476Y-77017380D01*
X176689523Y-77017380D01*
X177022857Y-76017380D02*
X177689523Y-76017380D01*
X177260952Y-77017380D01*
X127593142Y-40032857D02*
X127640761Y-40080476D01*
X127688380Y-40223333D01*
X127688380Y-40318571D01*
X127640761Y-40461428D01*
X127545523Y-40556666D01*
X127450285Y-40604285D01*
X127259809Y-40651904D01*
X127116952Y-40651904D01*
X126926476Y-40604285D01*
X126831238Y-40556666D01*
X126736000Y-40461428D01*
X126688380Y-40318571D01*
X126688380Y-40223333D01*
X126736000Y-40080476D01*
X126783619Y-40032857D01*
X126783619Y-39651904D02*
X126736000Y-39604285D01*
X126688380Y-39509047D01*
X126688380Y-39270952D01*
X126736000Y-39175714D01*
X126783619Y-39128095D01*
X126878857Y-39080476D01*
X126974095Y-39080476D01*
X127116952Y-39128095D01*
X127688380Y-39699523D01*
X127688380Y-39080476D01*
X126688380Y-38223333D02*
X126688380Y-38413809D01*
X126736000Y-38509047D01*
X126783619Y-38556666D01*
X126926476Y-38651904D01*
X127116952Y-38699523D01*
X127497904Y-38699523D01*
X127593142Y-38651904D01*
X127640761Y-38604285D01*
X127688380Y-38509047D01*
X127688380Y-38318571D01*
X127640761Y-38223333D01*
X127593142Y-38175714D01*
X127497904Y-38128095D01*
X127259809Y-38128095D01*
X127164571Y-38175714D01*
X127116952Y-38223333D01*
X127069333Y-38318571D01*
X127069333Y-38509047D01*
X127116952Y-38604285D01*
X127164571Y-38651904D01*
X127259809Y-38699523D01*
X175737142Y-73772142D02*
X175689523Y-73819761D01*
X175546666Y-73867380D01*
X175451428Y-73867380D01*
X175308571Y-73819761D01*
X175213333Y-73724523D01*
X175165714Y-73629285D01*
X175118095Y-73438809D01*
X175118095Y-73295952D01*
X175165714Y-73105476D01*
X175213333Y-73010238D01*
X175308571Y-72915000D01*
X175451428Y-72867380D01*
X175546666Y-72867380D01*
X175689523Y-72915000D01*
X175737142Y-72962619D01*
X176118095Y-72962619D02*
X176165714Y-72915000D01*
X176260952Y-72867380D01*
X176499047Y-72867380D01*
X176594285Y-72915000D01*
X176641904Y-72962619D01*
X176689523Y-73057857D01*
X176689523Y-73153095D01*
X176641904Y-73295952D01*
X176070476Y-73867380D01*
X176689523Y-73867380D01*
X177594285Y-72867380D02*
X177118095Y-72867380D01*
X177070476Y-73343571D01*
X177118095Y-73295952D01*
X177213333Y-73248333D01*
X177451428Y-73248333D01*
X177546666Y-73295952D01*
X177594285Y-73343571D01*
X177641904Y-73438809D01*
X177641904Y-73676904D01*
X177594285Y-73772142D01*
X177546666Y-73819761D01*
X177451428Y-73867380D01*
X177213333Y-73867380D01*
X177118095Y-73819761D01*
X177070476Y-73772142D01*
X99653142Y-67297857D02*
X99700761Y-67345476D01*
X99748380Y-67488333D01*
X99748380Y-67583571D01*
X99700761Y-67726428D01*
X99605523Y-67821666D01*
X99510285Y-67869285D01*
X99319809Y-67916904D01*
X99176952Y-67916904D01*
X98986476Y-67869285D01*
X98891238Y-67821666D01*
X98796000Y-67726428D01*
X98748380Y-67583571D01*
X98748380Y-67488333D01*
X98796000Y-67345476D01*
X98843619Y-67297857D01*
X98843619Y-66916904D02*
X98796000Y-66869285D01*
X98748380Y-66774047D01*
X98748380Y-66535952D01*
X98796000Y-66440714D01*
X98843619Y-66393095D01*
X98938857Y-66345476D01*
X99034095Y-66345476D01*
X99176952Y-66393095D01*
X99748380Y-66964523D01*
X99748380Y-66345476D01*
X99081714Y-65488333D02*
X99748380Y-65488333D01*
X98700761Y-65726428D02*
X99415047Y-65964523D01*
X99415047Y-65345476D01*
X181387142Y-67472142D02*
X181339523Y-67519761D01*
X181196666Y-67567380D01*
X181101428Y-67567380D01*
X180958571Y-67519761D01*
X180863333Y-67424523D01*
X180815714Y-67329285D01*
X180768095Y-67138809D01*
X180768095Y-66995952D01*
X180815714Y-66805476D01*
X180863333Y-66710238D01*
X180958571Y-66615000D01*
X181101428Y-66567380D01*
X181196666Y-66567380D01*
X181339523Y-66615000D01*
X181387142Y-66662619D01*
X181768095Y-66662619D02*
X181815714Y-66615000D01*
X181910952Y-66567380D01*
X182149047Y-66567380D01*
X182244285Y-66615000D01*
X182291904Y-66662619D01*
X182339523Y-66757857D01*
X182339523Y-66853095D01*
X182291904Y-66995952D01*
X181720476Y-67567380D01*
X182339523Y-67567380D01*
X182672857Y-66567380D02*
X183291904Y-66567380D01*
X182958571Y-66948333D01*
X183101428Y-66948333D01*
X183196666Y-66995952D01*
X183244285Y-67043571D01*
X183291904Y-67138809D01*
X183291904Y-67376904D01*
X183244285Y-67472142D01*
X183196666Y-67519761D01*
X183101428Y-67567380D01*
X182815714Y-67567380D01*
X182720476Y-67519761D01*
X182672857Y-67472142D01*
X175737142Y-70622142D02*
X175689523Y-70669761D01*
X175546666Y-70717380D01*
X175451428Y-70717380D01*
X175308571Y-70669761D01*
X175213333Y-70574523D01*
X175165714Y-70479285D01*
X175118095Y-70288809D01*
X175118095Y-70145952D01*
X175165714Y-69955476D01*
X175213333Y-69860238D01*
X175308571Y-69765000D01*
X175451428Y-69717380D01*
X175546666Y-69717380D01*
X175689523Y-69765000D01*
X175737142Y-69812619D01*
X176118095Y-69812619D02*
X176165714Y-69765000D01*
X176260952Y-69717380D01*
X176499047Y-69717380D01*
X176594285Y-69765000D01*
X176641904Y-69812619D01*
X176689523Y-69907857D01*
X176689523Y-70003095D01*
X176641904Y-70145952D01*
X176070476Y-70717380D01*
X176689523Y-70717380D01*
X177070476Y-69812619D02*
X177118095Y-69765000D01*
X177213333Y-69717380D01*
X177451428Y-69717380D01*
X177546666Y-69765000D01*
X177594285Y-69812619D01*
X177641904Y-69907857D01*
X177641904Y-70003095D01*
X177594285Y-70145952D01*
X177022857Y-70717380D01*
X177641904Y-70717380D01*
X170087142Y-76922142D02*
X170039523Y-76969761D01*
X169896666Y-77017380D01*
X169801428Y-77017380D01*
X169658571Y-76969761D01*
X169563333Y-76874523D01*
X169515714Y-76779285D01*
X169468095Y-76588809D01*
X169468095Y-76445952D01*
X169515714Y-76255476D01*
X169563333Y-76160238D01*
X169658571Y-76065000D01*
X169801428Y-76017380D01*
X169896666Y-76017380D01*
X170039523Y-76065000D01*
X170087142Y-76112619D01*
X170468095Y-76112619D02*
X170515714Y-76065000D01*
X170610952Y-76017380D01*
X170849047Y-76017380D01*
X170944285Y-76065000D01*
X170991904Y-76112619D01*
X171039523Y-76207857D01*
X171039523Y-76303095D01*
X170991904Y-76445952D01*
X170420476Y-77017380D01*
X171039523Y-77017380D01*
X171991904Y-77017380D02*
X171420476Y-77017380D01*
X171706190Y-77017380D02*
X171706190Y-76017380D01*
X171610952Y-76160238D01*
X171515714Y-76255476D01*
X171420476Y-76303095D01*
X99653142Y-56502857D02*
X99700761Y-56550476D01*
X99748380Y-56693333D01*
X99748380Y-56788571D01*
X99700761Y-56931428D01*
X99605523Y-57026666D01*
X99510285Y-57074285D01*
X99319809Y-57121904D01*
X99176952Y-57121904D01*
X98986476Y-57074285D01*
X98891238Y-57026666D01*
X98796000Y-56931428D01*
X98748380Y-56788571D01*
X98748380Y-56693333D01*
X98796000Y-56550476D01*
X98843619Y-56502857D01*
X98843619Y-56121904D02*
X98796000Y-56074285D01*
X98748380Y-55979047D01*
X98748380Y-55740952D01*
X98796000Y-55645714D01*
X98843619Y-55598095D01*
X98938857Y-55550476D01*
X99034095Y-55550476D01*
X99176952Y-55598095D01*
X99748380Y-56169523D01*
X99748380Y-55550476D01*
X98748380Y-54931428D02*
X98748380Y-54836190D01*
X98796000Y-54740952D01*
X98843619Y-54693333D01*
X98938857Y-54645714D01*
X99129333Y-54598095D01*
X99367428Y-54598095D01*
X99557904Y-54645714D01*
X99653142Y-54693333D01*
X99700761Y-54740952D01*
X99748380Y-54836190D01*
X99748380Y-54931428D01*
X99700761Y-55026666D01*
X99653142Y-55074285D01*
X99557904Y-55121904D01*
X99367428Y-55169523D01*
X99129333Y-55169523D01*
X98938857Y-55121904D01*
X98843619Y-55074285D01*
X98796000Y-55026666D01*
X98748380Y-54931428D01*
X170087142Y-73772142D02*
X170039523Y-73819761D01*
X169896666Y-73867380D01*
X169801428Y-73867380D01*
X169658571Y-73819761D01*
X169563333Y-73724523D01*
X169515714Y-73629285D01*
X169468095Y-73438809D01*
X169468095Y-73295952D01*
X169515714Y-73105476D01*
X169563333Y-73010238D01*
X169658571Y-72915000D01*
X169801428Y-72867380D01*
X169896666Y-72867380D01*
X170039523Y-72915000D01*
X170087142Y-72962619D01*
X171039523Y-73867380D02*
X170468095Y-73867380D01*
X170753809Y-73867380D02*
X170753809Y-72867380D01*
X170658571Y-73010238D01*
X170563333Y-73105476D01*
X170468095Y-73153095D01*
X171515714Y-73867380D02*
X171706190Y-73867380D01*
X171801428Y-73819761D01*
X171849047Y-73772142D01*
X171944285Y-73629285D01*
X171991904Y-73438809D01*
X171991904Y-73057857D01*
X171944285Y-72962619D01*
X171896666Y-72915000D01*
X171801428Y-72867380D01*
X171610952Y-72867380D01*
X171515714Y-72915000D01*
X171468095Y-72962619D01*
X171420476Y-73057857D01*
X171420476Y-73295952D01*
X171468095Y-73391190D01*
X171515714Y-73438809D01*
X171610952Y-73486428D01*
X171801428Y-73486428D01*
X171896666Y-73438809D01*
X171944285Y-73391190D01*
X171991904Y-73295952D01*
X181387142Y-64322142D02*
X181339523Y-64369761D01*
X181196666Y-64417380D01*
X181101428Y-64417380D01*
X180958571Y-64369761D01*
X180863333Y-64274523D01*
X180815714Y-64179285D01*
X180768095Y-63988809D01*
X180768095Y-63845952D01*
X180815714Y-63655476D01*
X180863333Y-63560238D01*
X180958571Y-63465000D01*
X181101428Y-63417380D01*
X181196666Y-63417380D01*
X181339523Y-63465000D01*
X181387142Y-63512619D01*
X182339523Y-64417380D02*
X181768095Y-64417380D01*
X182053809Y-64417380D02*
X182053809Y-63417380D01*
X181958571Y-63560238D01*
X181863333Y-63655476D01*
X181768095Y-63703095D01*
X182910952Y-63845952D02*
X182815714Y-63798333D01*
X182768095Y-63750714D01*
X182720476Y-63655476D01*
X182720476Y-63607857D01*
X182768095Y-63512619D01*
X182815714Y-63465000D01*
X182910952Y-63417380D01*
X183101428Y-63417380D01*
X183196666Y-63465000D01*
X183244285Y-63512619D01*
X183291904Y-63607857D01*
X183291904Y-63655476D01*
X183244285Y-63750714D01*
X183196666Y-63798333D01*
X183101428Y-63845952D01*
X182910952Y-63845952D01*
X182815714Y-63893571D01*
X182768095Y-63941190D01*
X182720476Y-64036428D01*
X182720476Y-64226904D01*
X182768095Y-64322142D01*
X182815714Y-64369761D01*
X182910952Y-64417380D01*
X183101428Y-64417380D01*
X183196666Y-64369761D01*
X183244285Y-64322142D01*
X183291904Y-64226904D01*
X183291904Y-64036428D01*
X183244285Y-63941190D01*
X183196666Y-63893571D01*
X183101428Y-63845952D01*
X175737142Y-67472142D02*
X175689523Y-67519761D01*
X175546666Y-67567380D01*
X175451428Y-67567380D01*
X175308571Y-67519761D01*
X175213333Y-67424523D01*
X175165714Y-67329285D01*
X175118095Y-67138809D01*
X175118095Y-66995952D01*
X175165714Y-66805476D01*
X175213333Y-66710238D01*
X175308571Y-66615000D01*
X175451428Y-66567380D01*
X175546666Y-66567380D01*
X175689523Y-66615000D01*
X175737142Y-66662619D01*
X176689523Y-67567380D02*
X176118095Y-67567380D01*
X176403809Y-67567380D02*
X176403809Y-66567380D01*
X176308571Y-66710238D01*
X176213333Y-66805476D01*
X176118095Y-66853095D01*
X177022857Y-66567380D02*
X177689523Y-66567380D01*
X177260952Y-67567380D01*
X170087142Y-70622142D02*
X170039523Y-70669761D01*
X169896666Y-70717380D01*
X169801428Y-70717380D01*
X169658571Y-70669761D01*
X169563333Y-70574523D01*
X169515714Y-70479285D01*
X169468095Y-70288809D01*
X169468095Y-70145952D01*
X169515714Y-69955476D01*
X169563333Y-69860238D01*
X169658571Y-69765000D01*
X169801428Y-69717380D01*
X169896666Y-69717380D01*
X170039523Y-69765000D01*
X170087142Y-69812619D01*
X171039523Y-70717380D02*
X170468095Y-70717380D01*
X170753809Y-70717380D02*
X170753809Y-69717380D01*
X170658571Y-69860238D01*
X170563333Y-69955476D01*
X170468095Y-70003095D01*
X171896666Y-69717380D02*
X171706190Y-69717380D01*
X171610952Y-69765000D01*
X171563333Y-69812619D01*
X171468095Y-69955476D01*
X171420476Y-70145952D01*
X171420476Y-70526904D01*
X171468095Y-70622142D01*
X171515714Y-70669761D01*
X171610952Y-70717380D01*
X171801428Y-70717380D01*
X171896666Y-70669761D01*
X171944285Y-70622142D01*
X171991904Y-70526904D01*
X171991904Y-70288809D01*
X171944285Y-70193571D01*
X171896666Y-70145952D01*
X171801428Y-70098333D01*
X171610952Y-70098333D01*
X171515714Y-70145952D01*
X171468095Y-70193571D01*
X171420476Y-70288809D01*
X164437142Y-76922142D02*
X164389523Y-76969761D01*
X164246666Y-77017380D01*
X164151428Y-77017380D01*
X164008571Y-76969761D01*
X163913333Y-76874523D01*
X163865714Y-76779285D01*
X163818095Y-76588809D01*
X163818095Y-76445952D01*
X163865714Y-76255476D01*
X163913333Y-76160238D01*
X164008571Y-76065000D01*
X164151428Y-76017380D01*
X164246666Y-76017380D01*
X164389523Y-76065000D01*
X164437142Y-76112619D01*
X165389523Y-77017380D02*
X164818095Y-77017380D01*
X165103809Y-77017380D02*
X165103809Y-76017380D01*
X165008571Y-76160238D01*
X164913333Y-76255476D01*
X164818095Y-76303095D01*
X166294285Y-76017380D02*
X165818095Y-76017380D01*
X165770476Y-76493571D01*
X165818095Y-76445952D01*
X165913333Y-76398333D01*
X166151428Y-76398333D01*
X166246666Y-76445952D01*
X166294285Y-76493571D01*
X166341904Y-76588809D01*
X166341904Y-76826904D01*
X166294285Y-76922142D01*
X166246666Y-76969761D01*
X166151428Y-77017380D01*
X165913333Y-77017380D01*
X165818095Y-76969761D01*
X165770476Y-76922142D01*
X181387142Y-61172142D02*
X181339523Y-61219761D01*
X181196666Y-61267380D01*
X181101428Y-61267380D01*
X180958571Y-61219761D01*
X180863333Y-61124523D01*
X180815714Y-61029285D01*
X180768095Y-60838809D01*
X180768095Y-60695952D01*
X180815714Y-60505476D01*
X180863333Y-60410238D01*
X180958571Y-60315000D01*
X181101428Y-60267380D01*
X181196666Y-60267380D01*
X181339523Y-60315000D01*
X181387142Y-60362619D01*
X182339523Y-61267380D02*
X181768095Y-61267380D01*
X182053809Y-61267380D02*
X182053809Y-60267380D01*
X181958571Y-60410238D01*
X181863333Y-60505476D01*
X181768095Y-60553095D01*
X183196666Y-60600714D02*
X183196666Y-61267380D01*
X182958571Y-60219761D02*
X182720476Y-60934047D01*
X183339523Y-60934047D01*
X164437142Y-73772142D02*
X164389523Y-73819761D01*
X164246666Y-73867380D01*
X164151428Y-73867380D01*
X164008571Y-73819761D01*
X163913333Y-73724523D01*
X163865714Y-73629285D01*
X163818095Y-73438809D01*
X163818095Y-73295952D01*
X163865714Y-73105476D01*
X163913333Y-73010238D01*
X164008571Y-72915000D01*
X164151428Y-72867380D01*
X164246666Y-72867380D01*
X164389523Y-72915000D01*
X164437142Y-72962619D01*
X165389523Y-73867380D02*
X164818095Y-73867380D01*
X165103809Y-73867380D02*
X165103809Y-72867380D01*
X165008571Y-73010238D01*
X164913333Y-73105476D01*
X164818095Y-73153095D01*
X165722857Y-72867380D02*
X166341904Y-72867380D01*
X166008571Y-73248333D01*
X166151428Y-73248333D01*
X166246666Y-73295952D01*
X166294285Y-73343571D01*
X166341904Y-73438809D01*
X166341904Y-73676904D01*
X166294285Y-73772142D01*
X166246666Y-73819761D01*
X166151428Y-73867380D01*
X165865714Y-73867380D01*
X165770476Y-73819761D01*
X165722857Y-73772142D01*
X175737142Y-64322142D02*
X175689523Y-64369761D01*
X175546666Y-64417380D01*
X175451428Y-64417380D01*
X175308571Y-64369761D01*
X175213333Y-64274523D01*
X175165714Y-64179285D01*
X175118095Y-63988809D01*
X175118095Y-63845952D01*
X175165714Y-63655476D01*
X175213333Y-63560238D01*
X175308571Y-63465000D01*
X175451428Y-63417380D01*
X175546666Y-63417380D01*
X175689523Y-63465000D01*
X175737142Y-63512619D01*
X176689523Y-64417380D02*
X176118095Y-64417380D01*
X176403809Y-64417380D02*
X176403809Y-63417380D01*
X176308571Y-63560238D01*
X176213333Y-63655476D01*
X176118095Y-63703095D01*
X177070476Y-63512619D02*
X177118095Y-63465000D01*
X177213333Y-63417380D01*
X177451428Y-63417380D01*
X177546666Y-63465000D01*
X177594285Y-63512619D01*
X177641904Y-63607857D01*
X177641904Y-63703095D01*
X177594285Y-63845952D01*
X177022857Y-64417380D01*
X177641904Y-64417380D01*
X170087142Y-67472142D02*
X170039523Y-67519761D01*
X169896666Y-67567380D01*
X169801428Y-67567380D01*
X169658571Y-67519761D01*
X169563333Y-67424523D01*
X169515714Y-67329285D01*
X169468095Y-67138809D01*
X169468095Y-66995952D01*
X169515714Y-66805476D01*
X169563333Y-66710238D01*
X169658571Y-66615000D01*
X169801428Y-66567380D01*
X169896666Y-66567380D01*
X170039523Y-66615000D01*
X170087142Y-66662619D01*
X171039523Y-67567380D02*
X170468095Y-67567380D01*
X170753809Y-67567380D02*
X170753809Y-66567380D01*
X170658571Y-66710238D01*
X170563333Y-66805476D01*
X170468095Y-66853095D01*
X171991904Y-67567380D02*
X171420476Y-67567380D01*
X171706190Y-67567380D02*
X171706190Y-66567380D01*
X171610952Y-66710238D01*
X171515714Y-66805476D01*
X171420476Y-66853095D01*
X164437142Y-70622142D02*
X164389523Y-70669761D01*
X164246666Y-70717380D01*
X164151428Y-70717380D01*
X164008571Y-70669761D01*
X163913333Y-70574523D01*
X163865714Y-70479285D01*
X163818095Y-70288809D01*
X163818095Y-70145952D01*
X163865714Y-69955476D01*
X163913333Y-69860238D01*
X164008571Y-69765000D01*
X164151428Y-69717380D01*
X164246666Y-69717380D01*
X164389523Y-69765000D01*
X164437142Y-69812619D01*
X165389523Y-70717380D02*
X164818095Y-70717380D01*
X165103809Y-70717380D02*
X165103809Y-69717380D01*
X165008571Y-69860238D01*
X164913333Y-69955476D01*
X164818095Y-70003095D01*
X166008571Y-69717380D02*
X166103809Y-69717380D01*
X166199047Y-69765000D01*
X166246666Y-69812619D01*
X166294285Y-69907857D01*
X166341904Y-70098333D01*
X166341904Y-70336428D01*
X166294285Y-70526904D01*
X166246666Y-70622142D01*
X166199047Y-70669761D01*
X166103809Y-70717380D01*
X166008571Y-70717380D01*
X165913333Y-70669761D01*
X165865714Y-70622142D01*
X165818095Y-70526904D01*
X165770476Y-70336428D01*
X165770476Y-70098333D01*
X165818095Y-69907857D01*
X165865714Y-69812619D01*
X165913333Y-69765000D01*
X166008571Y-69717380D01*
X176213333Y-61172142D02*
X176165714Y-61219761D01*
X176022857Y-61267380D01*
X175927619Y-61267380D01*
X175784761Y-61219761D01*
X175689523Y-61124523D01*
X175641904Y-61029285D01*
X175594285Y-60838809D01*
X175594285Y-60695952D01*
X175641904Y-60505476D01*
X175689523Y-60410238D01*
X175784761Y-60315000D01*
X175927619Y-60267380D01*
X176022857Y-60267380D01*
X176165714Y-60315000D01*
X176213333Y-60362619D01*
X176689523Y-61267380D02*
X176880000Y-61267380D01*
X176975238Y-61219761D01*
X177022857Y-61172142D01*
X177118095Y-61029285D01*
X177165714Y-60838809D01*
X177165714Y-60457857D01*
X177118095Y-60362619D01*
X177070476Y-60315000D01*
X176975238Y-60267380D01*
X176784761Y-60267380D01*
X176689523Y-60315000D01*
X176641904Y-60362619D01*
X176594285Y-60457857D01*
X176594285Y-60695952D01*
X176641904Y-60791190D01*
X176689523Y-60838809D01*
X176784761Y-60886428D01*
X176975238Y-60886428D01*
X177070476Y-60838809D01*
X177118095Y-60791190D01*
X177165714Y-60695952D01*
X170563333Y-64322142D02*
X170515714Y-64369761D01*
X170372857Y-64417380D01*
X170277619Y-64417380D01*
X170134761Y-64369761D01*
X170039523Y-64274523D01*
X169991904Y-64179285D01*
X169944285Y-63988809D01*
X169944285Y-63845952D01*
X169991904Y-63655476D01*
X170039523Y-63560238D01*
X170134761Y-63465000D01*
X170277619Y-63417380D01*
X170372857Y-63417380D01*
X170515714Y-63465000D01*
X170563333Y-63512619D01*
X171134761Y-63845952D02*
X171039523Y-63798333D01*
X170991904Y-63750714D01*
X170944285Y-63655476D01*
X170944285Y-63607857D01*
X170991904Y-63512619D01*
X171039523Y-63465000D01*
X171134761Y-63417380D01*
X171325238Y-63417380D01*
X171420476Y-63465000D01*
X171468095Y-63512619D01*
X171515714Y-63607857D01*
X171515714Y-63655476D01*
X171468095Y-63750714D01*
X171420476Y-63798333D01*
X171325238Y-63845952D01*
X171134761Y-63845952D01*
X171039523Y-63893571D01*
X170991904Y-63941190D01*
X170944285Y-64036428D01*
X170944285Y-64226904D01*
X170991904Y-64322142D01*
X171039523Y-64369761D01*
X171134761Y-64417380D01*
X171325238Y-64417380D01*
X171420476Y-64369761D01*
X171468095Y-64322142D01*
X171515714Y-64226904D01*
X171515714Y-64036428D01*
X171468095Y-63941190D01*
X171420476Y-63893571D01*
X171325238Y-63845952D01*
X164913333Y-67472142D02*
X164865714Y-67519761D01*
X164722857Y-67567380D01*
X164627619Y-67567380D01*
X164484761Y-67519761D01*
X164389523Y-67424523D01*
X164341904Y-67329285D01*
X164294285Y-67138809D01*
X164294285Y-66995952D01*
X164341904Y-66805476D01*
X164389523Y-66710238D01*
X164484761Y-66615000D01*
X164627619Y-66567380D01*
X164722857Y-66567380D01*
X164865714Y-66615000D01*
X164913333Y-66662619D01*
X165246666Y-66567380D02*
X165913333Y-66567380D01*
X165484761Y-67567380D01*
X170563333Y-61172142D02*
X170515714Y-61219761D01*
X170372857Y-61267380D01*
X170277619Y-61267380D01*
X170134761Y-61219761D01*
X170039523Y-61124523D01*
X169991904Y-61029285D01*
X169944285Y-60838809D01*
X169944285Y-60695952D01*
X169991904Y-60505476D01*
X170039523Y-60410238D01*
X170134761Y-60315000D01*
X170277619Y-60267380D01*
X170372857Y-60267380D01*
X170515714Y-60315000D01*
X170563333Y-60362619D01*
X171420476Y-60267380D02*
X171230000Y-60267380D01*
X171134761Y-60315000D01*
X171087142Y-60362619D01*
X170991904Y-60505476D01*
X170944285Y-60695952D01*
X170944285Y-61076904D01*
X170991904Y-61172142D01*
X171039523Y-61219761D01*
X171134761Y-61267380D01*
X171325238Y-61267380D01*
X171420476Y-61219761D01*
X171468095Y-61172142D01*
X171515714Y-61076904D01*
X171515714Y-60838809D01*
X171468095Y-60743571D01*
X171420476Y-60695952D01*
X171325238Y-60648333D01*
X171134761Y-60648333D01*
X171039523Y-60695952D01*
X170991904Y-60743571D01*
X170944285Y-60838809D01*
X164913333Y-64322142D02*
X164865714Y-64369761D01*
X164722857Y-64417380D01*
X164627619Y-64417380D01*
X164484761Y-64369761D01*
X164389523Y-64274523D01*
X164341904Y-64179285D01*
X164294285Y-63988809D01*
X164294285Y-63845952D01*
X164341904Y-63655476D01*
X164389523Y-63560238D01*
X164484761Y-63465000D01*
X164627619Y-63417380D01*
X164722857Y-63417380D01*
X164865714Y-63465000D01*
X164913333Y-63512619D01*
X165818095Y-63417380D02*
X165341904Y-63417380D01*
X165294285Y-63893571D01*
X165341904Y-63845952D01*
X165437142Y-63798333D01*
X165675238Y-63798333D01*
X165770476Y-63845952D01*
X165818095Y-63893571D01*
X165865714Y-63988809D01*
X165865714Y-64226904D01*
X165818095Y-64322142D01*
X165770476Y-64369761D01*
X165675238Y-64417380D01*
X165437142Y-64417380D01*
X165341904Y-64369761D01*
X165294285Y-64322142D01*
X164913333Y-61172142D02*
X164865714Y-61219761D01*
X164722857Y-61267380D01*
X164627619Y-61267380D01*
X164484761Y-61219761D01*
X164389523Y-61124523D01*
X164341904Y-61029285D01*
X164294285Y-60838809D01*
X164294285Y-60695952D01*
X164341904Y-60505476D01*
X164389523Y-60410238D01*
X164484761Y-60315000D01*
X164627619Y-60267380D01*
X164722857Y-60267380D01*
X164865714Y-60315000D01*
X164913333Y-60362619D01*
X165770476Y-60600714D02*
X165770476Y-61267380D01*
X165532380Y-60219761D02*
X165294285Y-60934047D01*
X165913333Y-60934047D01*
X73068380Y-132206904D02*
X73877904Y-132206904D01*
X73973142Y-132159285D01*
X74020761Y-132111666D01*
X74068380Y-132016428D01*
X74068380Y-131825952D01*
X74020761Y-131730714D01*
X73973142Y-131683095D01*
X73877904Y-131635476D01*
X73068380Y-131635476D01*
X74068380Y-130635476D02*
X74068380Y-131206904D01*
X74068380Y-130921190D02*
X73068380Y-130921190D01*
X73211238Y-131016428D01*
X73306476Y-131111666D01*
X73354095Y-131206904D01*
X75227380Y-33877095D02*
X76036904Y-33877095D01*
X76132142Y-33829476D01*
X76179761Y-33781857D01*
X76227380Y-33686619D01*
X76227380Y-33496142D01*
X76179761Y-33400904D01*
X76132142Y-33353285D01*
X76036904Y-33305666D01*
X75227380Y-33305666D01*
X75322619Y-32877095D02*
X75275000Y-32829476D01*
X75227380Y-32734238D01*
X75227380Y-32496142D01*
X75275000Y-32400904D01*
X75322619Y-32353285D01*
X75417857Y-32305666D01*
X75513095Y-32305666D01*
X75655952Y-32353285D01*
X76227380Y-32924714D01*
X76227380Y-32305666D01*
X75227380Y-31686619D02*
X75227380Y-31591380D01*
X75275000Y-31496142D01*
X75322619Y-31448523D01*
X75417857Y-31400904D01*
X75608333Y-31353285D01*
X75846428Y-31353285D01*
X76036904Y-31400904D01*
X76132142Y-31448523D01*
X76179761Y-31496142D01*
X76227380Y-31591380D01*
X76227380Y-31686619D01*
X76179761Y-31781857D01*
X76132142Y-31829476D01*
X76036904Y-31877095D01*
X75846428Y-31924714D01*
X75608333Y-31924714D01*
X75417857Y-31877095D01*
X75322619Y-31829476D01*
X75275000Y-31781857D01*
X75227380Y-31686619D01*
X72687380Y-116808095D02*
X73496904Y-116808095D01*
X73592142Y-116760476D01*
X73639761Y-116712857D01*
X73687380Y-116617619D01*
X73687380Y-116427142D01*
X73639761Y-116331904D01*
X73592142Y-116284285D01*
X73496904Y-116236666D01*
X72687380Y-116236666D01*
X73687380Y-115236666D02*
X73687380Y-115808095D01*
X73687380Y-115522380D02*
X72687380Y-115522380D01*
X72830238Y-115617619D01*
X72925476Y-115712857D01*
X72973095Y-115808095D01*
X72687380Y-114903333D02*
X72687380Y-114236666D01*
X73687380Y-114665238D01*
X73068380Y-80613095D02*
X73877904Y-80613095D01*
X73973142Y-80565476D01*
X74020761Y-80517857D01*
X74068380Y-80422619D01*
X74068380Y-80232142D01*
X74020761Y-80136904D01*
X73973142Y-80089285D01*
X73877904Y-80041666D01*
X73068380Y-80041666D01*
X74068380Y-79041666D02*
X74068380Y-79613095D01*
X74068380Y-79327380D02*
X73068380Y-79327380D01*
X73211238Y-79422619D01*
X73306476Y-79517857D01*
X73354095Y-79613095D01*
X73068380Y-78184523D02*
X73068380Y-78375000D01*
X73116000Y-78470238D01*
X73163619Y-78517857D01*
X73306476Y-78613095D01*
X73496952Y-78660714D01*
X73877904Y-78660714D01*
X73973142Y-78613095D01*
X74020761Y-78565476D01*
X74068380Y-78470238D01*
X74068380Y-78279761D01*
X74020761Y-78184523D01*
X73973142Y-78136904D01*
X73877904Y-78089285D01*
X73639809Y-78089285D01*
X73544571Y-78136904D01*
X73496952Y-78184523D01*
X73449333Y-78279761D01*
X73449333Y-78470238D01*
X73496952Y-78565476D01*
X73544571Y-78613095D01*
X73639809Y-78660714D01*
X72687380Y-105536904D02*
X73496904Y-105536904D01*
X73592142Y-105489285D01*
X73639761Y-105441666D01*
X73687380Y-105346428D01*
X73687380Y-105155952D01*
X73639761Y-105060714D01*
X73592142Y-105013095D01*
X73496904Y-104965476D01*
X72687380Y-104965476D01*
X72687380Y-104060714D02*
X72687380Y-104251190D01*
X72735000Y-104346428D01*
X72782619Y-104394047D01*
X72925476Y-104489285D01*
X73115952Y-104536904D01*
X73496904Y-104536904D01*
X73592142Y-104489285D01*
X73639761Y-104441666D01*
X73687380Y-104346428D01*
X73687380Y-104155952D01*
X73639761Y-104060714D01*
X73592142Y-104013095D01*
X73496904Y-103965476D01*
X73258809Y-103965476D01*
X73163571Y-104013095D01*
X73115952Y-104060714D01*
X73068333Y-104155952D01*
X73068333Y-104346428D01*
X73115952Y-104441666D01*
X73163571Y-104489285D01*
X73258809Y-104536904D01*
X74068380Y-91146190D02*
X73068380Y-91146190D01*
X73973142Y-90098571D02*
X74020761Y-90146190D01*
X74068380Y-90289047D01*
X74068380Y-90384285D01*
X74020761Y-90527142D01*
X73925523Y-90622380D01*
X73830285Y-90670000D01*
X73639809Y-90717619D01*
X73496952Y-90717619D01*
X73306476Y-90670000D01*
X73211238Y-90622380D01*
X73116000Y-90527142D01*
X73068380Y-90384285D01*
X73068380Y-90289047D01*
X73116000Y-90146190D01*
X73163619Y-90098571D01*
X73401714Y-89241428D02*
X74068380Y-89241428D01*
X73020761Y-89479523D02*
X73735047Y-89717619D01*
X73735047Y-89098571D01*
X23677666Y-134282380D02*
X23677666Y-134996666D01*
X23630047Y-135139523D01*
X23534809Y-135234761D01*
X23391952Y-135282380D01*
X23296714Y-135282380D01*
X24153857Y-135282380D02*
X24153857Y-134282380D01*
X24534809Y-134282380D01*
X24630047Y-134330000D01*
X24677666Y-134377619D01*
X24725285Y-134472857D01*
X24725285Y-134615714D01*
X24677666Y-134710952D01*
X24630047Y-134758571D01*
X24534809Y-134806190D01*
X24153857Y-134806190D01*
X25677666Y-135282380D02*
X25106238Y-135282380D01*
X25391952Y-135282380D02*
X25391952Y-134282380D01*
X25296714Y-134425238D01*
X25201476Y-134520476D01*
X25106238Y-134568095D01*
X65087666Y-145184761D02*
X65230523Y-145232380D01*
X65468619Y-145232380D01*
X65563857Y-145184761D01*
X65611476Y-145137142D01*
X65659095Y-145041904D01*
X65659095Y-144946666D01*
X65611476Y-144851428D01*
X65563857Y-144803809D01*
X65468619Y-144756190D01*
X65278142Y-144708571D01*
X65182904Y-144660952D01*
X65135285Y-144613333D01*
X65087666Y-144518095D01*
X65087666Y-144422857D01*
X65135285Y-144327619D01*
X65182904Y-144280000D01*
X65278142Y-144232380D01*
X65516238Y-144232380D01*
X65659095Y-144280000D01*
X65992428Y-144232380D02*
X66230523Y-145232380D01*
X66421000Y-144518095D01*
X66611476Y-145232380D01*
X66849571Y-144232380D01*
X67182904Y-144327619D02*
X67230523Y-144280000D01*
X67325761Y-144232380D01*
X67563857Y-144232380D01*
X67659095Y-144280000D01*
X67706714Y-144327619D01*
X67754333Y-144422857D01*
X67754333Y-144518095D01*
X67706714Y-144660952D01*
X67135285Y-145232380D01*
X67754333Y-145232380D01*
X136096476Y-75247380D02*
X136096476Y-75961666D01*
X136048857Y-76104523D01*
X135953619Y-76199761D01*
X135810761Y-76247380D01*
X135715523Y-76247380D01*
X137096476Y-76247380D02*
X136525047Y-76247380D01*
X136810761Y-76247380D02*
X136810761Y-75247380D01*
X136715523Y-75390238D01*
X136620285Y-75485476D01*
X136525047Y-75533095D01*
X137715523Y-75247380D02*
X137810761Y-75247380D01*
X137906000Y-75295000D01*
X137953619Y-75342619D01*
X138001238Y-75437857D01*
X138048857Y-75628333D01*
X138048857Y-75866428D01*
X138001238Y-76056904D01*
X137953619Y-76152142D01*
X137906000Y-76199761D01*
X137810761Y-76247380D01*
X137715523Y-76247380D01*
X137620285Y-76199761D01*
X137572666Y-76152142D01*
X137525047Y-76056904D01*
X137477428Y-75866428D01*
X137477428Y-75628333D01*
X137525047Y-75437857D01*
X137572666Y-75342619D01*
X137620285Y-75295000D01*
X137715523Y-75247380D01*
X136572666Y-48831380D02*
X136572666Y-49545666D01*
X136525047Y-49688523D01*
X136429809Y-49783761D01*
X136286952Y-49831380D01*
X136191714Y-49831380D01*
X136953619Y-48831380D02*
X137620285Y-48831380D01*
X137191714Y-49831380D01*
X144192666Y-101917380D02*
X144192666Y-102631666D01*
X144145047Y-102774523D01*
X144049809Y-102869761D01*
X143906952Y-102917380D01*
X143811714Y-102917380D01*
X145145047Y-101917380D02*
X144668857Y-101917380D01*
X144621238Y-102393571D01*
X144668857Y-102345952D01*
X144764095Y-102298333D01*
X145002190Y-102298333D01*
X145097428Y-102345952D01*
X145145047Y-102393571D01*
X145192666Y-102488809D01*
X145192666Y-102726904D01*
X145145047Y-102822142D01*
X145097428Y-102869761D01*
X145002190Y-102917380D01*
X144764095Y-102917380D01*
X144668857Y-102869761D01*
X144621238Y-102822142D01*
X144192666Y-75247380D02*
X144192666Y-75961666D01*
X144145047Y-76104523D01*
X144049809Y-76199761D01*
X143906952Y-76247380D01*
X143811714Y-76247380D01*
X145097428Y-75580714D02*
X145097428Y-76247380D01*
X144859333Y-75199761D02*
X144621238Y-75914047D01*
X145240285Y-75914047D01*
X22458880Y-39211095D02*
X23268404Y-39211095D01*
X23363642Y-39163476D01*
X23411261Y-39115857D01*
X23458880Y-39020619D01*
X23458880Y-38830142D01*
X23411261Y-38734904D01*
X23363642Y-38687285D01*
X23268404Y-38639666D01*
X22458880Y-38639666D01*
X22554119Y-38211095D02*
X22506500Y-38163476D01*
X22458880Y-38068238D01*
X22458880Y-37830142D01*
X22506500Y-37734904D01*
X22554119Y-37687285D01*
X22649357Y-37639666D01*
X22744595Y-37639666D01*
X22887452Y-37687285D01*
X23458880Y-38258714D01*
X23458880Y-37639666D01*
X22792214Y-36782523D02*
X23458880Y-36782523D01*
X22411261Y-37020619D02*
X23125547Y-37258714D01*
X23125547Y-36639666D01*
X47287380Y-39211095D02*
X48096904Y-39211095D01*
X48192142Y-39163476D01*
X48239761Y-39115857D01*
X48287380Y-39020619D01*
X48287380Y-38830142D01*
X48239761Y-38734904D01*
X48192142Y-38687285D01*
X48096904Y-38639666D01*
X47287380Y-38639666D01*
X47382619Y-38211095D02*
X47335000Y-38163476D01*
X47287380Y-38068238D01*
X47287380Y-37830142D01*
X47335000Y-37734904D01*
X47382619Y-37687285D01*
X47477857Y-37639666D01*
X47573095Y-37639666D01*
X47715952Y-37687285D01*
X48287380Y-38258714D01*
X48287380Y-37639666D01*
X47287380Y-37306333D02*
X47287380Y-36687285D01*
X47668333Y-37020619D01*
X47668333Y-36877761D01*
X47715952Y-36782523D01*
X47763571Y-36734904D01*
X47858809Y-36687285D01*
X48096904Y-36687285D01*
X48192142Y-36734904D01*
X48239761Y-36782523D01*
X48287380Y-36877761D01*
X48287380Y-37163476D01*
X48239761Y-37258714D01*
X48192142Y-37306333D01*
X22268380Y-29178095D02*
X23077904Y-29178095D01*
X23173142Y-29130476D01*
X23220761Y-29082857D01*
X23268380Y-28987619D01*
X23268380Y-28797142D01*
X23220761Y-28701904D01*
X23173142Y-28654285D01*
X23077904Y-28606666D01*
X22268380Y-28606666D01*
X22363619Y-28178095D02*
X22316000Y-28130476D01*
X22268380Y-28035238D01*
X22268380Y-27797142D01*
X22316000Y-27701904D01*
X22363619Y-27654285D01*
X22458857Y-27606666D01*
X22554095Y-27606666D01*
X22696952Y-27654285D01*
X23268380Y-28225714D01*
X23268380Y-27606666D01*
X23268380Y-26654285D02*
X23268380Y-27225714D01*
X23268380Y-26940000D02*
X22268380Y-26940000D01*
X22411238Y-27035238D01*
X22506476Y-27130476D01*
X22554095Y-27225714D01*
X110140904Y-98595380D02*
X110140904Y-99404904D01*
X110188523Y-99500142D01*
X110236142Y-99547761D01*
X110331380Y-99595380D01*
X110521857Y-99595380D01*
X110617095Y-99547761D01*
X110664714Y-99500142D01*
X110712333Y-99404904D01*
X110712333Y-98595380D01*
X111712333Y-99595380D02*
X111140904Y-99595380D01*
X111426619Y-99595380D02*
X111426619Y-98595380D01*
X111331380Y-98738238D01*
X111236142Y-98833476D01*
X111140904Y-98881095D01*
X112664714Y-99595380D02*
X112093285Y-99595380D01*
X112379000Y-99595380D02*
X112379000Y-98595380D01*
X112283761Y-98738238D01*
X112188523Y-98833476D01*
X112093285Y-98881095D01*
X123221904Y-98595380D02*
X123221904Y-99404904D01*
X123269523Y-99500142D01*
X123317142Y-99547761D01*
X123412380Y-99595380D01*
X123602857Y-99595380D01*
X123698095Y-99547761D01*
X123745714Y-99500142D01*
X123793333Y-99404904D01*
X123793333Y-98595380D01*
X124793333Y-99595380D02*
X124221904Y-99595380D01*
X124507619Y-99595380D02*
X124507619Y-98595380D01*
X124412380Y-98738238D01*
X124317142Y-98833476D01*
X124221904Y-98881095D01*
X125412380Y-98595380D02*
X125507619Y-98595380D01*
X125602857Y-98643000D01*
X125650476Y-98690619D01*
X125698095Y-98785857D01*
X125745714Y-98976333D01*
X125745714Y-99214428D01*
X125698095Y-99404904D01*
X125650476Y-99500142D01*
X125602857Y-99547761D01*
X125507619Y-99595380D01*
X125412380Y-99595380D01*
X125317142Y-99547761D01*
X125269523Y-99500142D01*
X125221904Y-99404904D01*
X125174285Y-99214428D01*
X125174285Y-98976333D01*
X125221904Y-98785857D01*
X125269523Y-98690619D01*
X125317142Y-98643000D01*
X125412380Y-98595380D01*
X136096476Y-128333380D02*
X136096476Y-129047666D01*
X136048857Y-129190523D01*
X135953619Y-129285761D01*
X135810761Y-129333380D01*
X135715523Y-129333380D01*
X137096476Y-129333380D02*
X136525047Y-129333380D01*
X136810761Y-129333380D02*
X136810761Y-128333380D01*
X136715523Y-128476238D01*
X136620285Y-128571476D01*
X136525047Y-128619095D01*
X138048857Y-129333380D02*
X137477428Y-129333380D01*
X137763142Y-129333380D02*
X137763142Y-128333380D01*
X137667904Y-128476238D01*
X137572666Y-128571476D01*
X137477428Y-128619095D01*
X144192666Y-128333380D02*
X144192666Y-129047666D01*
X144145047Y-129190523D01*
X144049809Y-129285761D01*
X143906952Y-129333380D01*
X143811714Y-129333380D01*
X144811714Y-128761952D02*
X144716476Y-128714333D01*
X144668857Y-128666714D01*
X144621238Y-128571476D01*
X144621238Y-128523857D01*
X144668857Y-128428619D01*
X144716476Y-128381000D01*
X144811714Y-128333380D01*
X145002190Y-128333380D01*
X145097428Y-128381000D01*
X145145047Y-128428619D01*
X145192666Y-128523857D01*
X145192666Y-128571476D01*
X145145047Y-128666714D01*
X145097428Y-128714333D01*
X145002190Y-128761952D01*
X144811714Y-128761952D01*
X144716476Y-128809571D01*
X144668857Y-128857190D01*
X144621238Y-128952428D01*
X144621238Y-129142904D01*
X144668857Y-129238142D01*
X144716476Y-129285761D01*
X144811714Y-129333380D01*
X145002190Y-129333380D01*
X145097428Y-129285761D01*
X145145047Y-129238142D01*
X145192666Y-129142904D01*
X145192666Y-128952428D01*
X145145047Y-128857190D01*
X145097428Y-128809571D01*
X145002190Y-128761952D01*
X136572666Y-101917380D02*
X136572666Y-102631666D01*
X136525047Y-102774523D01*
X136429809Y-102869761D01*
X136286952Y-102917380D01*
X136191714Y-102917380D01*
X137096476Y-102917380D02*
X137286952Y-102917380D01*
X137382190Y-102869761D01*
X137429809Y-102822142D01*
X137525047Y-102679285D01*
X137572666Y-102488809D01*
X137572666Y-102107857D01*
X137525047Y-102012619D01*
X137477428Y-101965000D01*
X137382190Y-101917380D01*
X137191714Y-101917380D01*
X137096476Y-101965000D01*
X137048857Y-102012619D01*
X137001238Y-102107857D01*
X137001238Y-102345952D01*
X137048857Y-102441190D01*
X137096476Y-102488809D01*
X137191714Y-102536428D01*
X137382190Y-102536428D01*
X137477428Y-102488809D01*
X137525047Y-102441190D01*
X137572666Y-102345952D01*
X22268380Y-85693095D02*
X23077904Y-85693095D01*
X23173142Y-85645476D01*
X23220761Y-85597857D01*
X23268380Y-85502619D01*
X23268380Y-85312142D01*
X23220761Y-85216904D01*
X23173142Y-85169285D01*
X23077904Y-85121666D01*
X22268380Y-85121666D01*
X23268380Y-84121666D02*
X23268380Y-84693095D01*
X23268380Y-84407380D02*
X22268380Y-84407380D01*
X22411238Y-84502619D01*
X22506476Y-84597857D01*
X22554095Y-84693095D01*
X23268380Y-83645476D02*
X23268380Y-83455000D01*
X23220761Y-83359761D01*
X23173142Y-83312142D01*
X23030285Y-83216904D01*
X22839809Y-83169285D01*
X22458857Y-83169285D01*
X22363619Y-83216904D01*
X22316000Y-83264523D01*
X22268380Y-83359761D01*
X22268380Y-83550238D01*
X22316000Y-83645476D01*
X22363619Y-83693095D01*
X22458857Y-83740714D01*
X22696952Y-83740714D01*
X22792190Y-83693095D01*
X22839809Y-83645476D01*
X22887428Y-83550238D01*
X22887428Y-83359761D01*
X22839809Y-83264523D01*
X22792190Y-83216904D01*
X22696952Y-83169285D01*
X74226380Y-65111190D02*
X73226380Y-65111190D01*
X74131142Y-64063571D02*
X74178761Y-64111190D01*
X74226380Y-64254047D01*
X74226380Y-64349285D01*
X74178761Y-64492142D01*
X74083523Y-64587380D01*
X73988285Y-64635000D01*
X73797809Y-64682619D01*
X73654952Y-64682619D01*
X73464476Y-64635000D01*
X73369238Y-64587380D01*
X73274000Y-64492142D01*
X73226380Y-64349285D01*
X73226380Y-64254047D01*
X73274000Y-64111190D01*
X73321619Y-64063571D01*
X73226380Y-63730238D02*
X73226380Y-63063571D01*
X74226380Y-63492142D01*
X74322380Y-54316190D02*
X73322380Y-54316190D01*
X74227142Y-53268571D02*
X74274761Y-53316190D01*
X74322380Y-53459047D01*
X74322380Y-53554285D01*
X74274761Y-53697142D01*
X74179523Y-53792380D01*
X74084285Y-53840000D01*
X73893809Y-53887619D01*
X73750952Y-53887619D01*
X73560476Y-53840000D01*
X73465238Y-53792380D01*
X73370000Y-53697142D01*
X73322380Y-53554285D01*
X73322380Y-53459047D01*
X73370000Y-53316190D01*
X73417619Y-53268571D01*
X74322380Y-52792380D02*
X74322380Y-52601904D01*
X74274761Y-52506666D01*
X74227142Y-52459047D01*
X74084285Y-52363809D01*
X73893809Y-52316190D01*
X73512857Y-52316190D01*
X73417619Y-52363809D01*
X73370000Y-52411428D01*
X73322380Y-52506666D01*
X73322380Y-52697142D01*
X73370000Y-52792380D01*
X73417619Y-52840000D01*
X73512857Y-52887619D01*
X73750952Y-52887619D01*
X73846190Y-52840000D01*
X73893809Y-52792380D01*
X73941428Y-52697142D01*
X73941428Y-52506666D01*
X73893809Y-52411428D01*
X73846190Y-52363809D01*
X73750952Y-52316190D01*
X22268380Y-54578095D02*
X23077904Y-54578095D01*
X23173142Y-54530476D01*
X23220761Y-54482857D01*
X23268380Y-54387619D01*
X23268380Y-54197142D01*
X23220761Y-54101904D01*
X23173142Y-54054285D01*
X23077904Y-54006666D01*
X22268380Y-54006666D01*
X23268380Y-53006666D02*
X23268380Y-53578095D01*
X23268380Y-53292380D02*
X22268380Y-53292380D01*
X22411238Y-53387619D01*
X22506476Y-53482857D01*
X22554095Y-53578095D01*
X22363619Y-52625714D02*
X22316000Y-52578095D01*
X22268380Y-52482857D01*
X22268380Y-52244761D01*
X22316000Y-52149523D01*
X22363619Y-52101904D01*
X22458857Y-52054285D01*
X22554095Y-52054285D01*
X22696952Y-52101904D01*
X23268380Y-52673333D01*
X23268380Y-52054285D01*
X22268380Y-65373095D02*
X23077904Y-65373095D01*
X23173142Y-65325476D01*
X23220761Y-65277857D01*
X23268380Y-65182619D01*
X23268380Y-64992142D01*
X23220761Y-64896904D01*
X23173142Y-64849285D01*
X23077904Y-64801666D01*
X22268380Y-64801666D01*
X23268380Y-63801666D02*
X23268380Y-64373095D01*
X23268380Y-64087380D02*
X22268380Y-64087380D01*
X22411238Y-64182619D01*
X22506476Y-64277857D01*
X22554095Y-64373095D01*
X22268380Y-63468333D02*
X22268380Y-62849285D01*
X22649333Y-63182619D01*
X22649333Y-63039761D01*
X22696952Y-62944523D01*
X22744571Y-62896904D01*
X22839809Y-62849285D01*
X23077904Y-62849285D01*
X23173142Y-62896904D01*
X23220761Y-62944523D01*
X23268380Y-63039761D01*
X23268380Y-63325476D01*
X23220761Y-63420714D01*
X23173142Y-63468333D01*
X22268380Y-75533095D02*
X23077904Y-75533095D01*
X23173142Y-75485476D01*
X23220761Y-75437857D01*
X23268380Y-75342619D01*
X23268380Y-75152142D01*
X23220761Y-75056904D01*
X23173142Y-75009285D01*
X23077904Y-74961666D01*
X22268380Y-74961666D01*
X23268380Y-73961666D02*
X23268380Y-74533095D01*
X23268380Y-74247380D02*
X22268380Y-74247380D01*
X22411238Y-74342619D01*
X22506476Y-74437857D01*
X22554095Y-74533095D01*
X22696952Y-73390238D02*
X22649333Y-73485476D01*
X22601714Y-73533095D01*
X22506476Y-73580714D01*
X22458857Y-73580714D01*
X22363619Y-73533095D01*
X22316000Y-73485476D01*
X22268380Y-73390238D01*
X22268380Y-73199761D01*
X22316000Y-73104523D01*
X22363619Y-73056904D01*
X22458857Y-73009285D01*
X22506476Y-73009285D01*
X22601714Y-73056904D01*
X22649333Y-73104523D01*
X22696952Y-73199761D01*
X22696952Y-73390238D01*
X22744571Y-73485476D01*
X22792190Y-73533095D01*
X22887428Y-73580714D01*
X23077904Y-73580714D01*
X23173142Y-73533095D01*
X23220761Y-73485476D01*
X23268380Y-73390238D01*
X23268380Y-73199761D01*
X23220761Y-73104523D01*
X23173142Y-73056904D01*
X23077904Y-73009285D01*
X22887428Y-73009285D01*
X22792190Y-73056904D01*
X22744571Y-73104523D01*
X22696952Y-73199761D01*
X47033380Y-29178095D02*
X47842904Y-29178095D01*
X47938142Y-29130476D01*
X47985761Y-29082857D01*
X48033380Y-28987619D01*
X48033380Y-28797142D01*
X47985761Y-28701904D01*
X47938142Y-28654285D01*
X47842904Y-28606666D01*
X47033380Y-28606666D01*
X47128619Y-28178095D02*
X47081000Y-28130476D01*
X47033380Y-28035238D01*
X47033380Y-27797142D01*
X47081000Y-27701904D01*
X47128619Y-27654285D01*
X47223857Y-27606666D01*
X47319095Y-27606666D01*
X47461952Y-27654285D01*
X48033380Y-28225714D01*
X48033380Y-27606666D01*
X47033380Y-26701904D02*
X47033380Y-27178095D01*
X47509571Y-27225714D01*
X47461952Y-27178095D01*
X47414333Y-27082857D01*
X47414333Y-26844761D01*
X47461952Y-26749523D01*
X47509571Y-26701904D01*
X47604809Y-26654285D01*
X47842904Y-26654285D01*
X47938142Y-26701904D01*
X47985761Y-26749523D01*
X48033380Y-26844761D01*
X48033380Y-27082857D01*
X47985761Y-27178095D01*
X47938142Y-27225714D01*
X144192666Y-48831380D02*
X144192666Y-49545666D01*
X144145047Y-49688523D01*
X144049809Y-49783761D01*
X143906952Y-49831380D01*
X143811714Y-49831380D01*
X145097428Y-48831380D02*
X144906952Y-48831380D01*
X144811714Y-48879000D01*
X144764095Y-48926619D01*
X144668857Y-49069476D01*
X144621238Y-49259952D01*
X144621238Y-49640904D01*
X144668857Y-49736142D01*
X144716476Y-49783761D01*
X144811714Y-49831380D01*
X145002190Y-49831380D01*
X145097428Y-49783761D01*
X145145047Y-49736142D01*
X145192666Y-49640904D01*
X145192666Y-49402809D01*
X145145047Y-49307571D01*
X145097428Y-49259952D01*
X145002190Y-49212333D01*
X144811714Y-49212333D01*
X144716476Y-49259952D01*
X144668857Y-49307571D01*
X144621238Y-49402809D01*
X25929333Y-102037380D02*
X25596000Y-101561190D01*
X25357904Y-102037380D02*
X25357904Y-101037380D01*
X25738857Y-101037380D01*
X25834095Y-101085000D01*
X25881714Y-101132619D01*
X25929333Y-101227857D01*
X25929333Y-101370714D01*
X25881714Y-101465952D01*
X25834095Y-101513571D01*
X25738857Y-101561190D01*
X25357904Y-101561190D01*
X26786476Y-101370714D02*
X26786476Y-102037380D01*
X26548380Y-100989761D02*
X26310285Y-101704047D01*
X26929333Y-101704047D01*
X25934333Y-105847380D02*
X25601000Y-105371190D01*
X25362904Y-105847380D02*
X25362904Y-104847380D01*
X25743857Y-104847380D01*
X25839095Y-104895000D01*
X25886714Y-104942619D01*
X25934333Y-105037857D01*
X25934333Y-105180714D01*
X25886714Y-105275952D01*
X25839095Y-105323571D01*
X25743857Y-105371190D01*
X25362904Y-105371190D01*
X26267666Y-104847380D02*
X26886714Y-104847380D01*
X26553380Y-105228333D01*
X26696238Y-105228333D01*
X26791476Y-105275952D01*
X26839095Y-105323571D01*
X26886714Y-105418809D01*
X26886714Y-105656904D01*
X26839095Y-105752142D01*
X26791476Y-105799761D01*
X26696238Y-105847380D01*
X26410523Y-105847380D01*
X26315285Y-105799761D01*
X26267666Y-105752142D01*
X25929333Y-98862380D02*
X25596000Y-98386190D01*
X25357904Y-98862380D02*
X25357904Y-97862380D01*
X25738857Y-97862380D01*
X25834095Y-97910000D01*
X25881714Y-97957619D01*
X25929333Y-98052857D01*
X25929333Y-98195714D01*
X25881714Y-98290952D01*
X25834095Y-98338571D01*
X25738857Y-98386190D01*
X25357904Y-98386190D01*
X26310285Y-97957619D02*
X26357904Y-97910000D01*
X26453142Y-97862380D01*
X26691238Y-97862380D01*
X26786476Y-97910000D01*
X26834095Y-97957619D01*
X26881714Y-98052857D01*
X26881714Y-98148095D01*
X26834095Y-98290952D01*
X26262666Y-98862380D01*
X26881714Y-98862380D01*
X104577380Y-69706666D02*
X104101190Y-70040000D01*
X104577380Y-70278095D02*
X103577380Y-70278095D01*
X103577380Y-69897142D01*
X103625000Y-69801904D01*
X103672619Y-69754285D01*
X103767857Y-69706666D01*
X103910714Y-69706666D01*
X104005952Y-69754285D01*
X104053571Y-69801904D01*
X104101190Y-69897142D01*
X104101190Y-70278095D01*
X104577380Y-68754285D02*
X104577380Y-69325714D01*
X104577380Y-69040000D02*
X103577380Y-69040000D01*
X103720238Y-69135238D01*
X103815476Y-69230476D01*
X103863095Y-69325714D01*
X26289333Y-113982142D02*
X26241714Y-114029761D01*
X26098857Y-114077380D01*
X26003619Y-114077380D01*
X25860761Y-114029761D01*
X25765523Y-113934523D01*
X25717904Y-113839285D01*
X25670285Y-113648809D01*
X25670285Y-113505952D01*
X25717904Y-113315476D01*
X25765523Y-113220238D01*
X25860761Y-113125000D01*
X26003619Y-113077380D01*
X26098857Y-113077380D01*
X26241714Y-113125000D01*
X26289333Y-113172619D01*
X26622666Y-113077380D02*
X27241714Y-113077380D01*
X26908380Y-113458333D01*
X27051238Y-113458333D01*
X27146476Y-113505952D01*
X27194095Y-113553571D01*
X27241714Y-113648809D01*
X27241714Y-113886904D01*
X27194095Y-113982142D01*
X27146476Y-114029761D01*
X27051238Y-114077380D01*
X26765523Y-114077380D01*
X26670285Y-114029761D01*
X26622666Y-113982142D01*
X26289333Y-122872142D02*
X26241714Y-122919761D01*
X26098857Y-122967380D01*
X26003619Y-122967380D01*
X25860761Y-122919761D01*
X25765523Y-122824523D01*
X25717904Y-122729285D01*
X25670285Y-122538809D01*
X25670285Y-122395952D01*
X25717904Y-122205476D01*
X25765523Y-122110238D01*
X25860761Y-122015000D01*
X26003619Y-121967380D01*
X26098857Y-121967380D01*
X26241714Y-122015000D01*
X26289333Y-122062619D01*
X26670285Y-122062619D02*
X26717904Y-122015000D01*
X26813142Y-121967380D01*
X27051238Y-121967380D01*
X27146476Y-122015000D01*
X27194095Y-122062619D01*
X27241714Y-122157857D01*
X27241714Y-122253095D01*
X27194095Y-122395952D01*
X26622666Y-122967380D01*
X27241714Y-122967380D01*
X26289333Y-118427142D02*
X26241714Y-118474761D01*
X26098857Y-118522380D01*
X26003619Y-118522380D01*
X25860761Y-118474761D01*
X25765523Y-118379523D01*
X25717904Y-118284285D01*
X25670285Y-118093809D01*
X25670285Y-117950952D01*
X25717904Y-117760476D01*
X25765523Y-117665238D01*
X25860761Y-117570000D01*
X26003619Y-117522380D01*
X26098857Y-117522380D01*
X26241714Y-117570000D01*
X26289333Y-117617619D01*
X27241714Y-118522380D02*
X26670285Y-118522380D01*
X26956000Y-118522380D02*
X26956000Y-117522380D01*
X26860761Y-117665238D01*
X26765523Y-117760476D01*
X26670285Y-117808095D01*
X31285380Y-104616095D02*
X32094904Y-104616095D01*
X32190142Y-104568476D01*
X32237761Y-104520857D01*
X32285380Y-104425619D01*
X32285380Y-104235142D01*
X32237761Y-104139904D01*
X32190142Y-104092285D01*
X32094904Y-104044666D01*
X31285380Y-104044666D01*
X31380619Y-103616095D02*
X31333000Y-103568476D01*
X31285380Y-103473238D01*
X31285380Y-103235142D01*
X31333000Y-103139904D01*
X31380619Y-103092285D01*
X31475857Y-103044666D01*
X31571095Y-103044666D01*
X31713952Y-103092285D01*
X32285380Y-103663714D01*
X32285380Y-103044666D01*
X31713952Y-102473238D02*
X31666333Y-102568476D01*
X31618714Y-102616095D01*
X31523476Y-102663714D01*
X31475857Y-102663714D01*
X31380619Y-102616095D01*
X31333000Y-102568476D01*
X31285380Y-102473238D01*
X31285380Y-102282761D01*
X31333000Y-102187523D01*
X31380619Y-102139904D01*
X31475857Y-102092285D01*
X31523476Y-102092285D01*
X31618714Y-102139904D01*
X31666333Y-102187523D01*
X31713952Y-102282761D01*
X31713952Y-102473238D01*
X31761571Y-102568476D01*
X31809190Y-102616095D01*
X31904428Y-102663714D01*
X32094904Y-102663714D01*
X32190142Y-102616095D01*
X32237761Y-102568476D01*
X32285380Y-102473238D01*
X32285380Y-102282761D01*
X32237761Y-102187523D01*
X32190142Y-102139904D01*
X32094904Y-102092285D01*
X31904428Y-102092285D01*
X31809190Y-102139904D01*
X31761571Y-102187523D01*
X31713952Y-102282761D01*
X38993380Y-141096904D02*
X39802904Y-141096904D01*
X39898142Y-141049285D01*
X39945761Y-141001666D01*
X39993380Y-140906428D01*
X39993380Y-140715952D01*
X39945761Y-140620714D01*
X39898142Y-140573095D01*
X39802904Y-140525476D01*
X38993380Y-140525476D01*
X39421952Y-139906428D02*
X39374333Y-140001666D01*
X39326714Y-140049285D01*
X39231476Y-140096904D01*
X39183857Y-140096904D01*
X39088619Y-140049285D01*
X39041000Y-140001666D01*
X38993380Y-139906428D01*
X38993380Y-139715952D01*
X39041000Y-139620714D01*
X39088619Y-139573095D01*
X39183857Y-139525476D01*
X39231476Y-139525476D01*
X39326714Y-139573095D01*
X39374333Y-139620714D01*
X39421952Y-139715952D01*
X39421952Y-139906428D01*
X39469571Y-140001666D01*
X39517190Y-140049285D01*
X39612428Y-140096904D01*
X39802904Y-140096904D01*
X39898142Y-140049285D01*
X39945761Y-140001666D01*
X39993380Y-139906428D01*
X39993380Y-139715952D01*
X39945761Y-139620714D01*
X39898142Y-139573095D01*
X39802904Y-139525476D01*
X39612428Y-139525476D01*
X39517190Y-139573095D01*
X39469571Y-139620714D01*
X39421952Y-139715952D01*
X29619015Y-95988095D02*
X28619015Y-95988095D01*
X28619015Y-95750000D01*
X28666635Y-95607142D01*
X28761873Y-95511904D01*
X28857111Y-95464285D01*
X29047587Y-95416666D01*
X29190444Y-95416666D01*
X29380920Y-95464285D01*
X29476158Y-95511904D01*
X29571396Y-95607142D01*
X29619015Y-95750000D01*
X29619015Y-95988095D01*
X29619015Y-94464285D02*
X29619015Y-95035714D01*
X29619015Y-94750000D02*
X28619015Y-94750000D01*
X28761873Y-94845238D01*
X28857111Y-94940476D01*
X28904730Y-95035714D01*
X26582666Y-98858095D02*
X26582666Y-98381904D01*
X26868380Y-98953333D02*
X25868380Y-98620000D01*
X26868380Y-98286666D01*
X31158380Y-122523095D02*
X31967904Y-122523095D01*
X32063142Y-122475476D01*
X32110761Y-122427857D01*
X32158380Y-122332619D01*
X32158380Y-122142142D01*
X32110761Y-122046904D01*
X32063142Y-121999285D01*
X31967904Y-121951666D01*
X31158380Y-121951666D01*
X31253619Y-121523095D02*
X31206000Y-121475476D01*
X31158380Y-121380238D01*
X31158380Y-121142142D01*
X31206000Y-121046904D01*
X31253619Y-120999285D01*
X31348857Y-120951666D01*
X31444095Y-120951666D01*
X31586952Y-120999285D01*
X32158380Y-121570714D01*
X32158380Y-120951666D01*
X31253619Y-120570714D02*
X31206000Y-120523095D01*
X31158380Y-120427857D01*
X31158380Y-120189761D01*
X31206000Y-120094523D01*
X31253619Y-120046904D01*
X31348857Y-119999285D01*
X31444095Y-119999285D01*
X31586952Y-120046904D01*
X32158380Y-120618333D01*
X32158380Y-119999285D01*
X117252904Y-92557380D02*
X117252904Y-93366904D01*
X117300523Y-93462142D01*
X117348142Y-93509761D01*
X117443380Y-93557380D01*
X117633857Y-93557380D01*
X117729095Y-93509761D01*
X117776714Y-93462142D01*
X117824333Y-93366904D01*
X117824333Y-92557380D01*
X118252904Y-92652619D02*
X118300523Y-92605000D01*
X118395761Y-92557380D01*
X118633857Y-92557380D01*
X118729095Y-92605000D01*
X118776714Y-92652619D01*
X118824333Y-92747857D01*
X118824333Y-92843095D01*
X118776714Y-92985952D01*
X118205285Y-93557380D01*
X118824333Y-93557380D01*
X119157666Y-92557380D02*
X119824333Y-92557380D01*
X119395761Y-93557380D01*
X77708380Y-141303333D02*
X78422666Y-141303333D01*
X78565523Y-141350952D01*
X78660761Y-141446190D01*
X78708380Y-141589047D01*
X78708380Y-141684285D01*
X78708380Y-140303333D02*
X78708380Y-140874761D01*
X78708380Y-140589047D02*
X77708380Y-140589047D01*
X77851238Y-140684285D01*
X77946476Y-140779523D01*
X77994095Y-140874761D01*
X76041476Y-21407380D02*
X76041476Y-20407380D01*
X76422428Y-20407380D01*
X76517666Y-20455000D01*
X76565285Y-20502619D01*
X76612904Y-20597857D01*
X76612904Y-20740714D01*
X76565285Y-20835952D01*
X76517666Y-20883571D01*
X76422428Y-20931190D01*
X76041476Y-20931190D01*
X77565285Y-20455000D02*
X77470047Y-20407380D01*
X77327190Y-20407380D01*
X77184333Y-20455000D01*
X77089095Y-20550238D01*
X77041476Y-20645476D01*
X76993857Y-20835952D01*
X76993857Y-20978809D01*
X77041476Y-21169285D01*
X77089095Y-21264523D01*
X77184333Y-21359761D01*
X77327190Y-21407380D01*
X77422428Y-21407380D01*
X77565285Y-21359761D01*
X77612904Y-21312142D01*
X77612904Y-20978809D01*
X77422428Y-20978809D01*
X78041476Y-21407380D02*
X78041476Y-20407380D01*
X78374809Y-21121666D01*
X78708142Y-20407380D01*
X78708142Y-21407380D01*
X79708142Y-21407380D02*
X79136714Y-21407380D01*
X79422428Y-21407380D02*
X79422428Y-20407380D01*
X79327190Y-20550238D01*
X79231952Y-20645476D01*
X79136714Y-20693095D01*
X43465761Y-138592619D02*
X43370523Y-138545000D01*
X43275285Y-138449761D01*
X43132428Y-138306904D01*
X43037190Y-138259285D01*
X42941952Y-138259285D01*
X42989571Y-138497380D02*
X42894333Y-138449761D01*
X42799095Y-138354523D01*
X42751476Y-138164047D01*
X42751476Y-137830714D01*
X42799095Y-137640238D01*
X42894333Y-137545000D01*
X42989571Y-137497380D01*
X43180047Y-137497380D01*
X43275285Y-137545000D01*
X43370523Y-137640238D01*
X43418142Y-137830714D01*
X43418142Y-138164047D01*
X43370523Y-138354523D01*
X43275285Y-138449761D01*
X43180047Y-138497380D01*
X42989571Y-138497380D01*
X44370523Y-138497380D02*
X43799095Y-138497380D01*
X44084809Y-138497380D02*
X44084809Y-137497380D01*
X43989571Y-137640238D01*
X43894333Y-137735476D01*
X43799095Y-137783095D01*
X40823380Y-135736666D02*
X40347190Y-136070000D01*
X40823380Y-136308095D02*
X39823380Y-136308095D01*
X39823380Y-135927142D01*
X39871000Y-135831904D01*
X39918619Y-135784285D01*
X40013857Y-135736666D01*
X40156714Y-135736666D01*
X40251952Y-135784285D01*
X40299571Y-135831904D01*
X40347190Y-135927142D01*
X40347190Y-136308095D01*
X39823380Y-135403333D02*
X39823380Y-134736666D01*
X40823380Y-135165238D01*
X43998380Y-135741666D02*
X43522190Y-136075000D01*
X43998380Y-136313095D02*
X42998380Y-136313095D01*
X42998380Y-135932142D01*
X43046000Y-135836904D01*
X43093619Y-135789285D01*
X43188857Y-135741666D01*
X43331714Y-135741666D01*
X43426952Y-135789285D01*
X43474571Y-135836904D01*
X43522190Y-135932142D01*
X43522190Y-136313095D01*
X43426952Y-135170238D02*
X43379333Y-135265476D01*
X43331714Y-135313095D01*
X43236476Y-135360714D01*
X43188857Y-135360714D01*
X43093619Y-135313095D01*
X43046000Y-135265476D01*
X42998380Y-135170238D01*
X42998380Y-134979761D01*
X43046000Y-134884523D01*
X43093619Y-134836904D01*
X43188857Y-134789285D01*
X43236476Y-134789285D01*
X43331714Y-134836904D01*
X43379333Y-134884523D01*
X43426952Y-134979761D01*
X43426952Y-135170238D01*
X43474571Y-135265476D01*
X43522190Y-135313095D01*
X43617428Y-135360714D01*
X43807904Y-135360714D01*
X43903142Y-135313095D01*
X43950761Y-135265476D01*
X43998380Y-135170238D01*
X43998380Y-134979761D01*
X43950761Y-134884523D01*
X43903142Y-134836904D01*
X43807904Y-134789285D01*
X43617428Y-134789285D01*
X43522190Y-134836904D01*
X43474571Y-134884523D01*
X43426952Y-134979761D01*
X49243381Y-86631903D02*
X50052905Y-86631903D01*
X50148143Y-86584284D01*
X50195762Y-86536665D01*
X50243381Y-86441427D01*
X50243381Y-86250951D01*
X50195762Y-86155713D01*
X50148143Y-86108094D01*
X50052905Y-86060475D01*
X49243381Y-86060475D01*
X49338620Y-85631903D02*
X49291001Y-85584284D01*
X49243381Y-85489046D01*
X49243381Y-85250951D01*
X49291001Y-85155713D01*
X49338620Y-85108094D01*
X49433858Y-85060475D01*
X49529096Y-85060475D01*
X49671953Y-85108094D01*
X50243381Y-85679522D01*
X50243381Y-85060475D01*
X49243381Y-75781903D02*
X50052905Y-75781903D01*
X50148143Y-75734284D01*
X50195762Y-75686665D01*
X50243381Y-75591427D01*
X50243381Y-75400951D01*
X50195762Y-75305713D01*
X50148143Y-75258094D01*
X50052905Y-75210475D01*
X49243381Y-75210475D01*
X49243381Y-74829522D02*
X49243381Y-74210475D01*
X49624334Y-74543808D01*
X49624334Y-74400951D01*
X49671953Y-74305713D01*
X49719572Y-74258094D01*
X49814810Y-74210475D01*
X50052905Y-74210475D01*
X50148143Y-74258094D01*
X50195762Y-74305713D01*
X50243381Y-74400951D01*
X50243381Y-74686665D01*
X50195762Y-74781903D01*
X50148143Y-74829522D01*
X49243381Y-65408094D02*
X50052905Y-65408094D01*
X50148143Y-65360475D01*
X50195762Y-65312856D01*
X50243381Y-65217618D01*
X50243381Y-65027141D01*
X50195762Y-64931903D01*
X50148143Y-64884284D01*
X50052905Y-64836665D01*
X49243381Y-64836665D01*
X50243381Y-63836665D02*
X50243381Y-64408094D01*
X50243381Y-64122379D02*
X49243381Y-64122379D01*
X49386239Y-64217618D01*
X49481477Y-64312856D01*
X49529096Y-64408094D01*
X49576715Y-62979522D02*
X50243381Y-62979522D01*
X49195762Y-63217618D02*
X49910048Y-63455713D01*
X49910048Y-62836665D01*
X49243381Y-54558094D02*
X50052905Y-54558094D01*
X50148143Y-54510475D01*
X50195762Y-54462856D01*
X50243381Y-54367618D01*
X50243381Y-54177141D01*
X50195762Y-54081903D01*
X50148143Y-54034284D01*
X50052905Y-53986665D01*
X49243381Y-53986665D01*
X50243381Y-52986665D02*
X50243381Y-53558094D01*
X50243381Y-53272379D02*
X49243381Y-53272379D01*
X49386239Y-53367618D01*
X49481477Y-53462856D01*
X49529096Y-53558094D01*
X49243381Y-52081903D02*
X49243381Y-52558094D01*
X49719572Y-52605713D01*
X49671953Y-52558094D01*
X49624334Y-52462856D01*
X49624334Y-52224760D01*
X49671953Y-52129522D01*
X49719572Y-52081903D01*
X49814810Y-52034284D01*
X50052905Y-52034284D01*
X50148143Y-52081903D01*
X50195762Y-52129522D01*
X50243381Y-52224760D01*
X50243381Y-52462856D01*
X50195762Y-52558094D01*
X50148143Y-52605713D01*
X27263142Y-128297857D02*
X27310761Y-128345476D01*
X27358380Y-128488333D01*
X27358380Y-128583571D01*
X27310761Y-128726428D01*
X27215523Y-128821666D01*
X27120285Y-128869285D01*
X26929809Y-128916904D01*
X26786952Y-128916904D01*
X26596476Y-128869285D01*
X26501238Y-128821666D01*
X26406000Y-128726428D01*
X26358380Y-128583571D01*
X26358380Y-128488333D01*
X26406000Y-128345476D01*
X26453619Y-128297857D01*
X26358380Y-127964523D02*
X26358380Y-127345476D01*
X26739333Y-127678809D01*
X26739333Y-127535952D01*
X26786952Y-127440714D01*
X26834571Y-127393095D01*
X26929809Y-127345476D01*
X27167904Y-127345476D01*
X27263142Y-127393095D01*
X27310761Y-127440714D01*
X27358380Y-127535952D01*
X27358380Y-127821666D01*
X27310761Y-127916904D01*
X27263142Y-127964523D01*
X26358380Y-126726428D02*
X26358380Y-126631190D01*
X26406000Y-126535952D01*
X26453619Y-126488333D01*
X26548857Y-126440714D01*
X26739333Y-126393095D01*
X26977428Y-126393095D01*
X27167904Y-126440714D01*
X27263142Y-126488333D01*
X27310761Y-126535952D01*
X27358380Y-126631190D01*
X27358380Y-126726428D01*
X27310761Y-126821666D01*
X27263142Y-126869285D01*
X27167904Y-126916904D01*
X26977428Y-126964523D01*
X26739333Y-126964523D01*
X26548857Y-126916904D01*
X26453619Y-126869285D01*
X26406000Y-126821666D01*
X26358380Y-126726428D01*
M02*
