M48
; DRILL file {KiCad (5.1.6-0-10_14)} date Tuesday, May 26, 2020 at 03:32:12 AM
; FORMAT={-:-/ absolute / inch / decimal}
; #@! TF.CreationDate,2020-05-26T03:32:12-04:00
; #@! TF.GenerationSoftware,Kicad,Pcbnew,(5.1.6-0-10_14)
; #@! TF.FileFunction,Plated,1,2,PTH
FMAT,2
INCH
T1C0.0276
T2C0.0295
T3C0.0300
T4C0.0315
T5C0.0354
T6C0.0394
T7C0.0433
%
G90
G05
T1
X0.94Y-5.1
X1.0148Y-5.1
X4.8752Y-5.65
X4.95Y-5.65
X0.9902Y-4.225
X1.065Y-4.225
X1.665Y-5.3
X1.665Y-5.3748
X0.99Y-3.95
X1.0648Y-3.95
X4.175Y-2.7004
X4.175Y-2.7752
X0.94Y-4.95
X1.0148Y-4.95
X1.79Y-5.3002
X1.79Y-5.375
X0.99Y-4.075
X1.0648Y-4.075
T2
X1.665Y-5.575
X1.715Y-5.575
X1.765Y-5.575
T3
X4.365Y-2.675
X4.365Y-2.775
X4.365Y-2.875
X4.365Y-2.975
X4.365Y-3.075
X4.365Y-3.175
X4.365Y-3.275
X4.365Y-3.375
X4.365Y-3.475
X4.965Y-2.675
X4.965Y-2.775
X4.965Y-2.875
X4.965Y-2.975
X4.965Y-3.075
X4.965Y-3.175
X4.965Y-3.275
X4.965Y-3.375
X4.965Y-3.475
T4
X2.99Y-3.4
X2.99Y-3.7
X3.09Y-3.4
X3.09Y-3.7
X3.19Y-3.4
X3.19Y-3.7
X3.29Y-3.4
X3.29Y-3.7
X3.39Y-3.4
X3.39Y-3.7
X3.49Y-3.4
X3.49Y-3.7
X3.59Y-3.4
X3.59Y-3.7
X3.69Y-3.4
X3.69Y-3.7
X3.79Y-3.4
X3.79Y-3.7
X3.89Y-3.4
X3.89Y-3.7
X4.185Y-3.995
X4.185Y-4.095
X4.185Y-4.195
X4.185Y-4.295
X4.185Y-4.395
X4.185Y-4.495
X4.185Y-4.595
X4.185Y-4.695
X4.185Y-4.795
X4.185Y-4.895
X4.185Y-4.995
X4.185Y-5.095
X4.585Y-3.995
X4.585Y-4.095
X4.585Y-4.195
X4.585Y-4.295
X4.585Y-4.395
X4.585Y-4.495
X4.585Y-4.595
X4.585Y-4.695
X4.585Y-4.795
X4.585Y-4.895
X4.585Y-4.995
X4.585Y-5.095
X2.052Y-3.2307
X2.052Y-3.5307
X2.152Y-3.2307
X2.152Y-3.5307
X2.252Y-3.2307
X2.252Y-3.5307
X2.352Y-3.2307
X2.352Y-3.5307
X2.452Y-3.2307
X2.452Y-3.5307
X2.552Y-3.2307
X2.552Y-3.5307
X2.652Y-3.2307
X2.652Y-3.5307
X2.99Y-2.975
X2.99Y-3.275
X3.09Y-2.975
X3.09Y-3.275
X3.19Y-2.975
X3.19Y-3.275
X3.29Y-2.975
X3.29Y-3.275
X3.39Y-2.975
X3.39Y-3.275
X3.49Y-2.975
X3.49Y-3.275
X3.59Y-2.975
X3.59Y-3.275
X3.69Y-2.975
X3.69Y-3.275
X3.79Y-2.975
X3.79Y-3.275
X3.89Y-2.975
X3.89Y-3.275
X0.99Y-2.375
X0.99Y-2.675
X1.09Y-2.375
X1.09Y-2.675
X1.19Y-2.375
X1.19Y-2.675
X1.29Y-2.375
X1.29Y-2.675
X1.39Y-2.375
X1.39Y-2.675
X1.49Y-2.375
X1.49Y-2.675
X1.59Y-2.375
X1.59Y-2.675
X1.69Y-2.375
X1.69Y-2.675
X6.8949Y-3.0951
X6.9933Y-3.0951
X5.09Y-1.5016
X5.09Y-1.6
X6.45Y-2.847
X6.5484Y-2.847
X2.9962Y-2.375
X2.9962Y-2.675
X3.0962Y-2.375
X3.0962Y-2.675
X3.1962Y-2.375
X3.1962Y-2.675
X3.2962Y-2.375
X3.2962Y-2.675
X3.3962Y-2.375
X3.3962Y-2.675
X3.4962Y-2.375
X3.4962Y-2.675
X3.5962Y-2.375
X3.5962Y-2.675
X3.6962Y-2.375
X3.6962Y-2.675
X3.7962Y-2.375
X3.7962Y-2.675
X3.8962Y-2.375
X3.8962Y-2.675
X6.8949Y-2.475
X6.9933Y-2.475
X6.8949Y-2.847
X6.9933Y-2.847
X6.6724Y-2.599
X6.7709Y-2.599
X6.45Y-2.9711
X6.5484Y-2.9711
X6.6724Y-2.475
X6.7709Y-2.475
X1.975Y-1.345
X1.975Y-1.645
X2.075Y-1.345
X2.075Y-1.645
X2.175Y-1.345
X2.175Y-1.645
X2.275Y-1.345
X2.275Y-1.645
X2.375Y-1.345
X2.375Y-1.645
X2.475Y-1.345
X2.475Y-1.645
X2.575Y-1.345
X2.575Y-1.645
X2.675Y-1.345
X2.675Y-1.645
X6.6724Y-2.9711
X6.7709Y-2.9711
X6.8949Y-2.599
X6.9933Y-2.599
X7.1173Y-2.599
X7.2157Y-2.599
X6.8949Y-2.723
X6.9933Y-2.723
X1.345Y-3.77
X1.345Y-4.37
X1.445Y-3.77
X1.445Y-4.37
X1.545Y-3.77
X1.545Y-4.37
X1.645Y-3.77
X1.645Y-4.37
X1.745Y-3.77
X1.745Y-4.37
X1.845Y-3.77
X1.845Y-4.37
X1.945Y-3.77
X1.945Y-4.37
X2.045Y-3.77
X2.045Y-4.37
X2.145Y-3.77
X2.145Y-4.37
X2.245Y-3.77
X2.245Y-4.37
X2.345Y-3.77
X2.345Y-4.37
X2.445Y-3.77
X2.445Y-4.37
X2.545Y-3.77
X2.545Y-4.37
X2.645Y-3.77
X2.645Y-4.37
X4.7Y-3.995
X4.7Y-4.095
X4.7Y-4.195
X4.7Y-4.295
X4.7Y-4.395
X4.7Y-4.495
X4.7Y-4.595
X4.7Y-4.695
X4.7Y-4.795
X4.7Y-4.895
X4.7Y-4.995
X4.7Y-5.095
X5.1Y-3.995
X5.1Y-4.095
X5.1Y-4.195
X5.1Y-4.295
X5.1Y-4.395
X5.1Y-4.495
X5.1Y-4.595
X5.1Y-4.695
X5.1Y-4.795
X5.1Y-4.895
X5.1Y-4.995
X5.1Y-5.095
X2.052Y-1.9492
X2.052Y-2.2492
X2.152Y-1.9492
X2.152Y-2.2492
X2.252Y-1.9492
X2.252Y-2.2492
X2.352Y-1.9492
X2.352Y-2.2492
X2.452Y-1.9492
X2.452Y-2.2492
X2.552Y-1.9492
X2.552Y-2.2492
X2.652Y-1.9492
X2.652Y-2.2492
X5.175Y-2.175
X5.175Y-2.2734
X6.45Y-3.0951
X6.5484Y-3.0951
X4.175Y-1.975
X4.175Y-2.275
X4.275Y-1.975
X4.275Y-2.275
X4.375Y-1.975
X4.375Y-2.275
X4.475Y-1.975
X4.475Y-2.275
X4.575Y-1.975
X4.575Y-2.275
X4.675Y-1.975
X4.675Y-2.275
X4.775Y-1.975
X4.775Y-2.275
X4.875Y-1.975
X4.875Y-2.275
X4.975Y-1.975
X4.975Y-2.275
X5.075Y-1.975
X5.075Y-2.275
X7.1173Y-2.847
X7.2157Y-2.847
X0.99Y-3.175
X0.99Y-3.475
X1.09Y-3.175
X1.09Y-3.475
X1.19Y-3.175
X1.19Y-3.475
X1.29Y-3.175
X1.29Y-3.475
X1.39Y-3.175
X1.39Y-3.475
X1.49Y-3.175
X1.49Y-3.475
X1.59Y-3.175
X1.59Y-3.475
X1.69Y-3.175
X1.69Y-3.475
X2.975Y-4.4
X2.975Y-4.7
X3.075Y-4.4
X3.075Y-4.7
X3.175Y-4.4
X3.175Y-4.7
X3.275Y-4.4
X3.275Y-4.7
X3.375Y-4.4
X3.375Y-4.7
X3.475Y-4.4
X3.475Y-4.7
X3.575Y-4.4
X3.575Y-4.7
X3.675Y-4.4
X3.675Y-4.7
X3.775Y-4.4
X3.775Y-4.7
X3.875Y-4.4
X3.875Y-4.7
X1.165Y-5.375
X1.165Y-5.675
X1.265Y-5.375
X1.265Y-5.675
X1.365Y-5.375
X1.365Y-5.675
X1.465Y-5.375
X1.465Y-5.675
X1.34Y-4.475
X1.34Y-5.075
X1.44Y-4.475
X1.44Y-5.075
X1.54Y-4.475
X1.54Y-5.075
X1.64Y-4.475
X1.64Y-5.075
X1.74Y-4.475
X1.74Y-5.075
X1.84Y-4.475
X1.84Y-5.075
X1.94Y-4.475
X1.94Y-5.075
X2.04Y-4.475
X2.04Y-5.075
X2.14Y-4.475
X2.14Y-5.075
X2.24Y-4.475
X2.24Y-5.075
X2.34Y-4.475
X2.34Y-5.075
X2.44Y-4.475
X2.44Y-5.075
X2.54Y-4.475
X2.54Y-5.075
X2.64Y-4.475
X2.64Y-5.075
X3.0Y-1.95
X3.0Y-2.25
X3.1Y-1.95
X3.1Y-2.25
X3.2Y-1.95
X3.2Y-2.25
X3.3Y-1.95
X3.3Y-2.25
X3.4Y-1.95
X3.4Y-2.25
X3.5Y-1.95
X3.5Y-2.25
X3.6Y-1.95
X3.6Y-2.25
X3.7Y-1.95
X3.7Y-2.25
X3.8Y-1.95
X3.8Y-2.25
X3.9Y-1.95
X3.9Y-2.25
X0.99Y-2.775
X0.99Y-3.075
X1.09Y-2.775
X1.09Y-3.075
X1.19Y-2.775
X1.19Y-3.075
X1.29Y-2.775
X1.29Y-3.075
X1.39Y-2.775
X1.39Y-3.075
X1.49Y-2.775
X1.49Y-3.075
X1.59Y-2.775
X1.59Y-3.075
X1.69Y-2.775
X1.69Y-3.075
X2.975Y-3.975
X2.975Y-4.275
X3.075Y-3.975
X3.075Y-4.275
X3.175Y-3.975
X3.175Y-4.275
X3.275Y-3.975
X3.275Y-4.275
X3.375Y-3.975
X3.375Y-4.275
X3.475Y-3.975
X3.475Y-4.275
X3.575Y-3.975
X3.575Y-4.275
X3.675Y-3.975
X3.675Y-4.275
X3.775Y-3.975
X3.775Y-4.275
X3.875Y-3.975
X3.875Y-4.275
X0.9975Y-1.345
X0.9975Y-1.645
X1.0975Y-1.345
X1.0975Y-1.645
X1.1975Y-1.345
X1.1975Y-1.645
X1.2975Y-1.345
X1.2975Y-1.645
X1.3975Y-1.345
X1.3975Y-1.645
X1.4975Y-1.345
X1.4975Y-1.645
X1.5975Y-1.345
X1.5975Y-1.645
X1.6975Y-1.345
X1.6975Y-1.645
X2.052Y-2.8035
X2.052Y-3.1035
X2.152Y-2.8035
X2.152Y-3.1035
X2.252Y-2.8035
X2.252Y-3.1035
X2.352Y-2.8035
X2.352Y-3.1035
X2.452Y-2.8035
X2.452Y-3.1035
X2.552Y-2.8035
X2.552Y-3.1035
X2.652Y-2.8035
X2.652Y-3.1035
X0.99Y-0.95
X0.99Y-1.25
X1.09Y-0.95
X1.09Y-1.25
X1.19Y-0.95
X1.19Y-1.25
X1.29Y-0.95
X1.29Y-1.25
X1.39Y-0.95
X1.39Y-1.25
X1.49Y-0.95
X1.49Y-1.25
X1.59Y-0.95
X1.59Y-1.25
X1.69Y-0.95
X1.69Y-1.25
X6.8949Y-2.9711
X6.9933Y-2.9711
X1.14Y-4.9766
X1.14Y-5.075
X7.1173Y-2.723
X7.2157Y-2.723
X6.6724Y-3.0951
X6.7709Y-3.0951
X7.1173Y-2.475
X7.2157Y-2.475
X6.45Y-2.723
X6.5484Y-2.723
X3.99Y-2.15
X3.99Y-2.2484
X3.075Y-0.985
X3.075Y-1.585
X3.175Y-0.985
X3.175Y-1.585
X3.275Y-0.985
X3.275Y-1.585
X3.375Y-0.985
X3.375Y-1.585
X3.475Y-0.985
X3.475Y-1.585
X3.575Y-0.985
X3.575Y-1.585
X3.675Y-0.985
X3.675Y-1.585
X3.775Y-0.985
X3.775Y-1.585
X3.875Y-0.985
X3.875Y-1.585
X3.975Y-0.985
X3.975Y-1.585
X4.075Y-0.985
X4.075Y-1.585
X4.175Y-0.985
X4.175Y-1.585
X4.275Y-0.985
X4.275Y-1.585
X4.375Y-0.985
X4.375Y-1.585
X4.475Y-0.985
X4.475Y-1.585
X4.575Y-0.985
X4.575Y-1.585
X4.675Y-0.985
X4.675Y-1.585
X4.775Y-0.985
X4.775Y-1.585
X4.875Y-0.985
X4.875Y-1.585
X4.975Y-0.985
X4.975Y-1.585
X6.45Y-2.599
X6.5484Y-2.599
X6.6724Y-2.723
X6.7709Y-2.723
X2.052Y-2.3764
X2.052Y-2.6764
X2.152Y-2.3764
X2.152Y-2.6764
X2.252Y-2.3764
X2.252Y-2.6764
X2.352Y-2.3764
X2.352Y-2.6764
X2.452Y-2.3764
X2.452Y-2.6764
X2.552Y-2.3764
X2.552Y-2.6764
X2.652Y-2.3764
X2.652Y-2.6764
X6.45Y-2.475
X6.5484Y-2.475
X3.99Y-2.575
X3.99Y-2.6734
X2.99Y-5.025
X2.99Y-5.325
X3.09Y-5.025
X3.09Y-5.325
X3.19Y-5.025
X3.19Y-5.325
X3.29Y-5.025
X3.29Y-5.325
X3.39Y-5.025
X3.39Y-5.325
X3.49Y-5.025
X3.49Y-5.325
X3.59Y-5.025
X3.59Y-5.325
X3.69Y-5.025
X3.69Y-5.325
X3.79Y-5.025
X3.79Y-5.325
X3.89Y-5.025
X3.89Y-5.325
X0.99Y-1.95
X0.99Y-2.25
X1.09Y-1.95
X1.09Y-2.25
X1.19Y-1.95
X1.19Y-2.25
X1.29Y-1.95
X1.29Y-2.25
X1.39Y-1.95
X1.39Y-2.25
X1.49Y-1.95
X1.49Y-2.25
X1.59Y-1.95
X1.59Y-2.25
X1.69Y-1.95
X1.69Y-2.25
X1.965Y-0.95
X1.965Y-1.25
X2.065Y-0.95
X2.065Y-1.25
X2.165Y-0.95
X2.165Y-1.25
X2.265Y-0.95
X2.265Y-1.25
X2.365Y-0.95
X2.365Y-1.25
X2.465Y-0.95
X2.465Y-1.25
X2.565Y-0.95
X2.565Y-1.25
X2.665Y-0.95
X2.665Y-1.25
X0.9431Y-4.375
X1.14Y-4.375
X0.9431Y-4.725
X1.14Y-4.725
X0.9431Y-4.55
X1.14Y-4.55
X6.6724Y-2.847
X6.7709Y-2.847
T5
X4.925Y-5.35
X4.925Y-5.45
T6
X5.64Y-3.125
X5.64Y-3.225
X5.64Y-3.325
X5.64Y-3.425
X5.64Y-3.525
X5.64Y-3.625
X5.64Y-3.725
X5.64Y-3.825
X5.64Y-3.925
X5.74Y-3.125
X5.74Y-3.225
X5.74Y-3.325
X5.74Y-3.425
X5.74Y-3.525
X5.74Y-3.625
X5.74Y-3.725
X5.74Y-3.825
X5.74Y-3.925
X5.34Y-2.075
X5.34Y-2.175
X5.34Y-2.275
X5.34Y-2.375
X5.34Y-2.475
X5.34Y-2.575
X5.34Y-2.675
X5.34Y-2.775
X5.34Y-2.875
X5.44Y-2.075
X5.44Y-2.175
X5.44Y-2.275
X5.44Y-2.375
X5.44Y-2.475
X5.44Y-2.575
X5.44Y-2.675
X5.44Y-2.775
X5.44Y-2.875
X5.64Y-4.165
X5.64Y-4.265
X5.64Y-4.365
X5.64Y-4.465
X5.64Y-4.565
X5.64Y-4.665
X5.64Y-4.765
X5.64Y-4.865
X5.64Y-4.965
X5.74Y-4.165
X5.74Y-4.265
X5.74Y-4.365
X5.74Y-4.465
X5.74Y-4.565
X5.74Y-4.665
X5.74Y-4.765
X5.74Y-4.865
X5.74Y-4.965
X5.64Y-2.075
X5.64Y-2.175
X5.64Y-2.275
X5.64Y-2.375
X5.64Y-2.475
X5.64Y-2.575
X5.64Y-2.675
X5.64Y-2.775
X5.64Y-2.875
X5.74Y-2.075
X5.74Y-2.175
X5.74Y-2.275
X5.74Y-2.375
X5.74Y-2.475
X5.74Y-2.575
X5.74Y-2.675
X5.74Y-2.775
X5.74Y-2.875
X3.19Y-5.5
X3.19Y-5.6
X3.29Y-5.5
X3.29Y-5.6
X3.39Y-5.5
X3.39Y-5.6
X3.49Y-5.5
X3.49Y-5.6
X3.59Y-5.5
X3.59Y-5.6
X3.69Y-5.5
X3.69Y-5.6
X5.34Y-3.125
X5.34Y-3.225
X5.34Y-3.325
X5.34Y-3.425
X5.34Y-3.525
X5.34Y-3.625
X5.34Y-3.725
X5.34Y-3.825
X5.34Y-3.925
X5.44Y-3.125
X5.44Y-3.225
X5.44Y-3.325
X5.44Y-3.425
X5.44Y-3.525
X5.44Y-3.625
X5.44Y-3.725
X5.44Y-3.825
X5.44Y-3.925
X5.34Y-1.035
X5.34Y-1.135
X5.34Y-1.235
X5.34Y-1.335
X5.34Y-1.435
X5.34Y-1.535
X5.34Y-1.635
X5.34Y-1.735
X5.34Y-1.835
X5.44Y-1.035
X5.44Y-1.135
X5.44Y-1.235
X5.44Y-1.335
X5.44Y-1.435
X5.44Y-1.535
X5.44Y-1.635
X5.44Y-1.735
X5.44Y-1.835
X0.965Y-5.4
X0.965Y-5.5
X0.965Y-5.6
X5.64Y-1.035
X5.64Y-1.135
X5.64Y-1.235
X5.64Y-1.335
X5.64Y-1.435
X5.64Y-1.535
X5.64Y-1.635
X5.64Y-1.735
X5.64Y-1.835
X5.74Y-1.035
X5.74Y-1.135
X5.74Y-1.235
X5.74Y-1.335
X5.74Y-1.435
X5.74Y-1.535
X5.74Y-1.635
X5.74Y-1.735
X5.74Y-1.835
X5.34Y-4.165
X5.34Y-4.265
X5.34Y-4.365
X5.34Y-4.465
X5.34Y-4.565
X5.34Y-4.665
X5.34Y-4.765
X5.34Y-4.865
X5.34Y-4.965
X5.44Y-4.165
X5.44Y-4.265
X5.44Y-4.365
X5.44Y-4.465
X5.44Y-4.565
X5.44Y-4.665
X5.44Y-4.765
X5.44Y-4.865
X5.44Y-4.965
X5.19Y-5.35
X5.29Y-5.35
X5.39Y-5.35
X5.49Y-5.35
X5.59Y-5.35
X5.69Y-5.35
X2.94Y-0.825
T7
X1.04Y-3.7
X1.04Y-3.8
X2.0341Y-5.4478
X2.0341Y-5.625
X2.29Y-5.4478
X2.29Y-5.625
X2.4841Y-5.4478
X2.4841Y-5.625
X2.74Y-5.4478
X2.74Y-5.625
T0
M30
