G04 #@! TF.GenerationSoftware,KiCad,Pcbnew,(5.1.4)-1*
G04 #@! TF.CreationDate,2019-09-25T15:42:07+02:00*
G04 #@! TF.ProjectId,Display4x16segment,44697370-6c61-4793-9478-31367365676d,rev?*
G04 #@! TF.SameCoordinates,Original*
G04 #@! TF.FileFunction,Legend,Top*
G04 #@! TF.FilePolarity,Positive*
%FSLAX46Y46*%
G04 Gerber Fmt 4.6, Leading zero omitted, Abs format (unit mm)*
G04 Created by KiCad (PCBNEW (5.1.4)-1) date 2019-09-25 15:42:07*
%MOMM*%
%LPD*%
G04 APERTURE LIST*
%ADD10C,0.150000*%
%ADD11C,0.120000*%
G04 APERTURE END LIST*
D10*
X158766666Y-135052380D02*
X159100000Y-136052380D01*
X159433333Y-135052380D01*
X160338095Y-135957142D02*
X160290476Y-136004761D01*
X160147619Y-136052380D01*
X160052380Y-136052380D01*
X159909523Y-136004761D01*
X159814285Y-135909523D01*
X159766666Y-135814285D01*
X159719047Y-135623809D01*
X159719047Y-135480952D01*
X159766666Y-135290476D01*
X159814285Y-135195238D01*
X159909523Y-135100000D01*
X160052380Y-135052380D01*
X160147619Y-135052380D01*
X160290476Y-135100000D01*
X160338095Y-135147619D01*
X161338095Y-135957142D02*
X161290476Y-136004761D01*
X161147619Y-136052380D01*
X161052380Y-136052380D01*
X160909523Y-136004761D01*
X160814285Y-135909523D01*
X160766666Y-135814285D01*
X160719047Y-135623809D01*
X160719047Y-135480952D01*
X160766666Y-135290476D01*
X160814285Y-135195238D01*
X160909523Y-135100000D01*
X161052380Y-135052380D01*
X161147619Y-135052380D01*
X161290476Y-135100000D01*
X161338095Y-135147619D01*
X162061904Y-136052380D02*
X162061904Y-135052380D01*
X162300000Y-135052380D01*
X162442857Y-135100000D01*
X162538095Y-135195238D01*
X162585714Y-135290476D01*
X162633333Y-135480952D01*
X162633333Y-135623809D01*
X162585714Y-135814285D01*
X162538095Y-135909523D01*
X162442857Y-136004761D01*
X162300000Y-136052380D01*
X162061904Y-136052380D01*
X163061904Y-136052380D02*
X163061904Y-135052380D01*
X163442857Y-135052380D01*
X163538095Y-135100000D01*
X163585714Y-135147619D01*
X163633333Y-135242857D01*
X163633333Y-135385714D01*
X163585714Y-135480952D01*
X163538095Y-135528571D01*
X163442857Y-135576190D01*
X163061904Y-135576190D01*
X164252380Y-135052380D02*
X164347619Y-135052380D01*
X164442857Y-135100000D01*
X164490476Y-135147619D01*
X164538095Y-135242857D01*
X164585714Y-135433333D01*
X164585714Y-135671428D01*
X164538095Y-135861904D01*
X164490476Y-135957142D01*
X164442857Y-136004761D01*
X164347619Y-136052380D01*
X164252380Y-136052380D01*
X164157142Y-136004761D01*
X164109523Y-135957142D01*
X164061904Y-135861904D01*
X164014285Y-135671428D01*
X164014285Y-135433333D01*
X164061904Y-135242857D01*
X164109523Y-135147619D01*
X164157142Y-135100000D01*
X164252380Y-135052380D01*
X169661904Y-136052380D02*
X169661904Y-135052380D01*
X169900000Y-135052380D01*
X170042857Y-135100000D01*
X170138095Y-135195238D01*
X170185714Y-135290476D01*
X170233333Y-135480952D01*
X170233333Y-135623809D01*
X170185714Y-135814285D01*
X170138095Y-135909523D01*
X170042857Y-136004761D01*
X169900000Y-136052380D01*
X169661904Y-136052380D01*
X170661904Y-136052380D02*
X170661904Y-135052380D01*
X171042857Y-135052380D01*
X171138095Y-135100000D01*
X171185714Y-135147619D01*
X171233333Y-135242857D01*
X171233333Y-135385714D01*
X171185714Y-135480952D01*
X171138095Y-135528571D01*
X171042857Y-135576190D01*
X170661904Y-135576190D01*
X171566666Y-135052380D02*
X172185714Y-135052380D01*
X171852380Y-135433333D01*
X171995238Y-135433333D01*
X172090476Y-135480952D01*
X172138095Y-135528571D01*
X172185714Y-135623809D01*
X172185714Y-135861904D01*
X172138095Y-135957142D01*
X172090476Y-136004761D01*
X171995238Y-136052380D01*
X171709523Y-136052380D01*
X171614285Y-136004761D01*
X171566666Y-135957142D01*
X202338095Y-135328571D02*
X202480952Y-135376190D01*
X202528571Y-135423809D01*
X202576190Y-135519047D01*
X202576190Y-135661904D01*
X202528571Y-135757142D01*
X202480952Y-135804761D01*
X202385714Y-135852380D01*
X202004761Y-135852380D01*
X202004761Y-134852380D01*
X202338095Y-134852380D01*
X202433333Y-134900000D01*
X202480952Y-134947619D01*
X202528571Y-135042857D01*
X202528571Y-135138095D01*
X202480952Y-135233333D01*
X202433333Y-135280952D01*
X202338095Y-135328571D01*
X202004761Y-135328571D01*
X203433333Y-135185714D02*
X203433333Y-135852380D01*
X203004761Y-135185714D02*
X203004761Y-135709523D01*
X203052380Y-135804761D01*
X203147619Y-135852380D01*
X203290476Y-135852380D01*
X203385714Y-135804761D01*
X203433333Y-135757142D01*
X203766666Y-135185714D02*
X204147619Y-135185714D01*
X203909523Y-134852380D02*
X203909523Y-135709523D01*
X203957142Y-135804761D01*
X204052380Y-135852380D01*
X204147619Y-135852380D01*
X204338095Y-135185714D02*
X204719047Y-135185714D01*
X204480952Y-134852380D02*
X204480952Y-135709523D01*
X204528571Y-135804761D01*
X204623809Y-135852380D01*
X204719047Y-135852380D01*
X205195238Y-135852380D02*
X205100000Y-135804761D01*
X205052380Y-135757142D01*
X205004761Y-135661904D01*
X205004761Y-135376190D01*
X205052380Y-135280952D01*
X205100000Y-135233333D01*
X205195238Y-135185714D01*
X205338095Y-135185714D01*
X205433333Y-135233333D01*
X205480952Y-135280952D01*
X205528571Y-135376190D01*
X205528571Y-135661904D01*
X205480952Y-135757142D01*
X205433333Y-135804761D01*
X205338095Y-135852380D01*
X205195238Y-135852380D01*
X205957142Y-135185714D02*
X205957142Y-135852380D01*
X205957142Y-135280952D02*
X206004761Y-135233333D01*
X206100000Y-135185714D01*
X206242857Y-135185714D01*
X206338095Y-135233333D01*
X206385714Y-135328571D01*
X206385714Y-135852380D01*
X206814285Y-135804761D02*
X206909523Y-135852380D01*
X207100000Y-135852380D01*
X207195238Y-135804761D01*
X207242857Y-135709523D01*
X207242857Y-135661904D01*
X207195238Y-135566666D01*
X207100000Y-135519047D01*
X206957142Y-135519047D01*
X206861904Y-135471428D01*
X206814285Y-135376190D01*
X206814285Y-135328571D01*
X206861904Y-135233333D01*
X206957142Y-135185714D01*
X207100000Y-135185714D01*
X207195238Y-135233333D01*
X194768714Y-135834380D02*
X194197285Y-135834380D01*
X194483000Y-135834380D02*
X194483000Y-134834380D01*
X194387761Y-134977238D01*
X194292523Y-135072476D01*
X194197285Y-135120095D01*
X212204761Y-135280952D02*
X212109523Y-135233333D01*
X212061904Y-135185714D01*
X212014285Y-135090476D01*
X212014285Y-135042857D01*
X212061904Y-134947619D01*
X212109523Y-134900000D01*
X212204761Y-134852380D01*
X212395238Y-134852380D01*
X212490476Y-134900000D01*
X212538095Y-134947619D01*
X212585714Y-135042857D01*
X212585714Y-135090476D01*
X212538095Y-135185714D01*
X212490476Y-135233333D01*
X212395238Y-135280952D01*
X212204761Y-135280952D01*
X212109523Y-135328571D01*
X212061904Y-135376190D01*
X212014285Y-135471428D01*
X212014285Y-135661904D01*
X212061904Y-135757142D01*
X212109523Y-135804761D01*
X212204761Y-135852380D01*
X212395238Y-135852380D01*
X212490476Y-135804761D01*
X212538095Y-135757142D01*
X212585714Y-135661904D01*
X212585714Y-135471428D01*
X212538095Y-135376190D01*
X212490476Y-135328571D01*
X212395238Y-135280952D01*
X214014285Y-135757142D02*
X213966666Y-135804761D01*
X213823809Y-135852380D01*
X213728571Y-135852380D01*
X213585714Y-135804761D01*
X213490476Y-135709523D01*
X213442857Y-135614285D01*
X213395238Y-135423809D01*
X213395238Y-135280952D01*
X213442857Y-135090476D01*
X213490476Y-134995238D01*
X213585714Y-134900000D01*
X213728571Y-134852380D01*
X213823809Y-134852380D01*
X213966666Y-134900000D01*
X214014285Y-134947619D01*
X214633333Y-134852380D02*
X214823809Y-134852380D01*
X214919047Y-134900000D01*
X215014285Y-134995238D01*
X215061904Y-135185714D01*
X215061904Y-135519047D01*
X215014285Y-135709523D01*
X214919047Y-135804761D01*
X214823809Y-135852380D01*
X214633333Y-135852380D01*
X214538095Y-135804761D01*
X214442857Y-135709523D01*
X214395238Y-135519047D01*
X214395238Y-135185714D01*
X214442857Y-134995238D01*
X214538095Y-134900000D01*
X214633333Y-134852380D01*
X215490476Y-135852380D02*
X215490476Y-134852380D01*
X215823809Y-135566666D01*
X216157142Y-134852380D01*
X216157142Y-135852380D01*
X175242857Y-136527380D02*
X175242857Y-135527380D01*
X175242857Y-136003571D02*
X175814285Y-136003571D01*
X175814285Y-136527380D02*
X175814285Y-135527380D01*
X176147619Y-135527380D02*
X176719047Y-135527380D01*
X176433333Y-136527380D02*
X176433333Y-135527380D01*
X177576190Y-136527380D02*
X177004761Y-136527380D01*
X177290476Y-136527380D02*
X177290476Y-135527380D01*
X177195238Y-135670238D01*
X177100000Y-135765476D01*
X177004761Y-135813095D01*
X178433333Y-135527380D02*
X178242857Y-135527380D01*
X178147619Y-135575000D01*
X178100000Y-135622619D01*
X178004761Y-135765476D01*
X177957142Y-135955952D01*
X177957142Y-136336904D01*
X178004761Y-136432142D01*
X178052380Y-136479761D01*
X178147619Y-136527380D01*
X178338095Y-136527380D01*
X178433333Y-136479761D01*
X178480952Y-136432142D01*
X178528571Y-136336904D01*
X178528571Y-136098809D01*
X178480952Y-136003571D01*
X178433333Y-135955952D01*
X178338095Y-135908333D01*
X178147619Y-135908333D01*
X178052380Y-135955952D01*
X178004761Y-136003571D01*
X177957142Y-136098809D01*
X178957142Y-136527380D02*
X178957142Y-135527380D01*
X179528571Y-136527380D02*
X179100000Y-135955952D01*
X179528571Y-135527380D02*
X178957142Y-136098809D01*
X179861904Y-135527380D02*
X180480952Y-135527380D01*
X180147619Y-135908333D01*
X180290476Y-135908333D01*
X180385714Y-135955952D01*
X180433333Y-136003571D01*
X180480952Y-136098809D01*
X180480952Y-136336904D01*
X180433333Y-136432142D01*
X180385714Y-136479761D01*
X180290476Y-136527380D01*
X180004761Y-136527380D01*
X179909523Y-136479761D01*
X179861904Y-136432142D01*
X180814285Y-135527380D02*
X181433333Y-135527380D01*
X181100000Y-135908333D01*
X181242857Y-135908333D01*
X181338095Y-135955952D01*
X181385714Y-136003571D01*
X181433333Y-136098809D01*
X181433333Y-136336904D01*
X181385714Y-136432142D01*
X181338095Y-136479761D01*
X181242857Y-136527380D01*
X180957142Y-136527380D01*
X180861904Y-136479761D01*
X180814285Y-136432142D01*
X183052380Y-135860714D02*
X183052380Y-136527380D01*
X182814285Y-135479761D02*
X182576190Y-136194047D01*
X183195238Y-136194047D01*
X184766666Y-136527380D02*
X184766666Y-135527380D01*
X184766666Y-136479761D02*
X184671428Y-136527380D01*
X184480952Y-136527380D01*
X184385714Y-136479761D01*
X184338095Y-136432142D01*
X184290476Y-136336904D01*
X184290476Y-136051190D01*
X184338095Y-135955952D01*
X184385714Y-135908333D01*
X184480952Y-135860714D01*
X184671428Y-135860714D01*
X184766666Y-135908333D01*
X185242857Y-136527380D02*
X185242857Y-135860714D01*
X185242857Y-135527380D02*
X185195238Y-135575000D01*
X185242857Y-135622619D01*
X185290476Y-135575000D01*
X185242857Y-135527380D01*
X185242857Y-135622619D01*
X186147619Y-135860714D02*
X186147619Y-136670238D01*
X186100000Y-136765476D01*
X186052380Y-136813095D01*
X185957142Y-136860714D01*
X185814285Y-136860714D01*
X185719047Y-136813095D01*
X186147619Y-136479761D02*
X186052380Y-136527380D01*
X185861904Y-136527380D01*
X185766666Y-136479761D01*
X185719047Y-136432142D01*
X185671428Y-136336904D01*
X185671428Y-136051190D01*
X185719047Y-135955952D01*
X185766666Y-135908333D01*
X185861904Y-135860714D01*
X186052380Y-135860714D01*
X186147619Y-135908333D01*
X186623809Y-136527380D02*
X186623809Y-135860714D01*
X186623809Y-135527380D02*
X186576190Y-135575000D01*
X186623809Y-135622619D01*
X186671428Y-135575000D01*
X186623809Y-135527380D01*
X186623809Y-135622619D01*
X186957142Y-135860714D02*
X187338095Y-135860714D01*
X187100000Y-135527380D02*
X187100000Y-136384523D01*
X187147619Y-136479761D01*
X187242857Y-136527380D01*
X187338095Y-136527380D01*
X173480952Y-138177380D02*
X172909523Y-138177380D01*
X173195238Y-138177380D02*
X173195238Y-137177380D01*
X173100000Y-137320238D01*
X173004761Y-137415476D01*
X172909523Y-137463095D01*
X174338095Y-137177380D02*
X174147619Y-137177380D01*
X174052380Y-137225000D01*
X174004761Y-137272619D01*
X173909523Y-137415476D01*
X173861904Y-137605952D01*
X173861904Y-137986904D01*
X173909523Y-138082142D01*
X173957142Y-138129761D01*
X174052380Y-138177380D01*
X174242857Y-138177380D01*
X174338095Y-138129761D01*
X174385714Y-138082142D01*
X174433333Y-137986904D01*
X174433333Y-137748809D01*
X174385714Y-137653571D01*
X174338095Y-137605952D01*
X174242857Y-137558333D01*
X174052380Y-137558333D01*
X173957142Y-137605952D01*
X173909523Y-137653571D01*
X173861904Y-137748809D01*
X175576190Y-138129761D02*
X175671428Y-138177380D01*
X175861904Y-138177380D01*
X175957142Y-138129761D01*
X176004761Y-138034523D01*
X176004761Y-137986904D01*
X175957142Y-137891666D01*
X175861904Y-137844047D01*
X175719047Y-137844047D01*
X175623809Y-137796428D01*
X175576190Y-137701190D01*
X175576190Y-137653571D01*
X175623809Y-137558333D01*
X175719047Y-137510714D01*
X175861904Y-137510714D01*
X175957142Y-137558333D01*
X176814285Y-138129761D02*
X176719047Y-138177380D01*
X176528571Y-138177380D01*
X176433333Y-138129761D01*
X176385714Y-138034523D01*
X176385714Y-137653571D01*
X176433333Y-137558333D01*
X176528571Y-137510714D01*
X176719047Y-137510714D01*
X176814285Y-137558333D01*
X176861904Y-137653571D01*
X176861904Y-137748809D01*
X176385714Y-137844047D01*
X177719047Y-137510714D02*
X177719047Y-138320238D01*
X177671428Y-138415476D01*
X177623809Y-138463095D01*
X177528571Y-138510714D01*
X177385714Y-138510714D01*
X177290476Y-138463095D01*
X177719047Y-138129761D02*
X177623809Y-138177380D01*
X177433333Y-138177380D01*
X177338095Y-138129761D01*
X177290476Y-138082142D01*
X177242857Y-137986904D01*
X177242857Y-137701190D01*
X177290476Y-137605952D01*
X177338095Y-137558333D01*
X177433333Y-137510714D01*
X177623809Y-137510714D01*
X177719047Y-137558333D01*
X178195238Y-138177380D02*
X178195238Y-137510714D01*
X178195238Y-137605952D02*
X178242857Y-137558333D01*
X178338095Y-137510714D01*
X178480952Y-137510714D01*
X178576190Y-137558333D01*
X178623809Y-137653571D01*
X178623809Y-138177380D01*
X178623809Y-137653571D02*
X178671428Y-137558333D01*
X178766666Y-137510714D01*
X178909523Y-137510714D01*
X179004761Y-137558333D01*
X179052380Y-137653571D01*
X179052380Y-138177380D01*
X179909523Y-138129761D02*
X179814285Y-138177380D01*
X179623809Y-138177380D01*
X179528571Y-138129761D01*
X179480952Y-138034523D01*
X179480952Y-137653571D01*
X179528571Y-137558333D01*
X179623809Y-137510714D01*
X179814285Y-137510714D01*
X179909523Y-137558333D01*
X179957142Y-137653571D01*
X179957142Y-137748809D01*
X179480952Y-137844047D01*
X180385714Y-137510714D02*
X180385714Y-138177380D01*
X180385714Y-137605952D02*
X180433333Y-137558333D01*
X180528571Y-137510714D01*
X180671428Y-137510714D01*
X180766666Y-137558333D01*
X180814285Y-137653571D01*
X180814285Y-138177380D01*
X181147619Y-137510714D02*
X181528571Y-137510714D01*
X181290476Y-137177380D02*
X181290476Y-138034523D01*
X181338095Y-138129761D01*
X181433333Y-138177380D01*
X181528571Y-138177380D01*
X182814285Y-137177380D02*
X182909523Y-137177380D01*
X183004761Y-137225000D01*
X183052380Y-137272619D01*
X183100000Y-137367857D01*
X183147619Y-137558333D01*
X183147619Y-137796428D01*
X183100000Y-137986904D01*
X183052380Y-138082142D01*
X183004761Y-138129761D01*
X182909523Y-138177380D01*
X182814285Y-138177380D01*
X182719047Y-138129761D01*
X182671428Y-138082142D01*
X182623809Y-137986904D01*
X182576190Y-137796428D01*
X182576190Y-137558333D01*
X182623809Y-137367857D01*
X182671428Y-137272619D01*
X182719047Y-137225000D01*
X182814285Y-137177380D01*
X183576190Y-138082142D02*
X183623809Y-138129761D01*
X183576190Y-138177380D01*
X183528571Y-138129761D01*
X183576190Y-138082142D01*
X183576190Y-138177380D01*
X184195238Y-137605952D02*
X184100000Y-137558333D01*
X184052380Y-137510714D01*
X184004761Y-137415476D01*
X184004761Y-137367857D01*
X184052380Y-137272619D01*
X184100000Y-137225000D01*
X184195238Y-137177380D01*
X184385714Y-137177380D01*
X184480952Y-137225000D01*
X184528571Y-137272619D01*
X184576190Y-137367857D01*
X184576190Y-137415476D01*
X184528571Y-137510714D01*
X184480952Y-137558333D01*
X184385714Y-137605952D01*
X184195238Y-137605952D01*
X184100000Y-137653571D01*
X184052380Y-137701190D01*
X184004761Y-137796428D01*
X184004761Y-137986904D01*
X184052380Y-138082142D01*
X184100000Y-138129761D01*
X184195238Y-138177380D01*
X184385714Y-138177380D01*
X184480952Y-138129761D01*
X184528571Y-138082142D01*
X184576190Y-137986904D01*
X184576190Y-137796428D01*
X184528571Y-137701190D01*
X184480952Y-137653571D01*
X184385714Y-137605952D01*
X184957142Y-137177380D02*
X184957142Y-137367857D01*
X185338095Y-137177380D02*
X185338095Y-137367857D01*
X187052380Y-138177380D02*
X186480952Y-138177380D01*
X186766666Y-138177380D02*
X186766666Y-137177380D01*
X186671428Y-137320238D01*
X186576190Y-137415476D01*
X186480952Y-137463095D01*
X187623809Y-137605952D02*
X187528571Y-137558333D01*
X187480952Y-137510714D01*
X187433333Y-137415476D01*
X187433333Y-137367857D01*
X187480952Y-137272619D01*
X187528571Y-137225000D01*
X187623809Y-137177380D01*
X187814285Y-137177380D01*
X187909523Y-137225000D01*
X187957142Y-137272619D01*
X188004761Y-137367857D01*
X188004761Y-137415476D01*
X187957142Y-137510714D01*
X187909523Y-137558333D01*
X187814285Y-137605952D01*
X187623809Y-137605952D01*
X187528571Y-137653571D01*
X187480952Y-137701190D01*
X187433333Y-137796428D01*
X187433333Y-137986904D01*
X187480952Y-138082142D01*
X187528571Y-138129761D01*
X187623809Y-138177380D01*
X187814285Y-138177380D01*
X187909523Y-138129761D01*
X187957142Y-138082142D01*
X188004761Y-137986904D01*
X188004761Y-137796428D01*
X187957142Y-137701190D01*
X187909523Y-137653571D01*
X187814285Y-137605952D01*
X188433333Y-137510714D02*
X188433333Y-138510714D01*
X188433333Y-137558333D02*
X188528571Y-137510714D01*
X188719047Y-137510714D01*
X188814285Y-137558333D01*
X188861904Y-137605952D01*
X188909523Y-137701190D01*
X188909523Y-137986904D01*
X188861904Y-138082142D01*
X188814285Y-138129761D01*
X188719047Y-138177380D01*
X188528571Y-138177380D01*
X188433333Y-138129761D01*
X189338095Y-138177380D02*
X189338095Y-137510714D01*
X189338095Y-137177380D02*
X189290476Y-137225000D01*
X189338095Y-137272619D01*
X189385714Y-137225000D01*
X189338095Y-137177380D01*
X189338095Y-137272619D01*
X189814285Y-137510714D02*
X189814285Y-138177380D01*
X189814285Y-137605952D02*
X189861904Y-137558333D01*
X189957142Y-137510714D01*
X190100000Y-137510714D01*
X190195238Y-137558333D01*
X190242857Y-137653571D01*
X190242857Y-138177380D01*
X230600000Y-133850000D02*
X230600000Y-106150000D01*
X210600000Y-107150000D02*
X211600000Y-106150000D01*
X210600000Y-133850000D02*
X230600000Y-133850000D01*
X215600000Y-128000000D02*
X219600000Y-121000000D01*
X225600000Y-128000000D02*
X221600000Y-121000000D01*
X215600000Y-112000000D02*
X219600000Y-119000000D01*
X225600000Y-112000000D02*
X221600000Y-119000000D01*
X221600000Y-120000000D02*
X226600000Y-120000000D01*
X214600000Y-120000000D02*
X219600000Y-120000000D01*
X220600000Y-121000000D02*
X220600000Y-129000000D01*
X220600000Y-111000000D02*
X220600000Y-119000000D01*
X226600000Y-121000000D02*
X226600000Y-129000000D01*
X226600000Y-111000000D02*
X226600000Y-119000000D01*
X221600000Y-129000000D02*
X225600000Y-129000000D01*
X215600000Y-129000000D02*
X219600000Y-129000000D01*
X214600000Y-121000000D02*
X214600000Y-129000000D01*
X214600000Y-111000000D02*
X214600000Y-119000000D01*
X219600000Y-111000000D02*
X215600000Y-111000000D01*
X221600000Y-111000000D02*
X225600000Y-111000000D01*
X230600000Y-106150000D02*
X210600000Y-106150000D01*
X210600000Y-106150000D02*
X210600000Y-133850000D01*
X215550000Y-125100000D02*
X215600000Y-125100000D01*
X210400000Y-133850000D02*
X210400000Y-106150000D01*
X190400000Y-107150000D02*
X191400000Y-106150000D01*
X190400000Y-133850000D02*
X210400000Y-133850000D01*
X195400000Y-128000000D02*
X199400000Y-121000000D01*
X205400000Y-128000000D02*
X201400000Y-121000000D01*
X195400000Y-112000000D02*
X199400000Y-119000000D01*
X205400000Y-112000000D02*
X201400000Y-119000000D01*
X201400000Y-120000000D02*
X206400000Y-120000000D01*
X194400000Y-120000000D02*
X199400000Y-120000000D01*
X200400000Y-121000000D02*
X200400000Y-129000000D01*
X200400000Y-111000000D02*
X200400000Y-119000000D01*
X206400000Y-121000000D02*
X206400000Y-129000000D01*
X206400000Y-111000000D02*
X206400000Y-119000000D01*
X201400000Y-129000000D02*
X205400000Y-129000000D01*
X195400000Y-129000000D02*
X199400000Y-129000000D01*
X194400000Y-121000000D02*
X194400000Y-129000000D01*
X194400000Y-111000000D02*
X194400000Y-119000000D01*
X199400000Y-111000000D02*
X195400000Y-111000000D01*
X201400000Y-111000000D02*
X205400000Y-111000000D01*
X210400000Y-106150000D02*
X190400000Y-106150000D01*
X190400000Y-106150000D02*
X190400000Y-133850000D01*
X195350000Y-125100000D02*
X195400000Y-125100000D01*
X190200000Y-133850000D02*
X190200000Y-106150000D01*
X170200000Y-107150000D02*
X171200000Y-106150000D01*
X170200000Y-133850000D02*
X190200000Y-133850000D01*
X175200000Y-128000000D02*
X179200000Y-121000000D01*
X185200000Y-128000000D02*
X181200000Y-121000000D01*
X175200000Y-112000000D02*
X179200000Y-119000000D01*
X185200000Y-112000000D02*
X181200000Y-119000000D01*
X181200000Y-120000000D02*
X186200000Y-120000000D01*
X174200000Y-120000000D02*
X179200000Y-120000000D01*
X180200000Y-121000000D02*
X180200000Y-129000000D01*
X180200000Y-111000000D02*
X180200000Y-119000000D01*
X186200000Y-121000000D02*
X186200000Y-129000000D01*
X186200000Y-111000000D02*
X186200000Y-119000000D01*
X181200000Y-129000000D02*
X185200000Y-129000000D01*
X175200000Y-129000000D02*
X179200000Y-129000000D01*
X174200000Y-121000000D02*
X174200000Y-129000000D01*
X174200000Y-111000000D02*
X174200000Y-119000000D01*
X179200000Y-111000000D02*
X175200000Y-111000000D01*
X181200000Y-111000000D02*
X185200000Y-111000000D01*
X190200000Y-106150000D02*
X170200000Y-106150000D01*
X170200000Y-106150000D02*
X170200000Y-133850000D01*
X175150000Y-125100000D02*
X175200000Y-125100000D01*
X170000000Y-133850000D02*
X170000000Y-106150000D01*
X150000000Y-107150000D02*
X151000000Y-106150000D01*
X150000000Y-133850000D02*
X170000000Y-133850000D01*
X155000000Y-128000000D02*
X159000000Y-121000000D01*
X165000000Y-128000000D02*
X161000000Y-121000000D01*
X155000000Y-112000000D02*
X159000000Y-119000000D01*
X165000000Y-112000000D02*
X161000000Y-119000000D01*
X161000000Y-120000000D02*
X166000000Y-120000000D01*
X154000000Y-120000000D02*
X159000000Y-120000000D01*
X160000000Y-121000000D02*
X160000000Y-129000000D01*
X160000000Y-111000000D02*
X160000000Y-119000000D01*
X166000000Y-121000000D02*
X166000000Y-129000000D01*
X166000000Y-111000000D02*
X166000000Y-119000000D01*
X161000000Y-129000000D02*
X165000000Y-129000000D01*
X155000000Y-129000000D02*
X159000000Y-129000000D01*
X154000000Y-121000000D02*
X154000000Y-129000000D01*
X154000000Y-111000000D02*
X154000000Y-119000000D01*
X159000000Y-111000000D02*
X155000000Y-111000000D01*
X161000000Y-111000000D02*
X165000000Y-111000000D01*
X170000000Y-106150000D02*
X150000000Y-106150000D01*
X150000000Y-106150000D02*
X150000000Y-133850000D01*
X154950000Y-125100000D02*
X155000000Y-125100000D01*
D11*
X222722815Y-101719173D02*
G75*
G03X217375000Y-101255170I-2787815J-1080827D01*
G01*
X222722815Y-103880827D02*
G75*
G02X217375000Y-104344830I-2787815J1080827D01*
G01*
X222189479Y-101719571D02*
G75*
G03X217680316Y-101720000I-2254479J-1080429D01*
G01*
X222189479Y-103880429D02*
G75*
G02X217680316Y-103880000I-2254479J1080429D01*
G01*
X217375000Y-101255000D02*
X217375000Y-101720000D01*
X217375000Y-103880000D02*
X217375000Y-104345000D01*
X202992815Y-101719173D02*
G75*
G03X197645000Y-101255170I-2787815J-1080827D01*
G01*
X202992815Y-103880827D02*
G75*
G02X197645000Y-104344830I-2787815J1080827D01*
G01*
X202459479Y-101719571D02*
G75*
G03X197950316Y-101720000I-2254479J-1080429D01*
G01*
X202459479Y-103880429D02*
G75*
G02X197950316Y-103880000I-2254479J1080429D01*
G01*
X197645000Y-101255000D02*
X197645000Y-101720000D01*
X197645000Y-103880000D02*
X197645000Y-104345000D01*
X182992815Y-101719173D02*
G75*
G03X177645000Y-101255170I-2787815J-1080827D01*
G01*
X182992815Y-103880827D02*
G75*
G02X177645000Y-104344830I-2787815J1080827D01*
G01*
X182459479Y-101719571D02*
G75*
G03X177950316Y-101720000I-2254479J-1080429D01*
G01*
X182459479Y-103880429D02*
G75*
G02X177950316Y-103880000I-2254479J1080429D01*
G01*
X177645000Y-101255000D02*
X177645000Y-101720000D01*
X177645000Y-103880000D02*
X177645000Y-104345000D01*
X162452815Y-101719173D02*
G75*
G03X157105000Y-101255170I-2787815J-1080827D01*
G01*
X162452815Y-103880827D02*
G75*
G02X157105000Y-104344830I-2787815J1080827D01*
G01*
X161919479Y-101719571D02*
G75*
G03X157410316Y-101720000I-2254479J-1080429D01*
G01*
X161919479Y-103880429D02*
G75*
G02X157410316Y-103880000I-2254479J1080429D01*
G01*
X157105000Y-101255000D02*
X157105000Y-101720000D01*
X157105000Y-103880000D02*
X157105000Y-104345000D01*
D10*
X219838095Y-104452380D02*
X219838095Y-105261904D01*
X219885714Y-105357142D01*
X219933333Y-105404761D01*
X220028571Y-105452380D01*
X220219047Y-105452380D01*
X220314285Y-105404761D01*
X220361904Y-105357142D01*
X220409523Y-105261904D01*
X220409523Y-104452380D01*
X221314285Y-104785714D02*
X221314285Y-105452380D01*
X221076190Y-104404761D02*
X220838095Y-105119047D01*
X221457142Y-105119047D01*
X199638095Y-104452380D02*
X199638095Y-105261904D01*
X199685714Y-105357142D01*
X199733333Y-105404761D01*
X199828571Y-105452380D01*
X200019047Y-105452380D01*
X200114285Y-105404761D01*
X200161904Y-105357142D01*
X200209523Y-105261904D01*
X200209523Y-104452380D01*
X200590476Y-104452380D02*
X201209523Y-104452380D01*
X200876190Y-104833333D01*
X201019047Y-104833333D01*
X201114285Y-104880952D01*
X201161904Y-104928571D01*
X201209523Y-105023809D01*
X201209523Y-105261904D01*
X201161904Y-105357142D01*
X201114285Y-105404761D01*
X201019047Y-105452380D01*
X200733333Y-105452380D01*
X200638095Y-105404761D01*
X200590476Y-105357142D01*
X179438095Y-104452380D02*
X179438095Y-105261904D01*
X179485714Y-105357142D01*
X179533333Y-105404761D01*
X179628571Y-105452380D01*
X179819047Y-105452380D01*
X179914285Y-105404761D01*
X179961904Y-105357142D01*
X180009523Y-105261904D01*
X180009523Y-104452380D01*
X180438095Y-104547619D02*
X180485714Y-104500000D01*
X180580952Y-104452380D01*
X180819047Y-104452380D01*
X180914285Y-104500000D01*
X180961904Y-104547619D01*
X181009523Y-104642857D01*
X181009523Y-104738095D01*
X180961904Y-104880952D01*
X180390476Y-105452380D01*
X181009523Y-105452380D01*
X159238095Y-104452380D02*
X159238095Y-105261904D01*
X159285714Y-105357142D01*
X159333333Y-105404761D01*
X159428571Y-105452380D01*
X159619047Y-105452380D01*
X159714285Y-105404761D01*
X159761904Y-105357142D01*
X159809523Y-105261904D01*
X159809523Y-104452380D01*
X160809523Y-105452380D02*
X160238095Y-105452380D01*
X160523809Y-105452380D02*
X160523809Y-104452380D01*
X160428571Y-104595238D01*
X160333333Y-104690476D01*
X160238095Y-104738095D01*
X223455284Y-101220380D02*
X223455284Y-100220380D01*
X223693380Y-100220380D01*
X223836237Y-100268000D01*
X223931475Y-100363238D01*
X223979094Y-100458476D01*
X224026713Y-100648952D01*
X224026713Y-100791809D01*
X223979094Y-100982285D01*
X223931475Y-101077523D01*
X223836237Y-101172761D01*
X223693380Y-101220380D01*
X223455284Y-101220380D01*
X224883856Y-100553714D02*
X224883856Y-101220380D01*
X224645760Y-100172761D02*
X224407665Y-100887047D01*
X225026713Y-100887047D01*
X203635664Y-101220380D02*
X203635664Y-100220380D01*
X203873760Y-100220380D01*
X204016617Y-100268000D01*
X204111855Y-100363238D01*
X204159474Y-100458476D01*
X204207093Y-100648952D01*
X204207093Y-100791809D01*
X204159474Y-100982285D01*
X204111855Y-101077523D01*
X204016617Y-101172761D01*
X203873760Y-101220380D01*
X203635664Y-101220380D01*
X204540426Y-100220380D02*
X205159474Y-100220380D01*
X204826140Y-100601333D01*
X204968998Y-100601333D01*
X205064236Y-100648952D01*
X205111855Y-100696571D01*
X205159474Y-100791809D01*
X205159474Y-101029904D01*
X205111855Y-101125142D01*
X205064236Y-101172761D01*
X204968998Y-101220380D01*
X204683283Y-101220380D01*
X204588045Y-101172761D01*
X204540426Y-101125142D01*
X183760164Y-101144180D02*
X183760164Y-100144180D01*
X183998260Y-100144180D01*
X184141117Y-100191800D01*
X184236355Y-100287038D01*
X184283974Y-100382276D01*
X184331593Y-100572752D01*
X184331593Y-100715609D01*
X184283974Y-100906085D01*
X184236355Y-101001323D01*
X184141117Y-101096561D01*
X183998260Y-101144180D01*
X183760164Y-101144180D01*
X184712545Y-100239419D02*
X184760164Y-100191800D01*
X184855402Y-100144180D01*
X185093498Y-100144180D01*
X185188736Y-100191800D01*
X185236355Y-100239419D01*
X185283974Y-100334657D01*
X185283974Y-100429895D01*
X185236355Y-100572752D01*
X184664926Y-101144180D01*
X185283974Y-101144180D01*
X163109964Y-101088300D02*
X163109964Y-100088300D01*
X163348060Y-100088300D01*
X163490917Y-100135920D01*
X163586155Y-100231158D01*
X163633774Y-100326396D01*
X163681393Y-100516872D01*
X163681393Y-100659729D01*
X163633774Y-100850205D01*
X163586155Y-100945443D01*
X163490917Y-101040681D01*
X163348060Y-101088300D01*
X163109964Y-101088300D01*
X164633774Y-101088300D02*
X164062345Y-101088300D01*
X164348060Y-101088300D02*
X164348060Y-100088300D01*
X164252821Y-100231158D01*
X164157583Y-100326396D01*
X164062345Y-100374015D01*
M02*
