G04 #@! TF.GenerationSoftware,KiCad,Pcbnew,(5.1.4)-1*
G04 #@! TF.CreationDate,2019-09-25T15:42:07+02:00*
G04 #@! TF.ProjectId,Display4x16segment,44697370-6c61-4793-9478-31367365676d,rev?*
G04 #@! TF.SameCoordinates,Original*
G04 #@! TF.FileFunction,Legend,Bot*
G04 #@! TF.FilePolarity,Positive*
%FSLAX46Y46*%
G04 Gerber Fmt 4.6, Leading zero omitted, Abs format (unit mm)*
G04 Created by KiCad (PCBNEW (5.1.4)-1) date 2019-09-25 15:42:07*
%MOMM*%
%LPD*%
G04 APERTURE LIST*
%ADD10C,0.150000*%
%ADD11C,0.120000*%
G04 APERTURE END LIST*
D10*
X172138095Y-136052380D02*
X172138095Y-135052380D01*
X171900000Y-135052380D01*
X171757142Y-135100000D01*
X171661904Y-135195238D01*
X171614285Y-135290476D01*
X171566666Y-135480952D01*
X171566666Y-135623809D01*
X171614285Y-135814285D01*
X171661904Y-135909523D01*
X171757142Y-136004761D01*
X171900000Y-136052380D01*
X172138095Y-136052380D01*
X171138095Y-136052380D02*
X171138095Y-135052380D01*
X170757142Y-135052380D01*
X170661904Y-135100000D01*
X170614285Y-135147619D01*
X170566666Y-135242857D01*
X170566666Y-135385714D01*
X170614285Y-135480952D01*
X170661904Y-135528571D01*
X170757142Y-135576190D01*
X171138095Y-135576190D01*
X170233333Y-135052380D02*
X169614285Y-135052380D01*
X169947619Y-135433333D01*
X169804761Y-135433333D01*
X169709523Y-135480952D01*
X169661904Y-135528571D01*
X169614285Y-135623809D01*
X169614285Y-135861904D01*
X169661904Y-135957142D01*
X169709523Y-136004761D01*
X169804761Y-136052380D01*
X170090476Y-136052380D01*
X170185714Y-136004761D01*
X170233333Y-135957142D01*
X164438095Y-136052380D02*
X164438095Y-135052380D01*
X164200000Y-135052380D01*
X164057142Y-135100000D01*
X163961904Y-135195238D01*
X163914285Y-135290476D01*
X163866666Y-135480952D01*
X163866666Y-135623809D01*
X163914285Y-135814285D01*
X163961904Y-135909523D01*
X164057142Y-136004761D01*
X164200000Y-136052380D01*
X164438095Y-136052380D01*
X163438095Y-136052380D02*
X163438095Y-135052380D01*
X163057142Y-135052380D01*
X162961904Y-135100000D01*
X162914285Y-135147619D01*
X162866666Y-135242857D01*
X162866666Y-135385714D01*
X162914285Y-135480952D01*
X162961904Y-135528571D01*
X163057142Y-135576190D01*
X163438095Y-135576190D01*
X162247619Y-135052380D02*
X162152380Y-135052380D01*
X162057142Y-135100000D01*
X162009523Y-135147619D01*
X161961904Y-135242857D01*
X161914285Y-135433333D01*
X161914285Y-135671428D01*
X161961904Y-135861904D01*
X162009523Y-135957142D01*
X162057142Y-136004761D01*
X162152380Y-136052380D01*
X162247619Y-136052380D01*
X162342857Y-136004761D01*
X162390476Y-135957142D01*
X162438095Y-135861904D01*
X162485714Y-135671428D01*
X162485714Y-135433333D01*
X162438095Y-135242857D01*
X162390476Y-135147619D01*
X162342857Y-135100000D01*
X162247619Y-135052380D01*
X161533333Y-135052380D02*
X161200000Y-136052380D01*
X160866666Y-135052380D01*
X159961904Y-135957142D02*
X160009523Y-136004761D01*
X160152380Y-136052380D01*
X160247619Y-136052380D01*
X160390476Y-136004761D01*
X160485714Y-135909523D01*
X160533333Y-135814285D01*
X160580952Y-135623809D01*
X160580952Y-135480952D01*
X160533333Y-135290476D01*
X160485714Y-135195238D01*
X160390476Y-135100000D01*
X160247619Y-135052380D01*
X160152380Y-135052380D01*
X160009523Y-135100000D01*
X159961904Y-135147619D01*
X158961904Y-135957142D02*
X159009523Y-136004761D01*
X159152380Y-136052380D01*
X159247619Y-136052380D01*
X159390476Y-136004761D01*
X159485714Y-135909523D01*
X159533333Y-135814285D01*
X159580952Y-135623809D01*
X159580952Y-135480952D01*
X159533333Y-135290476D01*
X159485714Y-135195238D01*
X159390476Y-135100000D01*
X159247619Y-135052380D01*
X159152380Y-135052380D01*
X159009523Y-135100000D01*
X158961904Y-135147619D01*
X219638095Y-107452380D02*
X219638095Y-106452380D01*
X219400000Y-106452380D01*
X219257142Y-106500000D01*
X219161904Y-106595238D01*
X219114285Y-106690476D01*
X219066666Y-106880952D01*
X219066666Y-107023809D01*
X219114285Y-107214285D01*
X219161904Y-107309523D01*
X219257142Y-107404761D01*
X219400000Y-107452380D01*
X219638095Y-107452380D01*
X218495238Y-107452380D02*
X218590476Y-107404761D01*
X218638095Y-107357142D01*
X218685714Y-107261904D01*
X218685714Y-106976190D01*
X218638095Y-106880952D01*
X218590476Y-106833333D01*
X218495238Y-106785714D01*
X218352380Y-106785714D01*
X218257142Y-106833333D01*
X218209523Y-106880952D01*
X218161904Y-106976190D01*
X218161904Y-107261904D01*
X218209523Y-107357142D01*
X218257142Y-107404761D01*
X218352380Y-107452380D01*
X218495238Y-107452380D01*
X217304761Y-107404761D02*
X217400000Y-107452380D01*
X217590476Y-107452380D01*
X217685714Y-107404761D01*
X217733333Y-107357142D01*
X217780952Y-107261904D01*
X217780952Y-106976190D01*
X217733333Y-106880952D01*
X217685714Y-106833333D01*
X217590476Y-106785714D01*
X217400000Y-106785714D01*
X217304761Y-106833333D01*
X216447619Y-106785714D02*
X216447619Y-107452380D01*
X216876190Y-106785714D02*
X216876190Y-107309523D01*
X216828571Y-107404761D01*
X216733333Y-107452380D01*
X216590476Y-107452380D01*
X216495238Y-107404761D01*
X216447619Y-107357142D01*
X215971428Y-107452380D02*
X215971428Y-106785714D01*
X215971428Y-106880952D02*
X215923809Y-106833333D01*
X215828571Y-106785714D01*
X215685714Y-106785714D01*
X215590476Y-106833333D01*
X215542857Y-106928571D01*
X215542857Y-107452380D01*
X215542857Y-106928571D02*
X215495238Y-106833333D01*
X215400000Y-106785714D01*
X215257142Y-106785714D01*
X215161904Y-106833333D01*
X215114285Y-106928571D01*
X215114285Y-107452380D01*
X214257142Y-107404761D02*
X214352380Y-107452380D01*
X214542857Y-107452380D01*
X214638095Y-107404761D01*
X214685714Y-107309523D01*
X214685714Y-106928571D01*
X214638095Y-106833333D01*
X214542857Y-106785714D01*
X214352380Y-106785714D01*
X214257142Y-106833333D01*
X214209523Y-106928571D01*
X214209523Y-107023809D01*
X214685714Y-107119047D01*
X213780952Y-106785714D02*
X213780952Y-107452380D01*
X213780952Y-106880952D02*
X213733333Y-106833333D01*
X213638095Y-106785714D01*
X213495238Y-106785714D01*
X213400000Y-106833333D01*
X213352380Y-106928571D01*
X213352380Y-107452380D01*
X213019047Y-106785714D02*
X212638095Y-106785714D01*
X212876190Y-106452380D02*
X212876190Y-107309523D01*
X212828571Y-107404761D01*
X212733333Y-107452380D01*
X212638095Y-107452380D01*
X211876190Y-107452380D02*
X211876190Y-106928571D01*
X211923809Y-106833333D01*
X212019047Y-106785714D01*
X212209523Y-106785714D01*
X212304761Y-106833333D01*
X211876190Y-107404761D02*
X211971428Y-107452380D01*
X212209523Y-107452380D01*
X212304761Y-107404761D01*
X212352380Y-107309523D01*
X212352380Y-107214285D01*
X212304761Y-107119047D01*
X212209523Y-107071428D01*
X211971428Y-107071428D01*
X211876190Y-107023809D01*
X211542857Y-106785714D02*
X211161904Y-106785714D01*
X211400000Y-106452380D02*
X211400000Y-107309523D01*
X211352380Y-107404761D01*
X211257142Y-107452380D01*
X211161904Y-107452380D01*
X210828571Y-107452380D02*
X210828571Y-106785714D01*
X210828571Y-106452380D02*
X210876190Y-106500000D01*
X210828571Y-106547619D01*
X210780952Y-106500000D01*
X210828571Y-106452380D01*
X210828571Y-106547619D01*
X210209523Y-107452380D02*
X210304761Y-107404761D01*
X210352380Y-107357142D01*
X210400000Y-107261904D01*
X210400000Y-106976190D01*
X210352380Y-106880952D01*
X210304761Y-106833333D01*
X210209523Y-106785714D01*
X210066666Y-106785714D01*
X209971428Y-106833333D01*
X209923809Y-106880952D01*
X209876190Y-106976190D01*
X209876190Y-107261904D01*
X209923809Y-107357142D01*
X209971428Y-107404761D01*
X210066666Y-107452380D01*
X210209523Y-107452380D01*
X209447619Y-106785714D02*
X209447619Y-107452380D01*
X209447619Y-106880952D02*
X209400000Y-106833333D01*
X209304761Y-106785714D01*
X209161904Y-106785714D01*
X209066666Y-106833333D01*
X209019047Y-106928571D01*
X209019047Y-107452380D01*
X208542857Y-107357142D02*
X208495238Y-107404761D01*
X208542857Y-107452380D01*
X208590476Y-107404761D01*
X208542857Y-107357142D01*
X208542857Y-107452380D01*
X208542857Y-106833333D02*
X208495238Y-106880952D01*
X208542857Y-106928571D01*
X208590476Y-106880952D01*
X208542857Y-106833333D01*
X208542857Y-106928571D01*
X207304761Y-107452380D02*
X207304761Y-106452380D01*
X206876190Y-107452380D02*
X206876190Y-106928571D01*
X206923809Y-106833333D01*
X207019047Y-106785714D01*
X207161904Y-106785714D01*
X207257142Y-106833333D01*
X207304761Y-106880952D01*
X206542857Y-106785714D02*
X206161904Y-106785714D01*
X206400000Y-106452380D02*
X206400000Y-107309523D01*
X206352380Y-107404761D01*
X206257142Y-107452380D01*
X206161904Y-107452380D01*
X205971428Y-106785714D02*
X205590476Y-106785714D01*
X205828571Y-106452380D02*
X205828571Y-107309523D01*
X205780952Y-107404761D01*
X205685714Y-107452380D01*
X205590476Y-107452380D01*
X205257142Y-106785714D02*
X205257142Y-107785714D01*
X205257142Y-106833333D02*
X205161904Y-106785714D01*
X204971428Y-106785714D01*
X204876190Y-106833333D01*
X204828571Y-106880952D01*
X204780952Y-106976190D01*
X204780952Y-107261904D01*
X204828571Y-107357142D01*
X204876190Y-107404761D01*
X204971428Y-107452380D01*
X205161904Y-107452380D01*
X205257142Y-107404761D01*
X204352380Y-107357142D02*
X204304761Y-107404761D01*
X204352380Y-107452380D01*
X204400000Y-107404761D01*
X204352380Y-107357142D01*
X204352380Y-107452380D01*
X204352380Y-106833333D02*
X204304761Y-106880952D01*
X204352380Y-106928571D01*
X204400000Y-106880952D01*
X204352380Y-106833333D01*
X204352380Y-106928571D01*
X203161904Y-106404761D02*
X204019047Y-107690476D01*
X202114285Y-106404761D02*
X202971428Y-107690476D01*
X201638095Y-107452380D02*
X201733333Y-107404761D01*
X201780952Y-107309523D01*
X201780952Y-106452380D01*
X201352380Y-106785714D02*
X201114285Y-107452380D01*
X200876190Y-106785714D02*
X201114285Y-107452380D01*
X201209523Y-107690476D01*
X201257142Y-107738095D01*
X201352380Y-107785714D01*
X200066666Y-106785714D02*
X200066666Y-107595238D01*
X200114285Y-107690476D01*
X200161904Y-107738095D01*
X200257142Y-107785714D01*
X200400000Y-107785714D01*
X200495238Y-107738095D01*
X200066666Y-107404761D02*
X200161904Y-107452380D01*
X200352380Y-107452380D01*
X200447619Y-107404761D01*
X200495238Y-107357142D01*
X200542857Y-107261904D01*
X200542857Y-106976190D01*
X200495238Y-106880952D01*
X200447619Y-106833333D01*
X200352380Y-106785714D01*
X200161904Y-106785714D01*
X200066666Y-106833333D01*
X199733333Y-106785714D02*
X199352380Y-106785714D01*
X199590476Y-106452380D02*
X199590476Y-107309523D01*
X199542857Y-107404761D01*
X199447619Y-107452380D01*
X199352380Y-107452380D01*
X198638095Y-107404761D02*
X198733333Y-107452380D01*
X198923809Y-107452380D01*
X199019047Y-107404761D01*
X199066666Y-107309523D01*
X199066666Y-106928571D01*
X199019047Y-106833333D01*
X198923809Y-106785714D01*
X198733333Y-106785714D01*
X198638095Y-106833333D01*
X198590476Y-106928571D01*
X198590476Y-107023809D01*
X199066666Y-107119047D01*
X198161904Y-107071428D02*
X197400000Y-107071428D01*
X196923809Y-107452380D02*
X196923809Y-106785714D01*
X196923809Y-106452380D02*
X196971428Y-106500000D01*
X196923809Y-106547619D01*
X196876190Y-106500000D01*
X196923809Y-106452380D01*
X196923809Y-106547619D01*
X196447619Y-106785714D02*
X196447619Y-107452380D01*
X196447619Y-106880952D02*
X196400000Y-106833333D01*
X196304761Y-106785714D01*
X196161904Y-106785714D01*
X196066666Y-106833333D01*
X196019047Y-106928571D01*
X196019047Y-107452380D01*
X195685714Y-106785714D02*
X195304761Y-106785714D01*
X195542857Y-107452380D02*
X195542857Y-106595238D01*
X195495238Y-106500000D01*
X195400000Y-106452380D01*
X195304761Y-106452380D01*
X194828571Y-107452380D02*
X194923809Y-107404761D01*
X194971428Y-107357142D01*
X195019047Y-107261904D01*
X195019047Y-106976190D01*
X194971428Y-106880952D01*
X194923809Y-106833333D01*
X194828571Y-106785714D01*
X194685714Y-106785714D01*
X194590476Y-106833333D01*
X194542857Y-106880952D01*
X194495238Y-106976190D01*
X194495238Y-107261904D01*
X194542857Y-107357142D01*
X194590476Y-107404761D01*
X194685714Y-107452380D01*
X194828571Y-107452380D01*
X194066666Y-107357142D02*
X194019047Y-107404761D01*
X194066666Y-107452380D01*
X194114285Y-107404761D01*
X194066666Y-107357142D01*
X194066666Y-107452380D01*
X193161904Y-107452380D02*
X193161904Y-106452380D01*
X193161904Y-107404761D02*
X193257142Y-107452380D01*
X193447619Y-107452380D01*
X193542857Y-107404761D01*
X193590476Y-107357142D01*
X193638095Y-107261904D01*
X193638095Y-106976190D01*
X193590476Y-106880952D01*
X193542857Y-106833333D01*
X193447619Y-106785714D01*
X193257142Y-106785714D01*
X193161904Y-106833333D01*
X192685714Y-107452380D02*
X192685714Y-106452380D01*
X192590476Y-107071428D02*
X192304761Y-107452380D01*
X192304761Y-106785714D02*
X192685714Y-107166666D01*
X191161904Y-106404761D02*
X192019047Y-107690476D01*
X190828571Y-106785714D02*
X190828571Y-107785714D01*
X190828571Y-106833333D02*
X190733333Y-106785714D01*
X190542857Y-106785714D01*
X190447619Y-106833333D01*
X190400000Y-106880952D01*
X190352380Y-106976190D01*
X190352380Y-107261904D01*
X190400000Y-107357142D01*
X190447619Y-107404761D01*
X190542857Y-107452380D01*
X190733333Y-107452380D01*
X190828571Y-107404761D01*
X189923809Y-107452380D02*
X189923809Y-106785714D01*
X189923809Y-106976190D02*
X189876190Y-106880952D01*
X189828571Y-106833333D01*
X189733333Y-106785714D01*
X189638095Y-106785714D01*
X189161904Y-107452380D02*
X189257142Y-107404761D01*
X189304761Y-107357142D01*
X189352380Y-107261904D01*
X189352380Y-106976190D01*
X189304761Y-106880952D01*
X189257142Y-106833333D01*
X189161904Y-106785714D01*
X189019047Y-106785714D01*
X188923809Y-106833333D01*
X188876190Y-106880952D01*
X188828571Y-106976190D01*
X188828571Y-107261904D01*
X188876190Y-107357142D01*
X188923809Y-107404761D01*
X189019047Y-107452380D01*
X189161904Y-107452380D01*
X188400000Y-106785714D02*
X188400000Y-107642857D01*
X188447619Y-107738095D01*
X188542857Y-107785714D01*
X188590476Y-107785714D01*
X188400000Y-106452380D02*
X188447619Y-106500000D01*
X188400000Y-106547619D01*
X188352380Y-106500000D01*
X188400000Y-106452380D01*
X188400000Y-106547619D01*
X187542857Y-107404761D02*
X187638095Y-107452380D01*
X187828571Y-107452380D01*
X187923809Y-107404761D01*
X187971428Y-107309523D01*
X187971428Y-106928571D01*
X187923809Y-106833333D01*
X187828571Y-106785714D01*
X187638095Y-106785714D01*
X187542857Y-106833333D01*
X187495238Y-106928571D01*
X187495238Y-107023809D01*
X187971428Y-107119047D01*
X186638095Y-107404761D02*
X186733333Y-107452380D01*
X186923809Y-107452380D01*
X187019047Y-107404761D01*
X187066666Y-107357142D01*
X187114285Y-107261904D01*
X187114285Y-106976190D01*
X187066666Y-106880952D01*
X187019047Y-106833333D01*
X186923809Y-106785714D01*
X186733333Y-106785714D01*
X186638095Y-106833333D01*
X186352380Y-106785714D02*
X185971428Y-106785714D01*
X186209523Y-106452380D02*
X186209523Y-107309523D01*
X186161904Y-107404761D01*
X186066666Y-107452380D01*
X185971428Y-107452380D01*
X184923809Y-106404761D02*
X185780952Y-107690476D01*
X184590476Y-107452380D02*
X184590476Y-106452380D01*
X184352380Y-106452380D01*
X184209523Y-106500000D01*
X184114285Y-106595238D01*
X184066666Y-106690476D01*
X184019047Y-106880952D01*
X184019047Y-107023809D01*
X184066666Y-107214285D01*
X184114285Y-107309523D01*
X184209523Y-107404761D01*
X184352380Y-107452380D01*
X184590476Y-107452380D01*
X183590476Y-107452380D02*
X183590476Y-106785714D01*
X183590476Y-106452380D02*
X183638095Y-106500000D01*
X183590476Y-106547619D01*
X183542857Y-106500000D01*
X183590476Y-106452380D01*
X183590476Y-106547619D01*
X183161904Y-107404761D02*
X183066666Y-107452380D01*
X182876190Y-107452380D01*
X182780952Y-107404761D01*
X182733333Y-107309523D01*
X182733333Y-107261904D01*
X182780952Y-107166666D01*
X182876190Y-107119047D01*
X183019047Y-107119047D01*
X183114285Y-107071428D01*
X183161904Y-106976190D01*
X183161904Y-106928571D01*
X183114285Y-106833333D01*
X183019047Y-106785714D01*
X182876190Y-106785714D01*
X182780952Y-106833333D01*
X182304761Y-106785714D02*
X182304761Y-107785714D01*
X182304761Y-106833333D02*
X182209523Y-106785714D01*
X182019047Y-106785714D01*
X181923809Y-106833333D01*
X181876190Y-106880952D01*
X181828571Y-106976190D01*
X181828571Y-107261904D01*
X181876190Y-107357142D01*
X181923809Y-107404761D01*
X182019047Y-107452380D01*
X182209523Y-107452380D01*
X182304761Y-107404761D01*
X181257142Y-107452380D02*
X181352380Y-107404761D01*
X181400000Y-107309523D01*
X181400000Y-106452380D01*
X180447619Y-107452380D02*
X180447619Y-106928571D01*
X180495238Y-106833333D01*
X180590476Y-106785714D01*
X180780952Y-106785714D01*
X180876190Y-106833333D01*
X180447619Y-107404761D02*
X180542857Y-107452380D01*
X180780952Y-107452380D01*
X180876190Y-107404761D01*
X180923809Y-107309523D01*
X180923809Y-107214285D01*
X180876190Y-107119047D01*
X180780952Y-107071428D01*
X180542857Y-107071428D01*
X180447619Y-107023809D01*
X180066666Y-106785714D02*
X179828571Y-107452380D01*
X179590476Y-106785714D02*
X179828571Y-107452380D01*
X179923809Y-107690476D01*
X179971428Y-107738095D01*
X180066666Y-107785714D01*
X178780952Y-106785714D02*
X178780952Y-107452380D01*
X179019047Y-106404761D02*
X179257142Y-107119047D01*
X178638095Y-107119047D01*
X178352380Y-107452380D02*
X177828571Y-106785714D01*
X178352380Y-106785714D02*
X177828571Y-107452380D01*
X176923809Y-107452380D02*
X177495238Y-107452380D01*
X177209523Y-107452380D02*
X177209523Y-106452380D01*
X177304761Y-106595238D01*
X177400000Y-106690476D01*
X177495238Y-106738095D01*
X176066666Y-106452380D02*
X176257142Y-106452380D01*
X176352380Y-106500000D01*
X176400000Y-106547619D01*
X176495238Y-106690476D01*
X176542857Y-106880952D01*
X176542857Y-107261904D01*
X176495238Y-107357142D01*
X176447619Y-107404761D01*
X176352380Y-107452380D01*
X176161904Y-107452380D01*
X176066666Y-107404761D01*
X176019047Y-107357142D01*
X175971428Y-107261904D01*
X175971428Y-107023809D01*
X176019047Y-106928571D01*
X176066666Y-106880952D01*
X176161904Y-106833333D01*
X176352380Y-106833333D01*
X176447619Y-106880952D01*
X176495238Y-106928571D01*
X176542857Y-107023809D01*
X175590476Y-107404761D02*
X175495238Y-107452380D01*
X175304761Y-107452380D01*
X175209523Y-107404761D01*
X175161904Y-107309523D01*
X175161904Y-107261904D01*
X175209523Y-107166666D01*
X175304761Y-107119047D01*
X175447619Y-107119047D01*
X175542857Y-107071428D01*
X175590476Y-106976190D01*
X175590476Y-106928571D01*
X175542857Y-106833333D01*
X175447619Y-106785714D01*
X175304761Y-106785714D01*
X175209523Y-106833333D01*
X174352380Y-107404761D02*
X174447619Y-107452380D01*
X174638095Y-107452380D01*
X174733333Y-107404761D01*
X174780952Y-107309523D01*
X174780952Y-106928571D01*
X174733333Y-106833333D01*
X174638095Y-106785714D01*
X174447619Y-106785714D01*
X174352380Y-106833333D01*
X174304761Y-106928571D01*
X174304761Y-107023809D01*
X174780952Y-107119047D01*
X173447619Y-106785714D02*
X173447619Y-107595238D01*
X173495238Y-107690476D01*
X173542857Y-107738095D01*
X173638095Y-107785714D01*
X173780952Y-107785714D01*
X173876190Y-107738095D01*
X173447619Y-107404761D02*
X173542857Y-107452380D01*
X173733333Y-107452380D01*
X173828571Y-107404761D01*
X173876190Y-107357142D01*
X173923809Y-107261904D01*
X173923809Y-106976190D01*
X173876190Y-106880952D01*
X173828571Y-106833333D01*
X173733333Y-106785714D01*
X173542857Y-106785714D01*
X173447619Y-106833333D01*
X172971428Y-107452380D02*
X172971428Y-106785714D01*
X172971428Y-106880952D02*
X172923809Y-106833333D01*
X172828571Y-106785714D01*
X172685714Y-106785714D01*
X172590476Y-106833333D01*
X172542857Y-106928571D01*
X172542857Y-107452380D01*
X172542857Y-106928571D02*
X172495238Y-106833333D01*
X172400000Y-106785714D01*
X172257142Y-106785714D01*
X172161904Y-106833333D01*
X172114285Y-106928571D01*
X172114285Y-107452380D01*
X171257142Y-107404761D02*
X171352380Y-107452380D01*
X171542857Y-107452380D01*
X171638095Y-107404761D01*
X171685714Y-107309523D01*
X171685714Y-106928571D01*
X171638095Y-106833333D01*
X171542857Y-106785714D01*
X171352380Y-106785714D01*
X171257142Y-106833333D01*
X171209523Y-106928571D01*
X171209523Y-107023809D01*
X171685714Y-107119047D01*
X170780952Y-106785714D02*
X170780952Y-107452380D01*
X170780952Y-106880952D02*
X170733333Y-106833333D01*
X170638095Y-106785714D01*
X170495238Y-106785714D01*
X170400000Y-106833333D01*
X170352380Y-106928571D01*
X170352380Y-107452380D01*
X170019047Y-106785714D02*
X169638095Y-106785714D01*
X169876190Y-106452380D02*
X169876190Y-107309523D01*
X169828571Y-107404761D01*
X169733333Y-107452380D01*
X169638095Y-107452380D01*
X168542857Y-106452380D02*
X168542857Y-107261904D01*
X168495238Y-107357142D01*
X168447619Y-107404761D01*
X168352380Y-107452380D01*
X168161904Y-107452380D01*
X168066666Y-107404761D01*
X168019047Y-107357142D01*
X167971428Y-107261904D01*
X167971428Y-106452380D01*
X167495238Y-107452380D02*
X167495238Y-106452380D01*
X166923809Y-107452380D02*
X167352380Y-106880952D01*
X166923809Y-106452380D02*
X167495238Y-107023809D01*
X166495238Y-107357142D02*
X166447619Y-107404761D01*
X166495238Y-107452380D01*
X166542857Y-107404761D01*
X166495238Y-107357142D01*
X166495238Y-107452380D01*
X166019047Y-107452380D02*
X166019047Y-106452380D01*
X165590476Y-107452380D02*
X165590476Y-106928571D01*
X165638095Y-106833333D01*
X165733333Y-106785714D01*
X165876190Y-106785714D01*
X165971428Y-106833333D01*
X166019047Y-106880952D01*
X165257142Y-106785714D02*
X164876190Y-106785714D01*
X165114285Y-106452380D02*
X165114285Y-107309523D01*
X165066666Y-107404761D01*
X164971428Y-107452380D01*
X164876190Y-107452380D01*
X164542857Y-107452380D02*
X164542857Y-106785714D01*
X164542857Y-106880952D02*
X164495238Y-106833333D01*
X164400000Y-106785714D01*
X164257142Y-106785714D01*
X164161904Y-106833333D01*
X164114285Y-106928571D01*
X164114285Y-107452380D01*
X164114285Y-106928571D02*
X164066666Y-106833333D01*
X163971428Y-106785714D01*
X163828571Y-106785714D01*
X163733333Y-106833333D01*
X163685714Y-106928571D01*
X163685714Y-107452380D01*
X163066666Y-107452380D02*
X163161904Y-107404761D01*
X163209523Y-107309523D01*
X163209523Y-106452380D01*
X159261904Y-119100000D02*
X159357142Y-119052380D01*
X159500000Y-119052380D01*
X159642857Y-119100000D01*
X159738095Y-119195238D01*
X159785714Y-119290476D01*
X159833333Y-119480952D01*
X159833333Y-119623809D01*
X159785714Y-119814285D01*
X159738095Y-119909523D01*
X159642857Y-120004761D01*
X159500000Y-120052380D01*
X159404761Y-120052380D01*
X159261904Y-120004761D01*
X159214285Y-119957142D01*
X159214285Y-119623809D01*
X159404761Y-119623809D01*
X158785714Y-120052380D02*
X158785714Y-119052380D01*
X158214285Y-120052380D01*
X158214285Y-119052380D01*
X157738095Y-120052380D02*
X157738095Y-119052380D01*
X157500000Y-119052380D01*
X157357142Y-119100000D01*
X157261904Y-119195238D01*
X157214285Y-119290476D01*
X157166666Y-119480952D01*
X157166666Y-119623809D01*
X157214285Y-119814285D01*
X157261904Y-119909523D01*
X157357142Y-120004761D01*
X157500000Y-120052380D01*
X157738095Y-120052380D01*
X159714285Y-117304761D02*
X159571428Y-117352380D01*
X159333333Y-117352380D01*
X159238095Y-117304761D01*
X159190476Y-117257142D01*
X159142857Y-117161904D01*
X159142857Y-117066666D01*
X159190476Y-116971428D01*
X159238095Y-116923809D01*
X159333333Y-116876190D01*
X159523809Y-116828571D01*
X159619047Y-116780952D01*
X159666666Y-116733333D01*
X159714285Y-116638095D01*
X159714285Y-116542857D01*
X159666666Y-116447619D01*
X159619047Y-116400000D01*
X159523809Y-116352380D01*
X159285714Y-116352380D01*
X159142857Y-116400000D01*
X158714285Y-117352380D02*
X158714285Y-116352380D01*
X158476190Y-116352380D01*
X158333333Y-116400000D01*
X158238095Y-116495238D01*
X158190476Y-116590476D01*
X158142857Y-116780952D01*
X158142857Y-116923809D01*
X158190476Y-117114285D01*
X158238095Y-117209523D01*
X158333333Y-117304761D01*
X158476190Y-117352380D01*
X158714285Y-117352380D01*
X157761904Y-117066666D02*
X157285714Y-117066666D01*
X157857142Y-117352380D02*
X157523809Y-116352380D01*
X157190476Y-117352380D01*
X159690476Y-114804761D02*
X159547619Y-114852380D01*
X159309523Y-114852380D01*
X159214285Y-114804761D01*
X159166666Y-114757142D01*
X159119047Y-114661904D01*
X159119047Y-114566666D01*
X159166666Y-114471428D01*
X159214285Y-114423809D01*
X159309523Y-114376190D01*
X159500000Y-114328571D01*
X159595238Y-114280952D01*
X159642857Y-114233333D01*
X159690476Y-114138095D01*
X159690476Y-114042857D01*
X159642857Y-113947619D01*
X159595238Y-113900000D01*
X159500000Y-113852380D01*
X159261904Y-113852380D01*
X159119047Y-113900000D01*
X158119047Y-114757142D02*
X158166666Y-114804761D01*
X158309523Y-114852380D01*
X158404761Y-114852380D01*
X158547619Y-114804761D01*
X158642857Y-114709523D01*
X158690476Y-114614285D01*
X158738095Y-114423809D01*
X158738095Y-114280952D01*
X158690476Y-114090476D01*
X158642857Y-113995238D01*
X158547619Y-113900000D01*
X158404761Y-113852380D01*
X158309523Y-113852380D01*
X158166666Y-113900000D01*
X158119047Y-113947619D01*
X157214285Y-114852380D02*
X157690476Y-114852380D01*
X157690476Y-113852380D01*
X159833333Y-121452380D02*
X159500000Y-122452380D01*
X159166666Y-121452380D01*
X158261904Y-122357142D02*
X158309523Y-122404761D01*
X158452380Y-122452380D01*
X158547619Y-122452380D01*
X158690476Y-122404761D01*
X158785714Y-122309523D01*
X158833333Y-122214285D01*
X158880952Y-122023809D01*
X158880952Y-121880952D01*
X158833333Y-121690476D01*
X158785714Y-121595238D01*
X158690476Y-121500000D01*
X158547619Y-121452380D01*
X158452380Y-121452380D01*
X158309523Y-121500000D01*
X158261904Y-121547619D01*
X157261904Y-122357142D02*
X157309523Y-122404761D01*
X157452380Y-122452380D01*
X157547619Y-122452380D01*
X157690476Y-122404761D01*
X157785714Y-122309523D01*
X157833333Y-122214285D01*
X157880952Y-122023809D01*
X157880952Y-121880952D01*
X157833333Y-121690476D01*
X157785714Y-121595238D01*
X157690476Y-121500000D01*
X157547619Y-121452380D01*
X157452380Y-121452380D01*
X157309523Y-121500000D01*
X157261904Y-121547619D01*
X222990476Y-114804761D02*
X222847619Y-114852380D01*
X222609523Y-114852380D01*
X222514285Y-114804761D01*
X222466666Y-114757142D01*
X222419047Y-114661904D01*
X222419047Y-114566666D01*
X222466666Y-114471428D01*
X222514285Y-114423809D01*
X222609523Y-114376190D01*
X222800000Y-114328571D01*
X222895238Y-114280952D01*
X222942857Y-114233333D01*
X222990476Y-114138095D01*
X222990476Y-114042857D01*
X222942857Y-113947619D01*
X222895238Y-113900000D01*
X222800000Y-113852380D01*
X222561904Y-113852380D01*
X222419047Y-113900000D01*
X221419047Y-114757142D02*
X221466666Y-114804761D01*
X221609523Y-114852380D01*
X221704761Y-114852380D01*
X221847619Y-114804761D01*
X221942857Y-114709523D01*
X221990476Y-114614285D01*
X222038095Y-114423809D01*
X222038095Y-114280952D01*
X221990476Y-114090476D01*
X221942857Y-113995238D01*
X221847619Y-113900000D01*
X221704761Y-113852380D01*
X221609523Y-113852380D01*
X221466666Y-113900000D01*
X221419047Y-113947619D01*
X220514285Y-114852380D02*
X220990476Y-114852380D01*
X220990476Y-113852380D01*
X223014285Y-117304761D02*
X222871428Y-117352380D01*
X222633333Y-117352380D01*
X222538095Y-117304761D01*
X222490476Y-117257142D01*
X222442857Y-117161904D01*
X222442857Y-117066666D01*
X222490476Y-116971428D01*
X222538095Y-116923809D01*
X222633333Y-116876190D01*
X222823809Y-116828571D01*
X222919047Y-116780952D01*
X222966666Y-116733333D01*
X223014285Y-116638095D01*
X223014285Y-116542857D01*
X222966666Y-116447619D01*
X222919047Y-116400000D01*
X222823809Y-116352380D01*
X222585714Y-116352380D01*
X222442857Y-116400000D01*
X222014285Y-117352380D02*
X222014285Y-116352380D01*
X221776190Y-116352380D01*
X221633333Y-116400000D01*
X221538095Y-116495238D01*
X221490476Y-116590476D01*
X221442857Y-116780952D01*
X221442857Y-116923809D01*
X221490476Y-117114285D01*
X221538095Y-117209523D01*
X221633333Y-117304761D01*
X221776190Y-117352380D01*
X222014285Y-117352380D01*
X221061904Y-117066666D02*
X220585714Y-117066666D01*
X221157142Y-117352380D02*
X220823809Y-116352380D01*
X220490476Y-117352380D01*
X222461904Y-119000000D02*
X222557142Y-118952380D01*
X222700000Y-118952380D01*
X222842857Y-119000000D01*
X222938095Y-119095238D01*
X222985714Y-119190476D01*
X223033333Y-119380952D01*
X223033333Y-119523809D01*
X222985714Y-119714285D01*
X222938095Y-119809523D01*
X222842857Y-119904761D01*
X222700000Y-119952380D01*
X222604761Y-119952380D01*
X222461904Y-119904761D01*
X222414285Y-119857142D01*
X222414285Y-119523809D01*
X222604761Y-119523809D01*
X221985714Y-119952380D02*
X221985714Y-118952380D01*
X221414285Y-119952380D01*
X221414285Y-118952380D01*
X220938095Y-119952380D02*
X220938095Y-118952380D01*
X220700000Y-118952380D01*
X220557142Y-119000000D01*
X220461904Y-119095238D01*
X220414285Y-119190476D01*
X220366666Y-119380952D01*
X220366666Y-119523809D01*
X220414285Y-119714285D01*
X220461904Y-119809523D01*
X220557142Y-119904761D01*
X220700000Y-119952380D01*
X220938095Y-119952380D01*
X223033333Y-121552380D02*
X222700000Y-122552380D01*
X222366666Y-121552380D01*
X221461904Y-122457142D02*
X221509523Y-122504761D01*
X221652380Y-122552380D01*
X221747619Y-122552380D01*
X221890476Y-122504761D01*
X221985714Y-122409523D01*
X222033333Y-122314285D01*
X222080952Y-122123809D01*
X222080952Y-121980952D01*
X222033333Y-121790476D01*
X221985714Y-121695238D01*
X221890476Y-121600000D01*
X221747619Y-121552380D01*
X221652380Y-121552380D01*
X221509523Y-121600000D01*
X221461904Y-121647619D01*
X220461904Y-122457142D02*
X220509523Y-122504761D01*
X220652380Y-122552380D01*
X220747619Y-122552380D01*
X220890476Y-122504761D01*
X220985714Y-122409523D01*
X221033333Y-122314285D01*
X221080952Y-122123809D01*
X221080952Y-121980952D01*
X221033333Y-121790476D01*
X220985714Y-121695238D01*
X220890476Y-121600000D01*
X220747619Y-121552380D01*
X220652380Y-121552380D01*
X220509523Y-121600000D01*
X220461904Y-121647619D01*
X212395238Y-135280952D02*
X212490476Y-135233333D01*
X212538095Y-135185714D01*
X212585714Y-135090476D01*
X212585714Y-135042857D01*
X212538095Y-134947619D01*
X212490476Y-134900000D01*
X212395238Y-134852380D01*
X212204761Y-134852380D01*
X212109523Y-134900000D01*
X212061904Y-134947619D01*
X212014285Y-135042857D01*
X212014285Y-135090476D01*
X212061904Y-135185714D01*
X212109523Y-135233333D01*
X212204761Y-135280952D01*
X212395238Y-135280952D01*
X212490476Y-135328571D01*
X212538095Y-135376190D01*
X212585714Y-135471428D01*
X212585714Y-135661904D01*
X212538095Y-135757142D01*
X212490476Y-135804761D01*
X212395238Y-135852380D01*
X212204761Y-135852380D01*
X212109523Y-135804761D01*
X212061904Y-135757142D01*
X212014285Y-135661904D01*
X212014285Y-135471428D01*
X212061904Y-135376190D01*
X212109523Y-135328571D01*
X212204761Y-135280952D01*
X194214285Y-135852380D02*
X194785714Y-135852380D01*
X194500000Y-135852380D02*
X194500000Y-134852380D01*
X194595238Y-134995238D01*
X194690476Y-135090476D01*
X194785714Y-135138095D01*
X215685714Y-135757142D02*
X215733333Y-135804761D01*
X215876190Y-135852380D01*
X215971428Y-135852380D01*
X216114285Y-135804761D01*
X216209523Y-135709523D01*
X216257142Y-135614285D01*
X216304761Y-135423809D01*
X216304761Y-135280952D01*
X216257142Y-135090476D01*
X216209523Y-134995238D01*
X216114285Y-134900000D01*
X215971428Y-134852380D01*
X215876190Y-134852380D01*
X215733333Y-134900000D01*
X215685714Y-134947619D01*
X215066666Y-134852380D02*
X214876190Y-134852380D01*
X214780952Y-134900000D01*
X214685714Y-134995238D01*
X214638095Y-135185714D01*
X214638095Y-135519047D01*
X214685714Y-135709523D01*
X214780952Y-135804761D01*
X214876190Y-135852380D01*
X215066666Y-135852380D01*
X215161904Y-135804761D01*
X215257142Y-135709523D01*
X215304761Y-135519047D01*
X215304761Y-135185714D01*
X215257142Y-134995238D01*
X215161904Y-134900000D01*
X215066666Y-134852380D01*
X214209523Y-135852380D02*
X214209523Y-134852380D01*
X213876190Y-135566666D01*
X213542857Y-134852380D01*
X213542857Y-135852380D01*
X206861904Y-135328571D02*
X206719047Y-135376190D01*
X206671428Y-135423809D01*
X206623809Y-135519047D01*
X206623809Y-135661904D01*
X206671428Y-135757142D01*
X206719047Y-135804761D01*
X206814285Y-135852380D01*
X207195238Y-135852380D01*
X207195238Y-134852380D01*
X206861904Y-134852380D01*
X206766666Y-134900000D01*
X206719047Y-134947619D01*
X206671428Y-135042857D01*
X206671428Y-135138095D01*
X206719047Y-135233333D01*
X206766666Y-135280952D01*
X206861904Y-135328571D01*
X207195238Y-135328571D01*
X205766666Y-135185714D02*
X205766666Y-135852380D01*
X206195238Y-135185714D02*
X206195238Y-135709523D01*
X206147619Y-135804761D01*
X206052380Y-135852380D01*
X205909523Y-135852380D01*
X205814285Y-135804761D01*
X205766666Y-135757142D01*
X205433333Y-135185714D02*
X205052380Y-135185714D01*
X205290476Y-134852380D02*
X205290476Y-135709523D01*
X205242857Y-135804761D01*
X205147619Y-135852380D01*
X205052380Y-135852380D01*
X204861904Y-135185714D02*
X204480952Y-135185714D01*
X204719047Y-134852380D02*
X204719047Y-135709523D01*
X204671428Y-135804761D01*
X204576190Y-135852380D01*
X204480952Y-135852380D01*
X204004761Y-135852380D02*
X204100000Y-135804761D01*
X204147619Y-135757142D01*
X204195238Y-135661904D01*
X204195238Y-135376190D01*
X204147619Y-135280952D01*
X204100000Y-135233333D01*
X204004761Y-135185714D01*
X203861904Y-135185714D01*
X203766666Y-135233333D01*
X203719047Y-135280952D01*
X203671428Y-135376190D01*
X203671428Y-135661904D01*
X203719047Y-135757142D01*
X203766666Y-135804761D01*
X203861904Y-135852380D01*
X204004761Y-135852380D01*
X203242857Y-135185714D02*
X203242857Y-135852380D01*
X203242857Y-135280952D02*
X203195238Y-135233333D01*
X203100000Y-135185714D01*
X202957142Y-135185714D01*
X202861904Y-135233333D01*
X202814285Y-135328571D01*
X202814285Y-135852380D01*
X202385714Y-135804761D02*
X202290476Y-135852380D01*
X202100000Y-135852380D01*
X202004761Y-135804761D01*
X201957142Y-135709523D01*
X201957142Y-135661904D01*
X202004761Y-135566666D01*
X202100000Y-135519047D01*
X202242857Y-135519047D01*
X202338095Y-135471428D01*
X202385714Y-135376190D01*
X202385714Y-135328571D01*
X202338095Y-135233333D01*
X202242857Y-135185714D01*
X202100000Y-135185714D01*
X202004761Y-135233333D01*
X206091345Y-115883986D02*
X205615155Y-115883986D01*
X206186583Y-116169700D02*
X205853250Y-115169700D01*
X205519917Y-116169700D01*
X204996107Y-115169700D02*
X204900869Y-115169700D01*
X204805631Y-115217320D01*
X204758012Y-115264939D01*
X204710393Y-115360177D01*
X204662774Y-115550653D01*
X204662774Y-115788748D01*
X204710393Y-115979224D01*
X204758012Y-116074462D01*
X204805631Y-116122081D01*
X204900869Y-116169700D01*
X204996107Y-116169700D01*
X205091345Y-116122081D01*
X205138964Y-116074462D01*
X205186583Y-115979224D01*
X205234202Y-115788748D01*
X205234202Y-115550653D01*
X205186583Y-115360177D01*
X205138964Y-115264939D01*
X205091345Y-115217320D01*
X204996107Y-115169700D01*
X205959265Y-119683826D02*
X205483075Y-119683826D01*
X206054503Y-119969540D02*
X205721170Y-118969540D01*
X205387837Y-119969540D01*
X204530694Y-119969540D02*
X205102122Y-119969540D01*
X204816408Y-119969540D02*
X204816408Y-118969540D01*
X204911646Y-119112398D01*
X205006884Y-119207636D01*
X205102122Y-119255255D01*
X206091345Y-123399846D02*
X205615155Y-123399846D01*
X206186583Y-123685560D02*
X205853250Y-122685560D01*
X205519917Y-123685560D01*
X205234202Y-122780799D02*
X205186583Y-122733180D01*
X205091345Y-122685560D01*
X204853250Y-122685560D01*
X204758012Y-122733180D01*
X204710393Y-122780799D01*
X204662774Y-122876037D01*
X204662774Y-122971275D01*
X204710393Y-123114132D01*
X205281821Y-123685560D01*
X204662774Y-123685560D01*
D11*
X179620000Y-133600000D02*
X181620000Y-133600000D01*
X181620000Y-135640000D02*
X179620000Y-135640000D01*
X181450000Y-137020000D02*
X180250000Y-137020000D01*
X180250000Y-138780000D02*
X181450000Y-138780000D01*
X167200000Y-133620000D02*
X166000000Y-133620000D01*
X166000000Y-135380000D02*
X167200000Y-135380000D01*
X159120000Y-131150000D02*
X159120000Y-132350000D01*
X160880000Y-132350000D02*
X160880000Y-131150000D01*
X154520000Y-131150000D02*
X154520000Y-132350000D01*
X156280000Y-132350000D02*
X156280000Y-131150000D01*
X172090000Y-136470000D02*
X172090000Y-139130000D01*
X161870000Y-136470000D02*
X172090000Y-136470000D01*
X161870000Y-139130000D02*
X172090000Y-139130000D01*
X161870000Y-136470000D02*
X161870000Y-139130000D01*
X160600000Y-136470000D02*
X159270000Y-136470000D01*
X159270000Y-136470000D02*
X159270000Y-137800000D01*
X223670000Y-113050000D02*
X226330000Y-113050000D01*
X223670000Y-120730000D02*
X223670000Y-113050000D01*
X226330000Y-120730000D02*
X226330000Y-113050000D01*
X223670000Y-120730000D02*
X226330000Y-120730000D01*
X223670000Y-122000000D02*
X223670000Y-123330000D01*
X223670000Y-123330000D02*
X225000000Y-123330000D01*
D10*
X176425000Y-129125000D02*
X176425000Y-128875000D01*
X184175000Y-129125000D02*
X184175000Y-128780000D01*
X184175000Y-110875000D02*
X184175000Y-111220000D01*
X176425000Y-110875000D02*
X176425000Y-111220000D01*
X176425000Y-129125000D02*
X184175000Y-129125000D01*
X176425000Y-110875000D02*
X184175000Y-110875000D01*
X176425000Y-128875000D02*
X174600000Y-128875000D01*
D11*
X160020000Y-112150000D02*
X160020000Y-113350000D01*
X161780000Y-113350000D02*
X161780000Y-112150000D01*
X162520000Y-112150000D02*
X162520000Y-113350000D01*
X164280000Y-113350000D02*
X164280000Y-112150000D01*
X198429460Y-122416680D02*
X197229460Y-122416680D01*
X197229460Y-124176680D02*
X198429460Y-124176680D01*
X198432000Y-118500000D02*
X197232000Y-118500000D01*
X197232000Y-120260000D02*
X198432000Y-120260000D01*
X198432000Y-114690000D02*
X197232000Y-114690000D01*
X197232000Y-116450000D02*
X198432000Y-116450000D01*
X203550000Y-114570000D02*
X202150000Y-114570000D01*
X201450000Y-115270000D02*
X201450000Y-115870000D01*
X202150000Y-116570000D02*
X203550000Y-116570000D01*
X204250000Y-115870000D02*
X204250000Y-115270000D01*
X204250000Y-115270000D02*
G75*
G03X203550000Y-114570000I-700000J0D01*
G01*
X203550000Y-116570000D02*
G75*
G03X204250000Y-115870000I0J700000D01*
G01*
X201450000Y-115870000D02*
G75*
G03X202150000Y-116570000I700000J0D01*
G01*
X202150000Y-114570000D02*
G75*
G03X201450000Y-115270000I0J-700000D01*
G01*
X203580000Y-122190000D02*
X202180000Y-122190000D01*
X201480000Y-122890000D02*
X201480000Y-123490000D01*
X202180000Y-124190000D02*
X203580000Y-124190000D01*
X204280000Y-123490000D02*
X204280000Y-122890000D01*
X204280000Y-122890000D02*
G75*
G03X203580000Y-122190000I-700000J0D01*
G01*
X203580000Y-124190000D02*
G75*
G03X204280000Y-123490000I0J700000D01*
G01*
X201480000Y-123490000D02*
G75*
G03X202180000Y-124190000I700000J0D01*
G01*
X202180000Y-122190000D02*
G75*
G03X201480000Y-122890000I0J-700000D01*
G01*
X203500000Y-118380000D02*
X202100000Y-118380000D01*
X201400000Y-119080000D02*
X201400000Y-119680000D01*
X202100000Y-120380000D02*
X203500000Y-120380000D01*
X204200000Y-119680000D02*
X204200000Y-119080000D01*
X204200000Y-119080000D02*
G75*
G03X203500000Y-118380000I-700000J0D01*
G01*
X203500000Y-120380000D02*
G75*
G03X204200000Y-119680000I0J700000D01*
G01*
X201400000Y-119680000D02*
G75*
G03X202100000Y-120380000I700000J0D01*
G01*
X202100000Y-118380000D02*
G75*
G03X201400000Y-119080000I0J-700000D01*
G01*
X153970000Y-113050000D02*
X156630000Y-113050000D01*
X153970000Y-120730000D02*
X153970000Y-113050000D01*
X156630000Y-120730000D02*
X156630000Y-113050000D01*
X153970000Y-120730000D02*
X156630000Y-120730000D01*
X153970000Y-122000000D02*
X153970000Y-123330000D01*
X153970000Y-123330000D02*
X155300000Y-123330000D01*
X216260000Y-136170000D02*
X216260000Y-138830000D01*
X195880000Y-136170000D02*
X216260000Y-136170000D01*
X195880000Y-138830000D02*
X216260000Y-138830000D01*
X195880000Y-136170000D02*
X195880000Y-138830000D01*
X194610000Y-136170000D02*
X193280000Y-136170000D01*
X193280000Y-136170000D02*
X193280000Y-137500000D01*
X195732280Y-128553580D02*
X195732280Y-126853580D01*
X195732280Y-126853580D02*
X198882280Y-126853580D01*
X195732280Y-128553580D02*
X198882280Y-128553580D01*
X180140000Y-131650000D02*
X181140000Y-131650000D01*
X181140000Y-133350000D02*
X180140000Y-133350000D01*
D10*
X184405846Y-134933962D02*
X184453465Y-134981581D01*
X184596322Y-135029200D01*
X184691560Y-135029200D01*
X184834418Y-134981581D01*
X184929656Y-134886343D01*
X184977275Y-134791105D01*
X185024894Y-134600629D01*
X185024894Y-134457772D01*
X184977275Y-134267296D01*
X184929656Y-134172058D01*
X184834418Y-134076820D01*
X184691560Y-134029200D01*
X184596322Y-134029200D01*
X184453465Y-134076820D01*
X184405846Y-134124439D01*
X183453465Y-135029200D02*
X184024894Y-135029200D01*
X183739180Y-135029200D02*
X183739180Y-134029200D01*
X183834418Y-134172058D01*
X183929656Y-134267296D01*
X184024894Y-134314915D01*
X184466666Y-138252380D02*
X184800000Y-137776190D01*
X185038095Y-138252380D02*
X185038095Y-137252380D01*
X184657142Y-137252380D01*
X184561904Y-137300000D01*
X184514285Y-137347619D01*
X184466666Y-137442857D01*
X184466666Y-137585714D01*
X184514285Y-137680952D01*
X184561904Y-137728571D01*
X184657142Y-137776190D01*
X185038095Y-137776190D01*
X183990476Y-138252380D02*
X183800000Y-138252380D01*
X183704761Y-138204761D01*
X183657142Y-138157142D01*
X183561904Y-138014285D01*
X183514285Y-137823809D01*
X183514285Y-137442857D01*
X183561904Y-137347619D01*
X183609523Y-137300000D01*
X183704761Y-137252380D01*
X183895238Y-137252380D01*
X183990476Y-137300000D01*
X184038095Y-137347619D01*
X184085714Y-137442857D01*
X184085714Y-137680952D01*
X184038095Y-137776190D01*
X183990476Y-137823809D01*
X183895238Y-137871428D01*
X183704761Y-137871428D01*
X183609523Y-137823809D01*
X183561904Y-137776190D01*
X183514285Y-137680952D01*
X165166666Y-133352380D02*
X165500000Y-132876190D01*
X165738095Y-133352380D02*
X165738095Y-132352380D01*
X165357142Y-132352380D01*
X165261904Y-132400000D01*
X165214285Y-132447619D01*
X165166666Y-132542857D01*
X165166666Y-132685714D01*
X165214285Y-132780952D01*
X165261904Y-132828571D01*
X165357142Y-132876190D01*
X165738095Y-132876190D01*
X164595238Y-132780952D02*
X164690476Y-132733333D01*
X164738095Y-132685714D01*
X164785714Y-132590476D01*
X164785714Y-132542857D01*
X164738095Y-132447619D01*
X164690476Y-132400000D01*
X164595238Y-132352380D01*
X164404761Y-132352380D01*
X164309523Y-132400000D01*
X164261904Y-132447619D01*
X164214285Y-132542857D01*
X164214285Y-132590476D01*
X164261904Y-132685714D01*
X164309523Y-132733333D01*
X164404761Y-132780952D01*
X164595238Y-132780952D01*
X164690476Y-132828571D01*
X164738095Y-132876190D01*
X164785714Y-132971428D01*
X164785714Y-133161904D01*
X164738095Y-133257142D01*
X164690476Y-133304761D01*
X164595238Y-133352380D01*
X164404761Y-133352380D01*
X164309523Y-133304761D01*
X164261904Y-133257142D01*
X164214285Y-133161904D01*
X164214285Y-132971428D01*
X164261904Y-132876190D01*
X164309523Y-132828571D01*
X164404761Y-132780952D01*
X160166666Y-129252380D02*
X160500000Y-128776190D01*
X160738095Y-129252380D02*
X160738095Y-128252380D01*
X160357142Y-128252380D01*
X160261904Y-128300000D01*
X160214285Y-128347619D01*
X160166666Y-128442857D01*
X160166666Y-128585714D01*
X160214285Y-128680952D01*
X160261904Y-128728571D01*
X160357142Y-128776190D01*
X160738095Y-128776190D01*
X159833333Y-128252380D02*
X159166666Y-128252380D01*
X159595238Y-129252380D01*
X155466666Y-129252380D02*
X155800000Y-128776190D01*
X156038095Y-129252380D02*
X156038095Y-128252380D01*
X155657142Y-128252380D01*
X155561904Y-128300000D01*
X155514285Y-128347619D01*
X155466666Y-128442857D01*
X155466666Y-128585714D01*
X155514285Y-128680952D01*
X155561904Y-128728571D01*
X155657142Y-128776190D01*
X156038095Y-128776190D01*
X154609523Y-128252380D02*
X154800000Y-128252380D01*
X154895238Y-128300000D01*
X154942857Y-128347619D01*
X155038095Y-128490476D01*
X155085714Y-128680952D01*
X155085714Y-129061904D01*
X155038095Y-129157142D01*
X154990476Y-129204761D01*
X154895238Y-129252380D01*
X154704761Y-129252380D01*
X154609523Y-129204761D01*
X154561904Y-129157142D01*
X154514285Y-129061904D01*
X154514285Y-128823809D01*
X154561904Y-128728571D01*
X154609523Y-128680952D01*
X154704761Y-128633333D01*
X154895238Y-128633333D01*
X154990476Y-128680952D01*
X155038095Y-128728571D01*
X155085714Y-128823809D01*
X157722380Y-137466666D02*
X158436666Y-137466666D01*
X158579523Y-137419047D01*
X158674761Y-137323809D01*
X158722380Y-137180952D01*
X158722380Y-137085714D01*
X158055714Y-138371428D02*
X158722380Y-138371428D01*
X157674761Y-138133333D02*
X158389047Y-137895238D01*
X158389047Y-138514285D01*
X225333333Y-123782380D02*
X225333333Y-124496666D01*
X225380952Y-124639523D01*
X225476190Y-124734761D01*
X225619047Y-124782380D01*
X225714285Y-124782380D01*
X224952380Y-123782380D02*
X224333333Y-123782380D01*
X224666666Y-124163333D01*
X224523809Y-124163333D01*
X224428571Y-124210952D01*
X224380952Y-124258571D01*
X224333333Y-124353809D01*
X224333333Y-124591904D01*
X224380952Y-124687142D01*
X224428571Y-124734761D01*
X224523809Y-124782380D01*
X224809523Y-124782380D01*
X224904761Y-124734761D01*
X224952380Y-124687142D01*
X181061904Y-129902380D02*
X181061904Y-130711904D01*
X181014285Y-130807142D01*
X180966666Y-130854761D01*
X180871428Y-130902380D01*
X180680952Y-130902380D01*
X180585714Y-130854761D01*
X180538095Y-130807142D01*
X180490476Y-130711904D01*
X180490476Y-129902380D01*
X179538095Y-129902380D02*
X180014285Y-129902380D01*
X180061904Y-130378571D01*
X180014285Y-130330952D01*
X179919047Y-130283333D01*
X179680952Y-130283333D01*
X179585714Y-130330952D01*
X179538095Y-130378571D01*
X179490476Y-130473809D01*
X179490476Y-130711904D01*
X179538095Y-130807142D01*
X179585714Y-130854761D01*
X179680952Y-130902380D01*
X179919047Y-130902380D01*
X180014285Y-130854761D01*
X180061904Y-130807142D01*
X161109846Y-110085800D02*
X161443180Y-109609610D01*
X161681275Y-110085800D02*
X161681275Y-109085800D01*
X161300322Y-109085800D01*
X161205084Y-109133420D01*
X161157465Y-109181039D01*
X161109846Y-109276277D01*
X161109846Y-109419134D01*
X161157465Y-109514372D01*
X161205084Y-109561991D01*
X161300322Y-109609610D01*
X161681275Y-109609610D01*
X160205084Y-109085800D02*
X160681275Y-109085800D01*
X160728894Y-109561991D01*
X160681275Y-109514372D01*
X160586037Y-109466753D01*
X160347941Y-109466753D01*
X160252703Y-109514372D01*
X160205084Y-109561991D01*
X160157465Y-109657229D01*
X160157465Y-109895324D01*
X160205084Y-109990562D01*
X160252703Y-110038181D01*
X160347941Y-110085800D01*
X160586037Y-110085800D01*
X160681275Y-110038181D01*
X160728894Y-109990562D01*
X163553966Y-110008320D02*
X163887300Y-109532130D01*
X164125395Y-110008320D02*
X164125395Y-109008320D01*
X163744442Y-109008320D01*
X163649204Y-109055940D01*
X163601585Y-109103559D01*
X163553966Y-109198797D01*
X163553966Y-109341654D01*
X163601585Y-109436892D01*
X163649204Y-109484511D01*
X163744442Y-109532130D01*
X164125395Y-109532130D01*
X162696823Y-109341654D02*
X162696823Y-110008320D01*
X162934919Y-108960701D02*
X163173014Y-109674987D01*
X162553966Y-109674987D01*
X197996126Y-125449060D02*
X198329460Y-124972870D01*
X198567555Y-125449060D02*
X198567555Y-124449060D01*
X198186602Y-124449060D01*
X198091364Y-124496680D01*
X198043745Y-124544299D01*
X197996126Y-124639537D01*
X197996126Y-124782394D01*
X198043745Y-124877632D01*
X198091364Y-124925251D01*
X198186602Y-124972870D01*
X198567555Y-124972870D01*
X197662793Y-124449060D02*
X197043745Y-124449060D01*
X197377079Y-124830013D01*
X197234221Y-124830013D01*
X197138983Y-124877632D01*
X197091364Y-124925251D01*
X197043745Y-125020489D01*
X197043745Y-125258584D01*
X197091364Y-125353822D01*
X197138983Y-125401441D01*
X197234221Y-125449060D01*
X197519936Y-125449060D01*
X197615174Y-125401441D01*
X197662793Y-125353822D01*
X197998666Y-121532380D02*
X198332000Y-121056190D01*
X198570095Y-121532380D02*
X198570095Y-120532380D01*
X198189142Y-120532380D01*
X198093904Y-120580000D01*
X198046285Y-120627619D01*
X197998666Y-120722857D01*
X197998666Y-120865714D01*
X198046285Y-120960952D01*
X198093904Y-121008571D01*
X198189142Y-121056190D01*
X198570095Y-121056190D01*
X197617714Y-120627619D02*
X197570095Y-120580000D01*
X197474857Y-120532380D01*
X197236761Y-120532380D01*
X197141523Y-120580000D01*
X197093904Y-120627619D01*
X197046285Y-120722857D01*
X197046285Y-120818095D01*
X197093904Y-120960952D01*
X197665333Y-121532380D01*
X197046285Y-121532380D01*
X197998666Y-117722380D02*
X198332000Y-117246190D01*
X198570095Y-117722380D02*
X198570095Y-116722380D01*
X198189142Y-116722380D01*
X198093904Y-116770000D01*
X198046285Y-116817619D01*
X197998666Y-116912857D01*
X197998666Y-117055714D01*
X198046285Y-117150952D01*
X198093904Y-117198571D01*
X198189142Y-117246190D01*
X198570095Y-117246190D01*
X197046285Y-117722380D02*
X197617714Y-117722380D01*
X197332000Y-117722380D02*
X197332000Y-116722380D01*
X197427238Y-116865238D01*
X197522476Y-116960476D01*
X197617714Y-117008095D01*
X203683333Y-113222380D02*
X203683333Y-113936666D01*
X203730952Y-114079523D01*
X203826190Y-114174761D01*
X203969047Y-114222380D01*
X204064285Y-114222380D01*
X203207142Y-114222380D02*
X203207142Y-113222380D01*
X202826190Y-113222380D01*
X202730952Y-113270000D01*
X202683333Y-113317619D01*
X202635714Y-113412857D01*
X202635714Y-113555714D01*
X202683333Y-113650952D01*
X202730952Y-113698571D01*
X202826190Y-113746190D01*
X203207142Y-113746190D01*
X201683333Y-114222380D02*
X202254761Y-114222380D01*
X201969047Y-114222380D02*
X201969047Y-113222380D01*
X202064285Y-113365238D01*
X202159523Y-113460476D01*
X202254761Y-113508095D01*
X203713333Y-120842380D02*
X203713333Y-121556666D01*
X203760952Y-121699523D01*
X203856190Y-121794761D01*
X203999047Y-121842380D01*
X204094285Y-121842380D01*
X203237142Y-121842380D02*
X203237142Y-120842380D01*
X202856190Y-120842380D01*
X202760952Y-120890000D01*
X202713333Y-120937619D01*
X202665714Y-121032857D01*
X202665714Y-121175714D01*
X202713333Y-121270952D01*
X202760952Y-121318571D01*
X202856190Y-121366190D01*
X203237142Y-121366190D01*
X202332380Y-120842380D02*
X201713333Y-120842380D01*
X202046666Y-121223333D01*
X201903809Y-121223333D01*
X201808571Y-121270952D01*
X201760952Y-121318571D01*
X201713333Y-121413809D01*
X201713333Y-121651904D01*
X201760952Y-121747142D01*
X201808571Y-121794761D01*
X201903809Y-121842380D01*
X202189523Y-121842380D01*
X202284761Y-121794761D01*
X202332380Y-121747142D01*
X203633333Y-117032380D02*
X203633333Y-117746666D01*
X203680952Y-117889523D01*
X203776190Y-117984761D01*
X203919047Y-118032380D01*
X204014285Y-118032380D01*
X203157142Y-118032380D02*
X203157142Y-117032380D01*
X202776190Y-117032380D01*
X202680952Y-117080000D01*
X202633333Y-117127619D01*
X202585714Y-117222857D01*
X202585714Y-117365714D01*
X202633333Y-117460952D01*
X202680952Y-117508571D01*
X202776190Y-117556190D01*
X203157142Y-117556190D01*
X202204761Y-117127619D02*
X202157142Y-117080000D01*
X202061904Y-117032380D01*
X201823809Y-117032380D01*
X201728571Y-117080000D01*
X201680952Y-117127619D01*
X201633333Y-117222857D01*
X201633333Y-117318095D01*
X201680952Y-117460952D01*
X202252380Y-118032380D01*
X201633333Y-118032380D01*
X155633333Y-123782380D02*
X155633333Y-124496666D01*
X155680952Y-124639523D01*
X155776190Y-124734761D01*
X155919047Y-124782380D01*
X156014285Y-124782380D01*
X155204761Y-123877619D02*
X155157142Y-123830000D01*
X155061904Y-123782380D01*
X154823809Y-123782380D01*
X154728571Y-123830000D01*
X154680952Y-123877619D01*
X154633333Y-123972857D01*
X154633333Y-124068095D01*
X154680952Y-124210952D01*
X155252380Y-124782380D01*
X154633333Y-124782380D01*
X191732380Y-137166666D02*
X192446666Y-137166666D01*
X192589523Y-137119047D01*
X192684761Y-137023809D01*
X192732380Y-136880952D01*
X192732380Y-136785714D01*
X192732380Y-138166666D02*
X192732380Y-137595238D01*
X192732380Y-137880952D02*
X191732380Y-137880952D01*
X191875238Y-137785714D01*
X191970476Y-137690476D01*
X192018095Y-137595238D01*
X198370375Y-130005960D02*
X198370375Y-129005960D01*
X198132280Y-129005960D01*
X197989422Y-129053580D01*
X197894184Y-129148818D01*
X197846565Y-129244056D01*
X197798946Y-129434532D01*
X197798946Y-129577389D01*
X197846565Y-129767865D01*
X197894184Y-129863103D01*
X197989422Y-129958341D01*
X198132280Y-130005960D01*
X198370375Y-130005960D01*
X196894184Y-129005960D02*
X197370375Y-129005960D01*
X197417994Y-129482151D01*
X197370375Y-129434532D01*
X197275137Y-129386913D01*
X197037041Y-129386913D01*
X196941803Y-129434532D01*
X196894184Y-129482151D01*
X196846565Y-129577389D01*
X196846565Y-129815484D01*
X196894184Y-129910722D01*
X196941803Y-129958341D01*
X197037041Y-130005960D01*
X197275137Y-130005960D01*
X197370375Y-129958341D01*
X197417994Y-129910722D01*
X184492206Y-132985782D02*
X184539825Y-133033401D01*
X184682682Y-133081020D01*
X184777920Y-133081020D01*
X184920778Y-133033401D01*
X185016016Y-132938163D01*
X185063635Y-132842925D01*
X185111254Y-132652449D01*
X185111254Y-132509592D01*
X185063635Y-132319116D01*
X185016016Y-132223878D01*
X184920778Y-132128640D01*
X184777920Y-132081020D01*
X184682682Y-132081020D01*
X184539825Y-132128640D01*
X184492206Y-132176259D01*
X184111254Y-132176259D02*
X184063635Y-132128640D01*
X183968397Y-132081020D01*
X183730301Y-132081020D01*
X183635063Y-132128640D01*
X183587444Y-132176259D01*
X183539825Y-132271497D01*
X183539825Y-132366735D01*
X183587444Y-132509592D01*
X184158873Y-133081020D01*
X183539825Y-133081020D01*
M02*
