G04 #@! TF.GenerationSoftware,KiCad,Pcbnew,(5.1.4)-1*
G04 #@! TF.CreationDate,2019-09-25T15:42:07+02:00*
G04 #@! TF.ProjectId,Display4x16segment,44697370-6c61-4793-9478-31367365676d,rev?*
G04 #@! TF.SameCoordinates,Original*
G04 #@! TF.FileFunction,Copper,L1,Top*
G04 #@! TF.FilePolarity,Positive*
%FSLAX46Y46*%
G04 Gerber Fmt 4.6, Leading zero omitted, Abs format (unit mm)*
G04 Created by KiCad (PCBNEW (5.1.4)-1) date 2019-09-25 15:42:07*
%MOMM*%
%LPD*%
G04 APERTURE LIST*
%ADD10C,0.300000*%
%ADD11R,1.700000X1.700000*%
%ADD12O,1.700000X1.700000*%
%ADD13C,1.524000*%
%ADD14R,1.524000X1.524000*%
%ADD15R,1.070000X1.800000*%
%ADD16O,1.070000X1.800000*%
%ADD17C,0.800000*%
%ADD18C,0.500000*%
%ADD19C,1.000000*%
%ADD20C,0.250000*%
G04 APERTURE END LIST*
D10*
X188250000Y-104678571D02*
X188250000Y-103178571D01*
X188250000Y-103892857D02*
X189107142Y-103892857D01*
X189107142Y-104678571D02*
X189107142Y-103178571D01*
X189821428Y-104678571D02*
X189821428Y-103178571D01*
X190678571Y-104678571D02*
X190035714Y-103821428D01*
X190678571Y-103178571D02*
X189821428Y-104035714D01*
X191750000Y-103178571D02*
X191750000Y-104250000D01*
X191678571Y-104464285D01*
X191535714Y-104607142D01*
X191321428Y-104678571D01*
X191178571Y-104678571D01*
D11*
X160600000Y-137800000D03*
D12*
X163140000Y-137800000D03*
X165680000Y-137800000D03*
X168220000Y-137800000D03*
X170760000Y-137800000D03*
D11*
X225000000Y-122000000D03*
D12*
X225000000Y-119460000D03*
X225000000Y-116920000D03*
X225000000Y-114380000D03*
D13*
X228220000Y-109840000D03*
X228220000Y-112380000D03*
X228220000Y-114920000D03*
X228220000Y-117460000D03*
X228220000Y-120000000D03*
X228220000Y-122540000D03*
X228220000Y-125080000D03*
X228220000Y-127620000D03*
X228220000Y-130160000D03*
X212980000Y-130160000D03*
X212980000Y-127620000D03*
X212980000Y-125080000D03*
X212980000Y-122540000D03*
X212980000Y-120000000D03*
X212980000Y-117460000D03*
X212980000Y-114920000D03*
X212980000Y-112380000D03*
D14*
X212980000Y-109840000D03*
D13*
X208020000Y-109840000D03*
X208020000Y-112380000D03*
X208020000Y-114920000D03*
X208020000Y-117460000D03*
X208020000Y-120000000D03*
X208020000Y-122540000D03*
X208020000Y-125080000D03*
X208020000Y-127620000D03*
X208020000Y-130160000D03*
X192780000Y-130160000D03*
X192780000Y-127620000D03*
X192780000Y-125080000D03*
X192780000Y-122540000D03*
X192780000Y-120000000D03*
X192780000Y-117460000D03*
X192780000Y-114920000D03*
X192780000Y-112380000D03*
D14*
X192780000Y-109840000D03*
D13*
X187820000Y-109840000D03*
X187820000Y-112380000D03*
X187820000Y-114920000D03*
X187820000Y-117460000D03*
X187820000Y-120000000D03*
X187820000Y-122540000D03*
X187820000Y-125080000D03*
X187820000Y-127620000D03*
X187820000Y-130160000D03*
X172580000Y-130160000D03*
X172580000Y-127620000D03*
X172580000Y-125080000D03*
X172580000Y-122540000D03*
X172580000Y-120000000D03*
X172580000Y-117460000D03*
X172580000Y-114920000D03*
X172580000Y-112380000D03*
D14*
X172580000Y-109840000D03*
D13*
X167620000Y-109840000D03*
X167620000Y-112380000D03*
X167620000Y-114920000D03*
X167620000Y-117460000D03*
X167620000Y-120000000D03*
X167620000Y-122540000D03*
X167620000Y-125080000D03*
X167620000Y-127620000D03*
X167620000Y-130160000D03*
X152380000Y-130160000D03*
X152380000Y-127620000D03*
X152380000Y-125080000D03*
X152380000Y-122540000D03*
X152380000Y-120000000D03*
X152380000Y-117460000D03*
X152380000Y-114920000D03*
X152380000Y-112380000D03*
D14*
X152380000Y-109840000D03*
D11*
X155300000Y-122000000D03*
D12*
X155300000Y-119460000D03*
X155300000Y-116920000D03*
X155300000Y-114380000D03*
D11*
X194610000Y-137500000D03*
D12*
X197150000Y-137500000D03*
X199690000Y-137500000D03*
X202230000Y-137500000D03*
X204770000Y-137500000D03*
X207310000Y-137500000D03*
X209850000Y-137500000D03*
X212390000Y-137500000D03*
X214930000Y-137500000D03*
D15*
X218030000Y-102800000D03*
D16*
X219300000Y-102800000D03*
X220570000Y-102800000D03*
X221840000Y-102800000D03*
D15*
X198300000Y-102800000D03*
D16*
X199570000Y-102800000D03*
X200840000Y-102800000D03*
X202110000Y-102800000D03*
D15*
X178300000Y-102800000D03*
D16*
X179570000Y-102800000D03*
X180840000Y-102800000D03*
X182110000Y-102800000D03*
D15*
X157760000Y-102800000D03*
D16*
X159030000Y-102800000D03*
X160300000Y-102800000D03*
X161570000Y-102800000D03*
D17*
X180947060Y-107871260D03*
X221928740Y-107871260D03*
X158628741Y-107871259D03*
X178993800Y-106555540D03*
X175308260Y-130462020D03*
X179090000Y-130497260D03*
X223144460Y-106555540D03*
X157065980Y-106555540D03*
X204513180Y-109011720D03*
X162400000Y-109899994D03*
X203771621Y-110927001D03*
X196853900Y-110971420D03*
X164119440Y-109819440D03*
X204345300Y-114920000D03*
X182928260Y-121848880D03*
X178000660Y-121848880D03*
X194736630Y-115644904D03*
X177925010Y-116007001D03*
X165357978Y-114475020D03*
X170906440Y-133469380D03*
X170600000Y-127600000D03*
X196700000Y-134500000D03*
X164762184Y-104363520D03*
X165694358Y-122626120D03*
X182831740Y-119275000D03*
X204211041Y-131247001D03*
X180032660Y-119278400D03*
X180004448Y-130901968D03*
X209415739Y-129072999D03*
X166424450Y-105321007D03*
X182000000Y-129099994D03*
X166047344Y-128468934D03*
X188989060Y-118185000D03*
X191063270Y-118777338D03*
X210383479Y-126532999D03*
X188989059Y-116372999D03*
X210281520Y-104983280D03*
X183237781Y-113832999D03*
X200670160Y-114192001D03*
X189100002Y-111200000D03*
X219811721Y-113467001D03*
X220795001Y-118904999D03*
X189687200Y-136212580D03*
X177116829Y-127589798D03*
X185948320Y-132737859D03*
X220275000Y-116900001D03*
X219836920Y-132836920D03*
X160800000Y-116900000D03*
X164099994Y-129200000D03*
X169882011Y-120000000D03*
X169075719Y-121404999D03*
X205242160Y-135149420D03*
X175200000Y-135799998D03*
X225054160Y-134424420D03*
X176500000Y-134800000D03*
X183604703Y-131650000D03*
X218900000Y-114400000D03*
X219000000Y-131972001D03*
X165100000Y-115500000D03*
X165200000Y-129000000D03*
X156300000Y-125500000D03*
X169700000Y-125300000D03*
X190100000Y-125900000D03*
X190500000Y-137000000D03*
X170100000Y-134400000D03*
X215600000Y-125000000D03*
X215600000Y-133561920D03*
X187600000Y-132999999D03*
D18*
X181512745Y-107871260D02*
X180947060Y-107871260D01*
D19*
X221928740Y-107871260D02*
X180947060Y-107871260D01*
X162536944Y-107871259D02*
X161971259Y-107871259D01*
X180947060Y-107871260D02*
X162536944Y-107871259D01*
X158628741Y-107871259D02*
X161971259Y-107871259D01*
D20*
X179054760Y-130462020D02*
X179090000Y-130497260D01*
X175308260Y-130462020D02*
X179054760Y-130462020D01*
D19*
X223144460Y-106555540D02*
X157065980Y-106555540D01*
D20*
X199270000Y-101720000D02*
X199345010Y-101644990D01*
X199270000Y-102870000D02*
X199270000Y-101720000D01*
X179194990Y-101644990D02*
X179114990Y-101644990D01*
X179270000Y-101720000D02*
X179194990Y-101644990D01*
X179270000Y-102870000D02*
X179270000Y-101720000D01*
X178970000Y-101500000D02*
X179114990Y-101644990D01*
X159788763Y-101500000D02*
X178970000Y-101500000D01*
X158730000Y-102870000D02*
X158730000Y-102558763D01*
X158730000Y-102558763D02*
X159788763Y-101500000D01*
X199200020Y-101500000D02*
X199345010Y-101644990D01*
X179114990Y-101644990D02*
X179259980Y-101500000D01*
X179259980Y-101500000D02*
X199200020Y-101500000D01*
X219000000Y-101720000D02*
X219000000Y-102870000D01*
X218780000Y-101500000D02*
X219000000Y-101720000D01*
X199345010Y-101644990D02*
X199490000Y-101500000D01*
X199490000Y-101500000D02*
X218780000Y-101500000D01*
X211368000Y-109840000D02*
X212380000Y-109840000D01*
X210280999Y-108752999D02*
X211368000Y-109840000D01*
X207098239Y-108752999D02*
X210280999Y-108752999D01*
X204513180Y-109011720D02*
X206839518Y-109011720D01*
X206839518Y-109011720D02*
X207098239Y-108752999D01*
X203947495Y-109011720D02*
X204513180Y-109011720D01*
X162186998Y-109840000D02*
X163273999Y-108752999D01*
X152380000Y-109840000D02*
X162186998Y-109840000D01*
X203688774Y-108752999D02*
X203947495Y-109011720D01*
X172580000Y-109840000D02*
X172580000Y-109020000D01*
X172580000Y-108780000D02*
X172552999Y-108752999D01*
X172580000Y-109840000D02*
X172580000Y-108780000D01*
X163273999Y-108752999D02*
X172552999Y-108752999D01*
X192704999Y-108752999D02*
X192652999Y-108752999D01*
X192780000Y-108828000D02*
X192704999Y-108752999D01*
X192780000Y-109840000D02*
X192780000Y-108828000D01*
X172552999Y-108752999D02*
X192652999Y-108752999D01*
X192652999Y-108752999D02*
X203688774Y-108752999D01*
X226858001Y-110601999D02*
X227620000Y-109840000D01*
X226156002Y-109900000D02*
X226858001Y-110601999D01*
X214067001Y-110862001D02*
X214067001Y-109900000D01*
X211892999Y-110290010D02*
X211892999Y-110862001D01*
X207680000Y-109900000D02*
X210791590Y-109900000D01*
X214002001Y-110927001D02*
X214067001Y-110862001D01*
X207620000Y-109840000D02*
X207680000Y-109900000D01*
X206532999Y-110927001D02*
X207620000Y-109840000D01*
X211892999Y-110862001D02*
X211957999Y-110927001D01*
X214067001Y-109900000D02*
X226156002Y-109900000D01*
X203771621Y-110927001D02*
X206532999Y-110927001D01*
X211957999Y-110927001D02*
X214002001Y-110927001D01*
X211181600Y-110290010D02*
X211892999Y-110290010D01*
X210791590Y-109900000D02*
X211181600Y-110290010D01*
X188913008Y-109840000D02*
X190044428Y-110971420D01*
X190044428Y-110971420D02*
X196288215Y-110971420D01*
X196288215Y-110971420D02*
X196853900Y-110971420D01*
X187620000Y-109840000D02*
X188913008Y-109840000D01*
X186532999Y-110927001D02*
X187620000Y-109840000D01*
X167620000Y-109840000D02*
X168707001Y-110927001D01*
X203771621Y-110927001D02*
X196898319Y-110927001D01*
X196898319Y-110927001D02*
X196853900Y-110971420D01*
X168707001Y-110927001D02*
X186532999Y-110927001D01*
X164140000Y-109840000D02*
X164119440Y-109819440D01*
X167620000Y-109840000D02*
X164140000Y-109840000D01*
X206542370Y-114920000D02*
X207620000Y-114920000D01*
X194274219Y-116007001D02*
X195361220Y-114920000D01*
X195361220Y-114920000D02*
X204345300Y-114920000D01*
X204345300Y-114920000D02*
X206542370Y-114920000D01*
X182928260Y-121848880D02*
X178000660Y-121848880D01*
X171858239Y-116007001D02*
X177359325Y-116007001D01*
X167620000Y-114920000D02*
X170771238Y-114920000D01*
X170771238Y-114920000D02*
X171858239Y-116007001D01*
X177359325Y-116007001D02*
X177925010Y-116007001D01*
X194636316Y-115644904D02*
X194736630Y-115644904D01*
X194274219Y-116007001D02*
X194636316Y-115644904D01*
X192258239Y-116007001D02*
X194274219Y-116007001D01*
X191171238Y-114920000D02*
X192258239Y-116007001D01*
X187820000Y-114920000D02*
X191171238Y-114920000D01*
X179012011Y-114920000D02*
X177925010Y-116007001D01*
X187820000Y-114920000D02*
X179012011Y-114920000D01*
X209097630Y-114920000D02*
X208020000Y-114920000D01*
X211371238Y-114920000D02*
X209097630Y-114920000D01*
X212626239Y-116175001D02*
X211371238Y-114920000D01*
X165802958Y-114920000D02*
X165757977Y-114875019D01*
X165757977Y-114875019D02*
X165357978Y-114475020D01*
X167620000Y-114920000D02*
X165802958Y-114920000D01*
X213333761Y-116175001D02*
X212626239Y-116175001D01*
X213826763Y-115681999D02*
X213333761Y-116175001D01*
X227458001Y-115681999D02*
X213826763Y-115681999D01*
X228220000Y-114920000D02*
X227458001Y-115681999D01*
X167640000Y-127600000D02*
X167620000Y-127620000D01*
X170600000Y-127600000D02*
X167640000Y-127600000D01*
X196300001Y-134100001D02*
X196700000Y-134500000D01*
X196200000Y-134000000D02*
X196300001Y-134100001D01*
X171437060Y-134000000D02*
X196200000Y-134000000D01*
X170906440Y-133469380D02*
X171437060Y-134000000D01*
X178000000Y-102870000D02*
X178000000Y-102558763D01*
X206858001Y-123301999D02*
X207620000Y-122540000D01*
X206532999Y-123627001D02*
X206858001Y-123301999D01*
X191858239Y-123627001D02*
X206532999Y-123627001D01*
X190771238Y-122540000D02*
X191858239Y-123627001D01*
X187620000Y-122540000D02*
X190771238Y-122540000D01*
X226858001Y-123301999D02*
X227620000Y-122540000D01*
X225794999Y-124365001D02*
X226858001Y-123301999D01*
X222955999Y-124365001D02*
X225794999Y-124365001D01*
X222217999Y-123627001D02*
X222955999Y-124365001D01*
X210771238Y-122540000D02*
X211858239Y-123627001D01*
X211858239Y-123627001D02*
X222217999Y-123627001D01*
X207620000Y-122540000D02*
X210771238Y-122540000D01*
X186542370Y-122540000D02*
X187620000Y-122540000D01*
X170771238Y-122540000D02*
X171858239Y-123627001D01*
X167620000Y-122540000D02*
X170771238Y-122540000D01*
X171858239Y-123627001D02*
X174274219Y-123627001D01*
X174274219Y-123627001D02*
X175132860Y-122768360D01*
X175132860Y-122768360D02*
X186314010Y-122768360D01*
X186314010Y-122768360D02*
X186542370Y-122540000D01*
X165780478Y-122540000D02*
X165694358Y-122626120D01*
X167620000Y-122540000D02*
X165780478Y-122540000D01*
X178000000Y-103235000D02*
X178000000Y-102870000D01*
X176871480Y-104363520D02*
X178000000Y-103235000D01*
X164762184Y-104363520D02*
X176871480Y-104363520D01*
X170771238Y-130160000D02*
X171858239Y-131247001D01*
X167620000Y-130160000D02*
X170771238Y-130160000D01*
X206858001Y-130921999D02*
X207620000Y-130160000D01*
X206532999Y-131247001D02*
X206858001Y-130921999D01*
X187620000Y-130160000D02*
X188707001Y-131247001D01*
X226858001Y-130921999D02*
X227620000Y-130160000D01*
X226532999Y-131247001D02*
X226858001Y-130921999D01*
X209784631Y-131247001D02*
X226532999Y-131247001D01*
X208697630Y-130160000D02*
X209784631Y-131247001D01*
X207620000Y-130160000D02*
X208697630Y-130160000D01*
X188707001Y-131247001D02*
X204211041Y-131247001D01*
X204211041Y-131247001D02*
X206532999Y-131247001D01*
X180036060Y-119275000D02*
X180032660Y-119278400D01*
X182831740Y-119275000D02*
X180036060Y-119275000D01*
X186742370Y-130160000D02*
X187820000Y-130160000D01*
X184021701Y-130160000D02*
X186742370Y-130160000D01*
X182934700Y-131247001D02*
X184021701Y-130160000D01*
X180052999Y-130950519D02*
X180052999Y-131247001D01*
X180004448Y-130901968D02*
X180052999Y-130950519D01*
X171858239Y-131247001D02*
X180052999Y-131247001D01*
X180052999Y-131247001D02*
X182934700Y-131247001D01*
X211618001Y-129398001D02*
X212380000Y-130160000D01*
X211292999Y-129072999D02*
X211618001Y-129398001D01*
X209415739Y-129072999D02*
X211292999Y-129072999D01*
X181810000Y-102870000D02*
X181810000Y-103235000D01*
X181973005Y-129072999D02*
X182000000Y-129099994D01*
X172570629Y-129072999D02*
X172472999Y-129072999D01*
X172580000Y-129082370D02*
X172570629Y-129072999D01*
X172580000Y-130160000D02*
X172580000Y-129082370D01*
X172472999Y-129072999D02*
X181973005Y-129072999D01*
X182110000Y-103165000D02*
X182110000Y-102800000D01*
X179953993Y-105321007D02*
X182110000Y-103165000D01*
X166424450Y-105321007D02*
X179953993Y-105321007D01*
X192018001Y-129398001D02*
X192780000Y-130160000D01*
X191692999Y-129072999D02*
X192018001Y-129398001D01*
X187298239Y-129072999D02*
X191692999Y-129072999D01*
X187271244Y-129099994D02*
X187298239Y-129072999D01*
X182000000Y-129099994D02*
X187271244Y-129099994D01*
X208850054Y-129072999D02*
X209415739Y-129072999D01*
X207498239Y-129072999D02*
X208850054Y-129072999D01*
X206411238Y-130160000D02*
X207498239Y-129072999D01*
X192780000Y-130160000D02*
X206411238Y-130160000D01*
X152380000Y-130160000D02*
X154440953Y-128099047D01*
X165677457Y-128099047D02*
X166047344Y-128468934D01*
X154440953Y-128099047D02*
X165677457Y-128099047D01*
X166447343Y-128868933D02*
X166047344Y-128468934D01*
X166651409Y-129072999D02*
X166447343Y-128868933D01*
X172472999Y-129072999D02*
X166651409Y-129072999D01*
X198000000Y-102870000D02*
X198000000Y-102558763D01*
X211618001Y-126858001D02*
X212380000Y-127620000D01*
X211292999Y-126532999D02*
X211618001Y-126858001D01*
X188989060Y-118185000D02*
X190470932Y-118185000D01*
X190470932Y-118185000D02*
X191063270Y-118777338D01*
X210383479Y-126532999D02*
X211292999Y-126532999D01*
X209107001Y-127600000D02*
X209316478Y-127600000D01*
X209107001Y-127098239D02*
X209107001Y-127600000D01*
X208541761Y-126532999D02*
X209107001Y-127098239D01*
X207498239Y-126532999D02*
X208541761Y-126532999D01*
X206932999Y-127098239D02*
X207498239Y-126532999D01*
X206932999Y-127600000D02*
X206932999Y-127098239D01*
X190800000Y-127600000D02*
X206932999Y-127600000D01*
X189732999Y-126532999D02*
X190800000Y-127600000D01*
X166011238Y-127620000D02*
X167098239Y-126532999D01*
X209316478Y-127600000D02*
X210383479Y-126532999D01*
X167098239Y-126532999D02*
X171292999Y-126532999D01*
X171292999Y-126532999D02*
X172380000Y-127620000D01*
X152380000Y-127620000D02*
X166011238Y-127620000D01*
X172380000Y-127620000D02*
X173467001Y-126532999D01*
X173467001Y-126532999D02*
X189732999Y-126532999D01*
X191618001Y-116698001D02*
X192380000Y-117460000D01*
X191292999Y-116372999D02*
X191618001Y-116698001D01*
X211618001Y-116698001D02*
X212380000Y-117460000D01*
X211292999Y-116372999D02*
X211618001Y-116698001D01*
X194544631Y-116372999D02*
X211292999Y-116372999D01*
X193457630Y-117460000D02*
X194544631Y-116372999D01*
X192380000Y-117460000D02*
X193457630Y-117460000D01*
X188989059Y-116372999D02*
X191292999Y-116372999D01*
X200540000Y-104020000D02*
X201503280Y-104983280D01*
X200540000Y-102870000D02*
X200540000Y-104020000D01*
X201503280Y-104983280D02*
X210281520Y-104983280D01*
X188423374Y-116372999D02*
X188989059Y-116372999D01*
X171245002Y-116325002D02*
X172380000Y-117460000D01*
X186011238Y-117460000D02*
X187098239Y-116372999D01*
X172380000Y-117460000D02*
X186011238Y-117460000D01*
X187098239Y-116372999D02*
X188423374Y-116372999D01*
X164851998Y-116325002D02*
X165325002Y-116325002D01*
X164271995Y-115744999D02*
X164851998Y-116325002D01*
X154095001Y-115744999D02*
X164271995Y-115744999D01*
X152380000Y-117460000D02*
X154095001Y-115744999D01*
X165248002Y-116325002D02*
X165325002Y-116325002D01*
X165325002Y-116325002D02*
X171245002Y-116325002D01*
X191618001Y-114158001D02*
X192380000Y-114920000D01*
X191292999Y-113832999D02*
X191618001Y-114158001D01*
X172380000Y-114920000D02*
X173467001Y-113832999D01*
X173467001Y-113832999D02*
X183237781Y-113832999D01*
X183237781Y-113832999D02*
X191292999Y-113832999D01*
X211618001Y-114158001D02*
X212380000Y-114920000D01*
X194724810Y-114920000D02*
X195452809Y-114192001D01*
X195452809Y-114192001D02*
X206739237Y-114192001D01*
X192380000Y-114920000D02*
X194724810Y-114920000D01*
X206739237Y-114192001D02*
X207098239Y-113832999D01*
X207098239Y-113832999D02*
X211292999Y-113832999D01*
X211292999Y-113832999D02*
X211618001Y-114158001D01*
X171407648Y-114920000D02*
X170187648Y-113700000D01*
X172580000Y-114920000D02*
X171407648Y-114920000D01*
X170187648Y-113700000D02*
X156359002Y-113700000D01*
X156359002Y-113700000D02*
X155864001Y-113204999D01*
X155864001Y-113204999D02*
X154095001Y-113204999D01*
X154095001Y-113204999D02*
X153141999Y-114158001D01*
X153141999Y-114158001D02*
X152380000Y-114920000D01*
X216945000Y-102870000D02*
X217730000Y-102870000D01*
X211100000Y-111100000D02*
X212380000Y-112380000D01*
X207291238Y-111100000D02*
X211100000Y-111100000D01*
X192380000Y-112380000D02*
X206011238Y-112380000D01*
X206011238Y-112380000D02*
X207291238Y-111100000D01*
X189500001Y-111599999D02*
X189100002Y-111200000D01*
X190922369Y-111599999D02*
X189500001Y-111599999D01*
X191702370Y-112380000D02*
X190922369Y-111599999D01*
X192780000Y-112380000D02*
X191702370Y-112380000D01*
X187191238Y-111200000D02*
X189100002Y-111200000D01*
X186011238Y-112380000D02*
X187191238Y-111200000D01*
X169523590Y-112380000D02*
X186011238Y-112380000D01*
X168436589Y-111292999D02*
X169523590Y-112380000D01*
X153467001Y-111292999D02*
X168436589Y-111292999D01*
X152380000Y-112380000D02*
X153467001Y-111292999D01*
X207620000Y-112380000D02*
X210771238Y-112380000D01*
X210771238Y-112380000D02*
X211858239Y-113467001D01*
X206942370Y-112380000D02*
X208020000Y-112380000D01*
X205855369Y-113467001D02*
X206942370Y-112380000D01*
X192258239Y-113467001D02*
X205855369Y-113467001D01*
X191891238Y-113100000D02*
X192258239Y-113467001D01*
X189617630Y-113100000D02*
X191891238Y-113100000D01*
X188897630Y-112380000D02*
X189617630Y-113100000D01*
X187820000Y-112380000D02*
X188897630Y-112380000D01*
X168381999Y-113141999D02*
X167620000Y-112380000D01*
X171238409Y-113141999D02*
X168381999Y-113141999D01*
X173101761Y-113467001D02*
X171563411Y-113467001D01*
X173738752Y-112830010D02*
X173101761Y-113467001D01*
X186292360Y-112830010D02*
X173738752Y-112830010D01*
X186742370Y-112380000D02*
X186292360Y-112830010D01*
X171563411Y-113467001D02*
X171238409Y-113141999D01*
X187820000Y-112380000D02*
X186742370Y-112380000D01*
X228220000Y-112380000D02*
X220898722Y-112380000D01*
X220898722Y-112380000D02*
X219811721Y-113467001D01*
X219811721Y-113467001D02*
X211858239Y-113467001D01*
X212216237Y-118904999D02*
X220229316Y-118904999D01*
X187620000Y-117460000D02*
X190771238Y-117460000D01*
X167620000Y-117460000D02*
X170771238Y-117460000D01*
X170771238Y-117460000D02*
X171858239Y-118547001D01*
X186532999Y-118547001D02*
X187620000Y-117460000D01*
X190771238Y-117460000D02*
X191858239Y-118547001D01*
X220229316Y-118904999D02*
X220795001Y-118904999D01*
X194274219Y-118547001D02*
X195361220Y-117460000D01*
X171858239Y-118547001D02*
X186532999Y-118547001D01*
X210771238Y-117460000D02*
X212216237Y-118904999D01*
X191858239Y-118547001D02*
X194274219Y-118547001D01*
X195361220Y-117460000D02*
X210771238Y-117460000D01*
X221195000Y-118505000D02*
X220795001Y-118904999D01*
X221415001Y-118284999D02*
X221195000Y-118505000D01*
X227395001Y-118284999D02*
X221415001Y-118284999D01*
X228220000Y-117460000D02*
X227395001Y-118284999D01*
X187589798Y-127589798D02*
X177682514Y-127589798D01*
X177682514Y-127589798D02*
X177116829Y-127589798D01*
X187620000Y-127620000D02*
X187589798Y-127589798D01*
X195366755Y-136212580D02*
X195479174Y-136324999D01*
X189687200Y-136212580D02*
X195366755Y-136212580D01*
X213454999Y-136324999D02*
X214630000Y-137500000D01*
X195479174Y-136324999D02*
X213454999Y-136324999D01*
X225000000Y-116920000D02*
X220294999Y-116920000D01*
X220294999Y-116920000D02*
X220275000Y-116900001D01*
X155300000Y-116920000D02*
X160780000Y-116920000D01*
X160780000Y-116920000D02*
X160800000Y-116900000D01*
X167637853Y-132737859D02*
X164499993Y-129599999D01*
X164499993Y-129599999D02*
X164099994Y-129200000D01*
X185948320Y-132737859D02*
X167637853Y-132737859D01*
X186411180Y-132274999D02*
X186348319Y-132337860D01*
X197409922Y-132836920D02*
X196848001Y-132274999D01*
X219836920Y-132836920D02*
X197409922Y-132836920D01*
X186348319Y-132337860D02*
X185948320Y-132737859D01*
X196848001Y-132274999D02*
X186411180Y-132274999D01*
X206858001Y-120761999D02*
X207620000Y-120000000D01*
X206532999Y-121087001D02*
X206858001Y-120761999D01*
X191858239Y-121087001D02*
X206532999Y-121087001D01*
X190771238Y-120000000D02*
X191858239Y-121087001D01*
X187620000Y-120000000D02*
X190771238Y-120000000D01*
X187089380Y-120530620D02*
X187620000Y-120000000D01*
X173752970Y-120530620D02*
X187089380Y-120530620D01*
X173196589Y-121087001D02*
X173752970Y-120530620D01*
X171858239Y-121087001D02*
X173196589Y-121087001D01*
X167620000Y-120000000D02*
X170771238Y-120000000D01*
X170771238Y-120000000D02*
X171858239Y-121087001D01*
X211371238Y-120000000D02*
X212626239Y-121255001D01*
X208020000Y-120000000D02*
X211371238Y-120000000D01*
X213333761Y-121255001D02*
X212626239Y-121255001D01*
X213953761Y-120635001D02*
X213333761Y-121255001D01*
X226507369Y-120635001D02*
X213953761Y-120635001D01*
X227142370Y-120000000D02*
X226507369Y-120635001D01*
X228220000Y-120000000D02*
X227142370Y-120000000D01*
X171618001Y-124318001D02*
X172380000Y-125080000D01*
X171244999Y-123944999D02*
X171618001Y-124318001D01*
X155645999Y-123944999D02*
X171244999Y-123944999D01*
X154510998Y-125080000D02*
X155645999Y-123944999D01*
X152380000Y-125080000D02*
X154510998Y-125080000D01*
X191618001Y-124318001D02*
X192380000Y-125080000D01*
X191292999Y-123992999D02*
X191618001Y-124318001D01*
X174544631Y-123992999D02*
X191292999Y-123992999D01*
X173457630Y-125080000D02*
X174544631Y-123992999D01*
X172380000Y-125080000D02*
X173457630Y-125080000D01*
X211618001Y-124318001D02*
X212380000Y-125080000D01*
X211292999Y-123992999D02*
X211618001Y-124318001D01*
X207098239Y-123992999D02*
X211292999Y-123992999D01*
X206011238Y-125080000D02*
X207098239Y-123992999D01*
X192380000Y-125080000D02*
X206011238Y-125080000D01*
X207098239Y-121452999D02*
X211292999Y-121452999D01*
X206011238Y-122540000D02*
X207098239Y-121452999D01*
X211292999Y-121452999D02*
X211618001Y-121778001D01*
X190927001Y-121087001D02*
X192380000Y-122540000D01*
X171244999Y-121404999D02*
X172380000Y-122540000D01*
X192380000Y-122540000D02*
X206011238Y-122540000D01*
X169075719Y-121404999D02*
X171244999Y-121404999D01*
X173939370Y-120980630D02*
X186991868Y-120980630D01*
X211618001Y-121778001D02*
X212380000Y-122540000D01*
X172380000Y-122540000D02*
X173939370Y-120980630D01*
X186991868Y-120980630D02*
X187098239Y-121087001D01*
X187098239Y-121087001D02*
X190927001Y-121087001D01*
X168510034Y-121404999D02*
X169075719Y-121404999D01*
X167304999Y-121404999D02*
X168510034Y-121404999D01*
X166724999Y-120824999D02*
X167304999Y-121404999D01*
X154095001Y-120824999D02*
X166724999Y-120824999D01*
X152380000Y-122540000D02*
X154095001Y-120824999D01*
X173457630Y-120000000D02*
X173461031Y-120003401D01*
X172380000Y-120000000D02*
X173457630Y-120000000D01*
X173461031Y-120003401D02*
X186007837Y-120003401D01*
X190762920Y-119549990D02*
X191929990Y-119549990D01*
X190125929Y-118912999D02*
X190762920Y-119549990D01*
X194757630Y-118700000D02*
X211080000Y-118700000D01*
X211618001Y-119238001D02*
X212380000Y-120000000D01*
X186007837Y-120003401D02*
X187098239Y-118912999D01*
X187098239Y-118912999D02*
X190125929Y-118912999D01*
X191929990Y-119549990D02*
X192380000Y-120000000D01*
X192380000Y-120000000D02*
X193457630Y-120000000D01*
X193457630Y-120000000D02*
X194757630Y-118700000D01*
X211080000Y-118700000D02*
X211618001Y-119238001D01*
X171818001Y-119238001D02*
X172580000Y-120000000D01*
X171484999Y-118904999D02*
X171818001Y-119238001D01*
X167456237Y-118904999D02*
X171484999Y-118904999D01*
X166836237Y-118284999D02*
X167456237Y-118904999D01*
X154095001Y-118284999D02*
X166836237Y-118284999D01*
X152380000Y-120000000D02*
X154095001Y-118284999D01*
X175765685Y-135799998D02*
X175200000Y-135799998D01*
X205242160Y-135149420D02*
X204516592Y-135874988D01*
X177864173Y-135312201D02*
X177376376Y-135799998D01*
X177376376Y-135799998D02*
X175765685Y-135799998D01*
X195424988Y-135312201D02*
X177864173Y-135312201D01*
X204516592Y-135874988D02*
X195987775Y-135874988D01*
X195987775Y-135874988D02*
X195424988Y-135312201D01*
X177065685Y-134800000D02*
X176500000Y-134800000D01*
X196213199Y-135424977D02*
X195588222Y-134800000D01*
X198325558Y-134424420D02*
X197325001Y-135424977D01*
X195588222Y-134800000D02*
X177065685Y-134800000D01*
X197325001Y-135424977D02*
X196213199Y-135424977D01*
X225054160Y-134424420D02*
X198325558Y-134424420D01*
X225000000Y-114380000D02*
X218920000Y-114380000D01*
X218920000Y-114380000D02*
X218900000Y-114400000D01*
X155300000Y-114380000D02*
X163980000Y-114380000D01*
X163980000Y-114380000D02*
X165100000Y-115500000D01*
X165200000Y-129565685D02*
X165200000Y-129000000D01*
X167606316Y-131972001D02*
X165200000Y-129565685D01*
X183604703Y-131839299D02*
X183472001Y-131972001D01*
X183604703Y-131650000D02*
X183604703Y-131839299D01*
X183472001Y-131972001D02*
X167606316Y-131972001D01*
X183619014Y-131824988D02*
X183472001Y-131972001D01*
X197034401Y-131824988D02*
X183619014Y-131824988D01*
X219000000Y-131972001D02*
X197181414Y-131972001D01*
X197181414Y-131972001D02*
X197034401Y-131824988D01*
X167200000Y-125500000D02*
X167620000Y-125080000D01*
X156300000Y-125500000D02*
X167200000Y-125500000D01*
X171191238Y-125300000D02*
X169700000Y-125300000D01*
X172058239Y-126167001D02*
X171191238Y-125300000D01*
X173101761Y-126167001D02*
X172058239Y-126167001D01*
X187820000Y-125080000D02*
X174188762Y-125080000D01*
X174188762Y-125080000D02*
X173101761Y-126167001D01*
X190367001Y-126167001D02*
X190100000Y-125900000D01*
X208020000Y-125080000D02*
X206932999Y-126167001D01*
X206932999Y-126167001D02*
X190367001Y-126167001D01*
X190500000Y-137000000D02*
X172700000Y-137000000D01*
X172700000Y-137000000D02*
X170499999Y-134799999D01*
X170499999Y-134799999D02*
X170100000Y-134400000D01*
X228220000Y-125080000D02*
X215680000Y-125080000D01*
X215680000Y-125080000D02*
X215600000Y-125000000D01*
X188149991Y-133549990D02*
X187600000Y-132999999D01*
X215022385Y-133549990D02*
X188149991Y-133549990D01*
X215600000Y-133561920D02*
X215034315Y-133561920D01*
X215034315Y-133561920D02*
X215022385Y-133549990D01*
M02*
