M48
; DRILL file {KiCad (5.1.4)-1} date 25-09-2019 15:42:09
; FORMAT={3:3/ absolute / metric / suppress leading zeros}
; #@! TF.CreationDate,2019-09-25T15:42:09+02:00
; #@! TF.GenerationSoftware,Kicad,Pcbnew,(5.1.4)-1
FMAT,2
METRIC,TZ
T1C0.400
T2C0.762
T3C0.900
T4C1.000
T5C2.200
%
G90
G05
T1
X156300Y-125500
X157066Y-106556
X158629Y-107871
X160800Y-116900
X162400Y-109900
X164100Y-129200
X164119Y-109819
X164762Y-104364
X165100Y-115500
X165200Y-129000
X165358Y-114475
X165694Y-122626
X166047Y-128469
X166424Y-105321
X169076Y-121405
X169700Y-125300
X169882Y-120000
X170100Y-134400
X170600Y-127600
X170906Y-133469
X175200Y-135800
X175308Y-130462
X176500Y-134800
X177117Y-127590
X177925Y-116007
X178001Y-121849
X178994Y-106556
X179090Y-130497
X180004Y-130902
X180033Y-119278
X180947Y-107871
X182000Y-129100
X182832Y-119275
X182928Y-121849
X183238Y-113833
X183605Y-131650
X185948Y-132738
X187600Y-133000
X188989Y-116373
X188989Y-118185
X189100Y-111200
X189687Y-136213
X190100Y-125900
X190500Y-137000
X191063Y-118777
X194737Y-115645
X196700Y-134500
X196854Y-110971
X200670Y-114192
X203772Y-110927
X204211Y-131247
X204345Y-114920
X204513Y-109012
X205242Y-135149
X209416Y-129073
X210282Y-104983
X210383Y-126533
X215600Y-125000
X215600Y-133562
X218900Y-114400
X219000Y-131972
X219812Y-113467
X219837Y-132837
X220275Y-116900
X220795Y-118905
X221929Y-107871
X223144Y-106556
X225054Y-134424
T2
X172580Y-109840
X172580Y-112380
X172580Y-114920
X172580Y-117460
X172580Y-120000
X172580Y-122540
X172580Y-125080
X172580Y-127620
X172580Y-130160
X187820Y-109840
X187820Y-112380
X187820Y-114920
X187820Y-117460
X187820Y-120000
X187820Y-122540
X187820Y-125080
X187820Y-127620
X187820Y-130160
X192780Y-109840
X192780Y-112380
X192780Y-114920
X192780Y-117460
X192780Y-120000
X192780Y-122540
X192780Y-125080
X192780Y-127620
X192780Y-130160
X208020Y-109840
X208020Y-112380
X208020Y-114920
X208020Y-117460
X208020Y-120000
X208020Y-122540
X208020Y-125080
X208020Y-127620
X208020Y-130160
X212980Y-109840
X212980Y-112380
X212980Y-114920
X212980Y-117460
X212980Y-120000
X212980Y-122540
X212980Y-125080
X212980Y-127620
X212980Y-130160
X228220Y-109840
X228220Y-112380
X228220Y-114920
X228220Y-117460
X228220Y-120000
X228220Y-122540
X228220Y-125080
X228220Y-127620
X228220Y-130160
X152380Y-109840
X152380Y-112380
X152380Y-114920
X152380Y-117460
X152380Y-120000
X152380Y-122540
X152380Y-125080
X152380Y-127620
X152380Y-130160
X167620Y-109840
X167620Y-112380
X167620Y-114920
X167620Y-117460
X167620Y-120000
X167620Y-122540
X167620Y-125080
X167620Y-127620
X167620Y-130160
T3
X157760Y-102800
X159030Y-102800
X160300Y-102800
X161570Y-102800
X198300Y-102800
X199570Y-102800
X200840Y-102800
X202110Y-102800
X218030Y-102800
X219300Y-102800
X220570Y-102800
X221840Y-102800
X178300Y-102800
X179570Y-102800
X180840Y-102800
X182110Y-102800
T4
X225000Y-114380
X225000Y-116920
X225000Y-119460
X225000Y-122000
X155300Y-114380
X155300Y-116920
X155300Y-119460
X155300Y-122000
X160600Y-137800
X163140Y-137800
X165680Y-137800
X168220Y-137800
X170760Y-137800
X194610Y-137500
X197150Y-137500
X199690Y-137500
X202230Y-137500
X204770Y-137500
X207310Y-137500
X209850Y-137500
X212390Y-137500
X214930Y-137500
T5
X226000Y-103000
X226000Y-137000
X154000Y-137000
X154000Y-103000
T0
M30
